<?xml version="1.0" encoding="UTF-8" standalone="no"?>
<!DOCTYPE svg PUBLIC "-//W3C//DTD SVG 1.1//EN" "http://www.w3.org/Graphics/SVG/1.1/DTD/svg11.dtd">
<svg width="75%" height="75%" viewBox="0 0 1600 444" version="1.1" xmlns="http://www.w3.org/2000/svg" xmlns:xlink="http://www.w3.org/1999/xlink" xml:space="preserve" xmlns:serif="http://www.serif.com/" style="fill-rule:evenodd;clip-rule:evenodd;stroke-linecap:round;stroke-linejoin:round;stroke-miterlimit:1.5;" fill="currentColor" stroke="none">
    <g transform="matrix(1,0,0,1,-733.806,-436.49)" fill="none" stroke="currentColor" style="stroke-width:3.75px;">
        <path d="M991.452,596.235C991.452,607.651 982.198,616.906 970.782,616.906C918.906,616.906 787.333,616.906 787.333,616.906C773.272,616.906 761.855,628.322 761.855,642.383L761.855,693.339C761.855,707.4 773.272,718.816 787.333,718.816L973.921,718.816C978.571,718.816 983.03,720.663 986.317,723.951C989.605,727.239 991.452,731.698 991.452,736.347C991.452,767.521 991.452,829.353 991.452,829.353C991.452,852.153 1009.96,870.664 1032.76,870.664L1115.39,870.664C1138.19,870.664 1156.7,852.153 1156.7,829.353L1156.7,733.322C1156.7,729.475 1158.23,725.785 1160.95,723.065C1163.67,720.344 1167.36,718.816 1171.2,718.816C1251.88,718.816 1641.68,718.816 1641.68,718.816C1655.75,718.816 1667.16,707.4 1667.16,693.339L1667.16,642.383C1667.16,628.322 1655.75,616.906 1641.68,616.906L1176.33,616.906C1171.12,616.906 1166.13,614.838 1162.45,611.156C1158.77,607.475 1156.7,602.482 1156.7,597.275C1156.7,560.954 1156.7,486.93 1156.7,486.93C1156.7,464.129 1138.19,445.619 1115.39,445.619L1032.76,445.619C1009.96,445.619 991.452,464.129 991.452,486.93L991.452,596.235Z" />
    </g>
    <g transform="matrix(1,0,0,1,783.202,-197.207)">
        <g transform="matrix(50,0,0,50,685.18,596)">
        </g>
        <text x="464.98px" y="596px" style="font-family:'GFSNeohellenic-Regular', 'GFS Neohellenic';font-size:50px;">instrumental</text>
    </g>
    <g transform="matrix(1,0,0,1,512.475,-197.207)">
        <g transform="matrix(50,0,0,50,624.93,596)">
        </g>
        <text x="525.23px" y="596px" style="font-family:'GFSNeohellenic-Regular', 'GFS Neohellenic';font-size:50px;">cause</text>
    </g>
    <g transform="matrix(1,0,0,1,943.171,-349.055)">
        <g transform="matrix(50,0,0,50,632.505,596)">
        </g>
        <text x="517.655px" y="596px" style="font-family:'GFSNeohellenic-Regular', 'GFS Neohellenic';font-size:50px;">source</text>
    </g>
    <g transform="matrix(1,0,0,1,-232.415,-197.207)">
        <g transform="matrix(50,0,0,50,631.83,596)">
        </g>
        <text x="518.33px" y="596px" style="font-family:'GFSNeohellenic-Regular', 'GFS Neohellenic';font-size:50px;">extent</text>
    </g>
    <g transform="matrix(1,0,0,1,-446.594,-349.055)">
        <g transform="matrix(50,0,0,50,623.08,596)">
        </g>
        <text x="527.08px" y="596px" style="font-family:'GFSNeohellenic-Regular', 'GFS Neohellenic';font-size:50px;">result</text>
    </g>
    <g transform="matrix(1,0,0,1,-232.415,-520.342)">
        <g transform="matrix(50,0,0,50,629.455,596)">
        </g>
        <text x="520.705px" y="596px" style="font-family:'GFSNeohellenic-Regular', 'GFS Neohellenic';font-size:50px;">future</text>
    </g>
    <g transform="matrix(1,0,0,1,1.66815,-197.207)">
        <g transform="matrix(50,0,0,50,684.505,596)">
        </g>
        <text x="465.655px" y="596px" style="font-family:'GFSNeohellenic-Regular', 'GFS Neohellenic';font-size:50px;">comparative</text>
    </g>
    <g transform="matrix(1,0,0,1,728.95,-349.055)">
        <g transform="matrix(50,0,0,50,643.955,596)">
        </g>
        <text x="506.205px" y="596px" style="font-family:'GFSNeohellenic-Regular', 'GFS Neohellenic';font-size:50px;">locative</text>
    </g>
    <g id="OQ" transform="matrix(1,0,0,1,-637.319,-1580.82)">
        <g id="noun-series">
        </g>
        <g id="Labels" transform="matrix(1,0,0,1,0,991.265)">
            <g transform="matrix(1,0,0,1,684.76,240.504)">
                <g transform="matrix(50,0,0,50,605.699,596)">
                </g>
                <text x="450.899px" y="596px" style="font-family:'GFSNeohellenic-Regular', 'GFS Neohellenic';font-size:50px;">direction</text>
            </g>
            <g transform="matrix(1,0,0,1,909.715,240.504)">
                <g transform="matrix(50,0,0,50,626.163,596)">
                </g>
                <text x="474.513px" y="596px" style="font-family:'GFSNeohellenic-Regular', 'GFS Neohellenic';font-size:50px;">recipient</text>
            </g>
            <g transform="matrix(1,0,0,1,1139.32,240.504)">
                <g transform="matrix(50,0,0,50,671.33,596)">
                </g>
                <text x="478.83px" y="596px" style="font-family:'GFSNeohellenic-Regular', 'GFS Neohellenic';font-size:50px;">benefactor</text>
            </g>
            <g transform="matrix(1,0,0,1,920.085,67.0413)">
                <text x="443.193px" y="570.4px" style="font-family:'GFSNeohellenic-Regular', 'GFS Neohellenic';font-size:50px;">predicative</text>
                <g transform="matrix(50,0,0,50,622.643,621.6)">
                </g>
                <text x="457.293px" y="621.6px" style="font-family:'GFSNeohellenic-Regular', 'GFS Neohellenic';font-size:50px;">possessor</text>
            </g>
            <g transform="matrix(1,0,0,1,909.715,392.352)">
                <g transform="matrix(50,0,0,50,671.4,596)">
                </g>
                <text x="466.95px" y="596px" style="font-family:'GFSNeohellenic-Regular', 'GFS Neohellenic';font-size:50px;">experiencer</text>
            </g>
            <g transform="matrix(1,0,0,1,400.246,240.504)">
                <g transform="matrix(50,0,0,50,651.224,596)">
                </g>
                <text x="511.674px" y="596px" style="font-family:'GFSNeohellenic-Regular', 'GFS Neohellenic';font-size:50px;">purpose</text>
            </g>
        </g>
    </g>
</svg>
