<?xml version="1.0" encoding="UTF-8" standalone="no"?>
<!DOCTYPE svg PUBLIC "-//W3C//DTD SVG 1.1//EN" "http://www.w3.org/Graphics/SVG/1.1/DTD/svg11.dtd">
<svg width="50%" height="50%" viewBox="0 0 904 685" version="1.1" xmlns="http://www.w3.org/2000/svg" xmlns:xlink="http://www.w3.org/1999/xlink" xml:space="preserve" xmlns:serif="http://www.serif.com/" style="fill-rule:evenodd;clip-rule:evenodd;" fill="currentColor" stroke="currentColor">
    <g id="path1" transform="matrix(1,0,0,1,2.94585,6.23542)">
        <path d="M5.3,2.94L881.307,2.011L882.52,660L442.839,658.783L5.3,2.94Z" style="fill:none;fill-rule:nonzero;stroke-width:4px;"/>
    </g>
    <g id="path2" transform="matrix(1,0,0,1,2.94585,6.23542)">
        <path d="M443.768,2.94L661.144,658.783" style="fill:none;fill-rule:nonzero;stroke-width:4px;"/>
    </g>
    <g id="path3" transform="matrix(1,0,0,1,2.94585,6.23542)">
        <path d="M152.076,222.174L881.307,221.245" style="fill:none;fill-rule:nonzero;stroke-width:4px;"/>
    </g>
    <g id="path4" transform="matrix(1,0,0,1,2.94585,6.23542)">
        <path d="M299.78,441.407L879.449,439.55L880.378,439.55L880.378,438.621" style="fill:none;fill-rule:nonzero;stroke-width:4px;"/>
    </g>
    <g id="circle4535" transform="matrix(1,0,0,1,-75.4376,-122.587)">
        <path d="M332.246,472.253C332.246,482.127 324.121,490.253 314.246,490.253C304.371,490.253 296.246,482.127 296.246,472.253C296.246,462.378 304.371,454.253 314.246,454.253C324.121,454.253 332.246,462.378 332.246,472.253Z" style="fill-rule:nonzero;stroke:none;"/>
    </g>
    <g id="path4708" transform="matrix(1,0,0,1,-75.4376,-122.587)">
        <path d="M333.411,432.614C333.411,430.095 334.368,428.171 336.282,426.843C338.196,425.534 341.067,424.88 344.896,424.88C345.95,424.88 347.493,425.036 349.524,425.349C351.556,425.681 353.665,426.149 355.853,426.755L355.853,433.229L352.688,433.229C352.454,431.491 351.634,430.183 350.228,429.304C348.821,428.425 347.2,427.985 345.364,427.985C340.813,427.985 338.538,429.616 338.538,432.878C338.538,436.608 341.048,438.474 346.067,438.474L348.792,438.474L348.792,441.55L346.097,441.55C343.011,441.55 340.716,442.155 339.212,443.366C337.767,444.538 337.044,446.257 337.044,448.522C337.044,450.065 337.562,451.325 338.597,452.302C340.296,453.903 342.532,454.704 345.306,454.704C347.571,454.704 349.524,454.186 351.165,453.151C352.806,452.116 353.724,450.602 353.919,448.61L357.083,448.61L357.083,455.378C355.013,456.081 352.923,456.608 350.813,456.96C348.782,457.311 346.985,457.487 345.423,457.487C341.048,457.487 337.659,456.716 335.257,455.173C332.874,453.63 331.692,451.393 331.712,448.464C331.712,445.827 332.737,443.747 334.788,442.224C336.175,441.169 338.04,440.388 340.384,439.88C338.782,439.509 337.454,438.981 336.399,438.298C334.407,436.989 333.411,435.095 333.411,432.614Z" style="fill-rule:nonzero;stroke:none;"/>
    </g>
    <g id="path4710" transform="matrix(1,0,0,1,-75.4376,-122.587)">
        <path d="M373.694,456.345L366.136,456.345L369.036,448.493L370.823,448.493L373.694,456.345ZM366.136,430.329L373.694,430.329L370.794,438.181L369.007,438.181L366.136,430.329Z" style="fill-rule:nonzero;stroke:none;"/>
    </g>
    <g id="circle4523" transform="matrix(1,0,0,1,-12.8915,-22.8424)">
        <path d="M373.035,209.042C373.035,218.917 364.91,227.042 355.035,227.042C345.161,227.042 337.035,218.917 337.035,209.042C337.035,199.168 345.161,191.042 355.035,191.042C364.91,191.042 373.035,199.168 373.035,209.042Z" style="fill-rule:nonzero;stroke:none;"/>
    </g>
    <g id="path4718" transform="matrix(1,0,0,1,-12.8915,-22.8424)">
        <path d="M323.92,221.933L329.018,221.933L329.018,225.038L313.373,225.038L313.373,221.933L318.529,221.933L318.529,197.03L313.373,197.03L313.373,193.896L329.018,193.896L329.018,196.913L323.92,196.913L323.92,221.933Z" style="fill-rule:nonzero;stroke:none;"/>
    </g>
    <g id="ellipse973" transform="matrix(0.972973,0,0,1.02857,-18.958,-320.684)">
        <path d="M110,350.5C110,360.1 101.649,368 91.5,368C81.351,368 73,360.1 73,350.5C73,340.9 81.351,333 91.5,333C101.649,333 110,340.9 110,350.5Z" style="fill-rule:nonzero;stroke:none;"/>
    </g>
    <g id="ellipse981" transform="matrix(0.972973,0,0,1.02857,768.875,-325.74)">
        <path d="M110,350.5C110,360.1 101.649,368 91.5,368C81.351,368 73,360.1 73,350.5C73,340.9 81.351,333 91.5,333C101.649,333 110,340.9 110,350.5Z" style="fill-rule:nonzero;stroke:none;"/>
    </g>
    <g id="path1935" transform="matrix(1,0,0,1,520.404,-253.107)">
        <path d="M280.24,280.439L290.318,280.439L290.318,308.477L295.416,308.477L295.416,311.582L284.928,311.582L284.928,306.074C283.932,308.145 282.643,309.727 281.061,310.82C279.479,311.895 277.643,312.432 275.553,312.432C272.096,312.432 269.547,311.455 267.906,309.502C266.285,307.529 265.475,304.443 265.475,300.244L265.475,283.574L260.611,283.574L260.611,280.439L270.895,280.439L270.895,298.574C270.895,302.363 271.354,304.961 272.271,306.367C273.209,307.773 274.869,308.477 277.252,308.477C279.752,308.477 281.656,307.559 282.965,305.723C284.273,303.887 284.928,301.221 284.928,297.725L284.928,283.574L280.24,283.574L280.24,280.439Z" style="fill-rule:nonzero;stroke:none;"/>
    </g>
    <g id="path1937" transform="matrix(1,0,0,1,520.404,-253.107)">
        <path d="M311.559,311.582L304,311.582L306.9,303.73L308.688,303.73L311.559,311.582ZM304,285.566L311.559,285.566L308.658,293.418L306.871,293.418L304,285.566Z" style="fill-rule:nonzero;stroke:none;"/>
    </g>
    <g transform="matrix(1,0,0,1,-85.8901,-27.6857)">
        <g transform="matrix(60,0,0,60,220.969,96.3225)">
        </g>
        <text x="181.565px" y="96.322px" style="font-family:'DejaVuSerif', 'DejaVu Serif', serif;font-size:60px; stroke:none;">iː</text>
    </g>
    <g transform="matrix(1,0,0,1,587.343,220.845)">
        <g transform="matrix(60,0,0,60,235.383,96.3225)">
        </g>
        <text x="181.565px" y="96.322px" style="font-family:'DejaVuSerif', 'DejaVu Serif', serif;font-size:60px; stroke:none;">ɔː</text>
    </g>
    <g id="ellipse989" transform="matrix(0.972973,0,0,1.02857,549.182,-215.405)">
        <path d="M110,350.5C110,360.1 101.649,368 91.5,368C81.351,368 73,360.1 73,350.5C73,340.9 81.351,333 91.5,333C101.649,333 110,340.9 110,350.5Z" style="fill-rule:nonzero;stroke:none;"/>
    </g>
    <g id="path1953" transform="matrix(1,0,0,1,405.262,-158.14)">
        <path d="M293.219,281.574L284.928,281.574C287.916,282.824 290.045,284.66 291.314,287.082C292.584,289.484 293.219,292.219 293.219,295.285C293.219,297.395 292.799,299.416 291.959,301.35C291.119,303.283 289.918,304.963 288.355,306.389C286.949,307.697 285.318,308.703 283.463,309.406C281.627,310.09 279.674,310.432 277.604,310.432C275.514,310.432 273.561,310.09 271.744,309.406C269.928,308.723 268.307,307.717 266.881,306.389C265.279,304.924 264.059,303.244 263.219,301.35C262.398,299.455 261.988,297.434 261.988,295.285C261.988,292.219 262.623,289.484 263.893,287.082C265.162,284.66 267.301,282.824 270.309,281.574L262.018,281.574L262.018,278.439L275.055,278.439L275.055,281.574C272.73,282.473 270.973,284.162 269.781,286.643C268.59,289.104 267.994,291.828 267.994,294.816C267.994,298.43 268.873,301.33 270.631,303.518C272.408,305.705 274.732,306.799 277.604,306.799C280.475,306.799 282.789,305.705 284.547,303.518C286.324,301.33 287.213,298.43 287.213,294.816C287.213,291.809 286.617,289.074 285.426,286.613C284.234,284.152 282.486,282.473 280.182,281.574L280.182,278.439L293.219,278.439L293.219,281.574Z" style="fill-rule:nonzero;stroke:none;"/>
    </g>
    <g id="circle4531" transform="matrix(1,0,0,1,-9.77442,-24.8723)">
        <path d="M730.443,688.553C730.443,698.427 722.318,706.553 712.443,706.553C702.569,706.553 694.443,698.427 694.443,688.553C694.443,678.678 702.569,670.553 712.443,670.553C722.318,670.553 730.443,678.678 730.443,688.553Z" style="fill-rule:nonzero;stroke:none;"/>
    </g>
    <g id="path4658" transform="matrix(1,0,0,1,-9.77442,-24.8723)">
        <path d="M762.724,671.71L767.88,671.71L767.88,674.845L757.333,674.845L757.333,669.982C756.278,671.935 754.931,673.38 753.29,674.317C751.669,675.235 749.657,675.694 747.255,675.694C743.427,675.694 740.292,674.181 737.851,671.153C735.429,668.107 734.218,664.142 734.218,659.259C734.218,654.376 735.429,650.421 737.851,647.394C740.273,644.366 743.407,642.853 747.255,642.853C749.657,642.853 751.669,643.321 753.29,644.259C754.931,645.177 756.278,646.612 757.333,648.566L757.333,643.702L767.88,643.702L767.88,646.837L762.724,646.837L762.724,671.71ZM757.333,660.812L757.333,657.735C757.333,654.005 756.61,651.153 755.165,649.181C753.739,647.208 751.659,646.222 748.925,646.222C746.151,646.222 744.052,647.316 742.626,649.503C741.22,651.691 740.517,654.943 740.517,659.259C740.517,663.556 741.22,666.808 742.626,669.015C744.052,671.222 746.151,672.325 748.925,672.325C751.659,672.325 753.739,671.349 755.165,669.396C756.61,667.423 757.333,664.562 757.333,660.812Z" style="fill-rule:nonzero;stroke:none;"/>
    </g>
    <g id="path4662" transform="matrix(1,0,0,1,-9.77442,-24.8723)">
        <path d="M783.554,674.845L775.995,674.845L778.896,666.993L780.683,666.993L783.554,674.845ZM775.995,648.829L783.554,648.829L780.653,656.681L778.866,656.681L775.995,648.829Z" style="fill-rule:nonzero;stroke:none;"/>
    </g>
    <g id="ellipse1045" transform="matrix(0.972973,0,0,1.02857,735.113,84.6757)">
        <path d="M110,350.5C110,360.1 101.649,368 91.5,368C81.351,368 73,360.1 73,350.5C73,340.9 81.351,333 91.5,333C101.649,333 110,340.9 110,350.5Z" style="fill-rule:nonzero;stroke:none;"/>
    </g>
    <g id="path1957" transform="matrix(1,0,0,1,514.863,119.634)">
        <path d="M261.988,289.785C262.75,286.465 264.215,283.936 266.383,282.197C268.551,280.459 271.354,279.59 274.791,279.59C279.322,279.59 282.965,281.084 285.719,284.072C288.473,287.08 289.85,291.064 289.85,296.025C289.85,301.006 288.473,304.99 285.719,307.979C282.965,310.947 279.322,312.432 274.791,312.432C272.818,312.432 270.855,312.197 268.902,311.729C266.949,311.279 264.986,310.586 263.014,309.648L263.014,301.68L266.148,301.68C266.559,304.414 267.457,306.406 268.844,307.656C270.211,308.906 272.174,309.531 274.732,309.531C277.643,309.531 279.84,308.408 281.324,306.162C282.809,303.896 283.551,300.518 283.551,296.025C283.551,291.533 282.809,288.154 281.324,285.889C279.859,283.623 277.662,282.49 274.732,282.49C272.408,282.49 270.553,283.096 269.166,284.307C267.779,285.518 266.832,287.344 266.324,289.785L261.988,289.785Z" style="fill-rule:nonzero;stroke:none;"/>
    </g>
    <g id="ellipse10451" serif:id="ellipse1045" transform="matrix(0.972973,0,0,1.02857,759.002,-31.0184)">
        <path d="M110,350.5C110,360.1 101.649,368 91.5,368C81.351,368 73,360.1 73,350.5C73,340.9 81.351,333 91.5,333C101.649,333 110,340.9 110,350.5Z" style="fill-rule:nonzero;stroke:none;"/>
    </g>
    <g id="circle45311" serif:id="circle4531" transform="matrix(1,0,0,1,-61.3458,-59.527)">
        <path d="M730.443,688.553C730.443,698.427 722.318,706.553 712.443,706.553C702.569,706.553 694.443,698.427 694.443,688.553C694.443,678.678 702.569,670.553 712.443,670.553C722.318,670.553 730.443,678.678 730.443,688.553Z" style="fill-rule:nonzero;stroke:none;"/>
    </g>
    <g id="path1913" transform="matrix(1,0,0,1,334.304,328.95)">
        <path d="M282.877,301.797L282.877,295.205L275.934,295.205C273.258,295.205 271.266,295.781 269.957,296.934C268.648,298.086 267.994,299.854 267.994,302.236C267.994,304.404 268.658,306.123 269.986,307.393C271.314,308.662 273.111,309.297 275.377,309.297C277.623,309.297 279.43,308.604 280.797,307.217C282.184,305.83 282.877,304.023 282.877,301.797ZM288.268,292.129L288.268,308.477L293.072,308.477L293.072,311.582L282.877,311.582L282.877,308.213C281.686,309.658 280.309,310.723 278.746,311.406C277.184,312.09 275.357,312.432 273.268,312.432C269.811,312.432 267.066,311.514 265.035,309.678C263.004,307.842 261.988,305.361 261.988,302.236C261.988,299.014 263.15,296.514 265.475,294.736C267.799,292.959 271.08,292.07 275.318,292.07L282.877,292.07L282.877,289.932C282.877,287.568 282.154,285.742 280.709,284.453C279.283,283.145 277.271,282.49 274.674,282.49C272.525,282.49 270.816,282.979 269.547,283.955C268.277,284.932 267.486,286.377 267.174,288.291L264.391,288.291L264.391,281.992C266.266,281.191 268.082,280.596 269.84,280.205C271.617,279.795 273.346,279.59 275.025,279.59C279.342,279.59 282.623,280.664 284.869,282.813C287.135,284.941 288.268,288.047 288.268,292.129Z" style="fill-rule:nonzero;stroke:none;"/>
    </g>
    <g id="circle45351" serif:id="circle4535" transform="matrix(1,0,0,1,-14.0895,-25.4527)">
        <path d="M332.246,472.253C332.246,482.127 324.121,490.253 314.246,490.253C304.371,490.253 296.246,482.127 296.246,472.253C296.246,462.378 304.371,454.253 314.246,454.253C324.121,454.253 332.246,462.378 332.246,472.253Z" style="fill-rule:nonzero;stroke:none;"/>
    </g>
    <g id="path47081" serif:id="path4708" transform="matrix(1,0,0,1,-73.0889,37.5132)">
        <path d="M333.411,432.614C333.411,430.095 334.368,428.171 336.282,426.843C338.196,425.534 341.067,424.88 344.896,424.88C345.95,424.88 347.493,425.036 349.524,425.349C351.556,425.681 353.665,426.149 355.853,426.755L355.853,433.229L352.688,433.229C352.454,431.491 351.634,430.183 350.228,429.304C348.821,428.425 347.2,427.985 345.364,427.985C340.813,427.985 338.538,429.616 338.538,432.878C338.538,436.608 341.048,438.474 346.067,438.474L348.792,438.474L348.792,441.55L346.097,441.55C343.011,441.55 340.716,442.155 339.212,443.366C337.767,444.538 337.044,446.257 337.044,448.522C337.044,450.065 337.562,451.325 338.597,452.302C340.296,453.903 342.532,454.704 345.306,454.704C347.571,454.704 349.524,454.186 351.165,453.151C352.806,452.116 353.724,450.602 353.919,448.61L357.083,448.61L357.083,455.378C355.013,456.081 352.923,456.608 350.813,456.96C348.782,457.311 346.985,457.487 345.423,457.487C341.048,457.487 337.659,456.716 335.257,455.173C332.874,453.63 331.692,451.393 331.712,448.464C331.712,445.827 332.737,443.747 334.788,442.224C336.175,441.169 338.04,440.388 340.384,439.88C338.782,439.509 337.454,438.981 336.399,438.298C334.407,436.989 333.411,435.095 333.411,432.614Z" style="fill-rule:nonzero;stroke:none;"/>
    </g>
</svg>
