<?xml version="1.0" encoding="UTF-8" standalone="no"?>
<!DOCTYPE svg PUBLIC "-//W3C//DTD SVG 1.1//EN" "http://www.w3.org/Graphics/SVG/1.1/DTD/svg11.dtd">
<svg width="75%" height="75%" viewBox="0 0 500 164" version="1.1" xmlns="http://www.w3.org/2000/svg" xmlns:xlink="http://www.w3.org/1999/xlink" xml:space="preserve" xmlns:serif="http://www.serif.com/" style="fill-rule:evenodd;clip-rule:evenodd;stroke-linecap:round;stroke-linejoin:round;stroke-miterlimit:1.5;" fill="none" stroke="currentColor">
    <g transform="matrix(0.754967,0,0,1.21192,81.327,-23.5822)">
        <path d="M207.944,71.903L207.944,97.103C207.944,104.058 198.881,109.704 187.717,109.704L26.568,109.704C15.405,109.704 6.342,104.058 6.342,97.103L6.342,71.903C6.342,64.949 15.405,59.303 26.568,59.303L187.717,59.303C198.881,59.303 207.944,64.949 207.944,71.903Z"/>
    </g>
    <g transform="matrix(0.309603,0,0,1.21192,13.3904,-23.5822)">
        <path d="M207.944,71.903L207.944,97.103C207.944,104.058 185.843,109.704 158.621,109.704L55.664,109.704C28.442,109.704 6.342,104.058 6.342,97.103L6.342,71.903C6.342,64.949 28.442,59.303 55.664,59.303L158.621,59.303C185.843,59.303 207.944,64.949 207.944,71.903Z" />
    </g>
    <g transform="matrix(1.24936,0,0,1,238.786,-38.3511)">
        <path d="M207.944,71.903L207.944,97.103C207.944,104.058 203.425,109.704 197.859,109.704L16.427,109.704C10.861,109.704 6.342,104.058 6.342,97.103L6.342,71.903C6.342,64.949 10.861,59.303 16.427,59.303L197.859,59.303C203.425,59.303 207.944,64.949 207.944,71.903Z" />
    </g>
    <g transform="matrix(1.24936,0,0,1,238.786,29.0721)">
        <path d="M207.944,71.903L207.944,97.103C207.944,104.058 203.425,109.704 197.859,109.704L16.427,109.704C10.861,109.704 6.342,104.058 6.342,97.103L6.342,71.903C6.342,64.949 10.861,59.303 16.427,59.303L197.859,59.303C203.425,59.303 207.944,64.949 207.944,71.903Z" />
    </g>
    <g transform="matrix(1.30938,0,0,0.89404,-6.88194,3.61353)">
        <path d="M190.1,122.185C189.06,114.96 184.707,109.789 179.665,109.789C179.619,109.704 179.595,109.704 179.595,109.704L14.945,109.704C10.197,109.704 6.342,104.058 6.342,97.103L6.342,71.903C6.342,64.949 10.197,59.303 14.945,59.303L180.178,59.303C184.986,59.303 189.114,54.294 190.008,47.375C190.958,39.57 193.325,30.836 198.926,30.836L307.364,30.836C317.476,30.836 325.686,42.86 325.686,57.67L325.686,111.337C325.686,126.147 317.476,138.171 307.364,138.171L199.081,138.171C193.609,138.171 191.178,129.835 190.1,122.185Z" />
    </g>
    <g transform="matrix(1,0,0,1,1.52904,0.820292)" fill="currentColor" stroke="none">
        <g transform="matrix(16.6667,0,0,16.6667,53.0247,74.8851)">
        </g>
        <g transform="matrix(16.6667,0,0,16.6667,57.1474,74.8851)">
        </g>
        <text x="24.158px" y="74.885px" style="font-family:'GFSNeohellenic-Regular', 'GFS Neohellenic';font-size:16.667px;">speciﬁc</text>
        <g transform="matrix(16.6667,0,0,16.6667,64.8081,91.9518)">
        </g>
        <text x="25.258px" y="91.952px" style="font-family:'GFSNeohellenic-Regular', 'GFS Neohellenic';font-size:16.667px;">known</text>
    </g>
    <g transform="matrix(1,0,0,1,-2.70913,49.7024)" fill="currentColor" stroke="none">
        <g transform="matrix(16.6667,0,0,16.6667,52.4831,75.0113)">
        </g>
        <text x="37.583px" y="75.011px" style="font-family:'GFSNeohellenic-Italic', 'GFS Neohellenic';font-style:italic;font-size:16.667px;">eo</text>
    </g>
    <g transform="matrix(1,0,0,1,104.872,-31.7341)" fill="currentColor" stroke="none">
        <g transform="matrix(16.6667,0,0,16.6667,59.5831,75.0113)">
        </g>
        <text x="30.483px" y="75.011px" style="font-family:'GFSNeohellenic-Italic', 'GFS Neohellenic';font-style:italic;font-size:16.667px;">quen</text>
    </g>
    <g transform="matrix(1,0,0,1,178.271,57.5366)" fill="currentColor" stroke="none">
        <g transform="matrix(16.6667,0,0,16.6667,54.4747,75.0113)">
        </g>
        <text x="35.591px" y="75.011px" style="font-family:'GFSNeohellenic-Italic', 'GFS Neohellenic';font-style:italic;font-size:16.667px;">mo</text>
    </g>
    <g transform="matrix(1,0,0,1,408.213,83.3687)" fill="currentColor" stroke="none">
        <g transform="matrix(16.6667,0,0,16.6667,65.6331,75.0113)">
        </g>
        <text x="24.433px" y="75.011px" style="font-family:'GFSNeohellenic-Italic', 'GFS Neohellenic';font-style:italic;font-size:16.667px;">aiquen</text>
    </g>
    <g transform="matrix(1,0,0,1,406.573,-62.5018)" fill="currentColor" stroke="none">
        <g transform="matrix(16.6667,0,0,16.6667,63.1331,75.0113)">
        </g>
        <text x="26.933px" y="75.011px" style="font-family:'GFSNeohellenic-Italic', 'GFS Neohellenic';font-style:italic;font-size:16.667px;">úquen</text>
    </g>
    <g transform="matrix(1,0,0,1,70.6878,0.820292)" fill="currentColor" stroke="none">
        <g transform="matrix(16.6667,0,0,16.6667,59.7003,74.8851)">
        </g>
        <g transform="matrix(16.6667,0,0,16.6667,63.823,74.8851)">
        </g>
        <text x="30.834px" y="74.885px" style="font-family:'GFSNeohellenic-Regular', 'GFS Neohellenic';font-size:16.667px;">speciﬁc</text>
        <g transform="matrix(16.6667,0,0,16.6667,79.0253,91.9518)">
        </g>
        <text x="24.392px" y="91.952px" style="font-family:'GFSNeohellenic-Regular', 'GFS Neohellenic';font-size:16.667px;">unknown</text>
    </g>
    <g transform="matrix(1,0,0,1,139.847,0.820292)" fill="currentColor" stroke="none">
        <text x="37.097px" y="74.885px" style="font-family:'GFSNeohellenic-Regular', 'GFS Neohellenic';font-size:16.667px;">irrealis</text>
        <g transform="matrix(16.6667,0,0,16.6667,77.8891,91.9518)">
        </g>
        <g transform="matrix(16.6667,0,0,16.6667,82.0118,91.9518)">
        </g>
        <g transform="matrix(16.6667,0,0,16.6667,90.7725,91.9518)">
        </g>
        <text x="20.922px" y="91.952px" style="font-family:'GFSNeohellenic-Regular', 'GFS Neohellenic';font-size:16.667px;">non-speciﬁc</text>
    </g>
    <g transform="matrix(1,0,0,1,232.516,-22.5555)" fill="currentColor" stroke="none">
        <g transform="matrix(16.6667,0,0,16.6667,81.2225,74.8851)">
        </g>
        <text x="30.472px" y="74.885px" style="font-family:'GFSNeohellenic-Regular', 'GFS Neohellenic';font-size:16.667px;">question</text>
    </g>
    <g transform="matrix(1,0,0,1,232.516,40.5285)" fill="currentColor" stroke="none">
        <g transform="matrix(16.6667,0,0,16.6667,88.6391,74.8851)">
        </g>
        <text x="23.056px" y="74.885px" style="font-family:'GFSNeohellenic-Regular', 'GFS Neohellenic';font-size:16.667px;">conditional</text>
    </g>
    <g transform="matrix(1,0,0,1,311.621,40.5285)" fill="currentColor" stroke="none">
        <g transform="matrix(16.6667,0,0,16.6667,95.1729,74.8851)">
        </g>
        <text x="22.223px" y="74.885px" style="font-family:'GFSNeohellenic-Regular', 'GFS Neohellenic';font-size:16.667px;">comparative</text>
    </g>
    <g transform="matrix(1,0,0,1,400.419,40.5285)" fill="currentColor" stroke="none">
        <g transform="matrix(16.6667,0,0,16.6667,92.6563,74.8851)">
        </g>
        <text x="24.74px" y="74.885px" style="font-family:'GFSNeohellenic-Regular', 'GFS Neohellenic';font-size:16.667px;">free choice</text>
    </g>
    <g transform="matrix(1,0,0,1,317.322,-29.221)" fill="currentColor" stroke="none">
        <text x="33.972px" y="74.885px" style="font-family:'GFSNeohellenic-Regular', 'GFS Neohellenic';font-size:16.667px;">indirect</text>
        <g transform="matrix(16.6667,0,0,16.6667,82.2808,91.9518)">
        </g>
        <text x="29.414px" y="91.952px" style="font-family:'GFSNeohellenic-Regular', 'GFS Neohellenic';font-size:16.667px;">negation</text>
    </g>
    <g transform="matrix(1,0,0,1,400.419,-29.221)" fill="currentColor" stroke="none">
        <text x="39.297px" y="74.885px" style="font-family:'GFSNeohellenic-Regular', 'GFS Neohellenic';font-size:16.667px;">direct</text>
        <g transform="matrix(16.6667,0,0,16.6667,82.2808,91.9518)">
        </g>
        <text x="29.414px" y="91.952px" style="font-family:'GFSNeohellenic-Regular', 'GFS Neohellenic';font-size:16.667px;">negation</text>
    </g>
</svg>
