<?xml version="1.0" encoding="UTF-8" standalone="no"?>
<!DOCTYPE svg PUBLIC "-//W3C//DTD SVG 1.1//EN" "http://www.w3.org/Graphics/SVG/1.1/DTD/svg11.dtd">
<svg width="75%" height="75%" viewBox="0 0 370 180" version="1.1" xmlns="http://www.w3.org/2000/svg" xmlns:xlink="http://www.w3.org/1999/xlink" xml:space="preserve" xmlns:serif="http://www.serif.com/" style="fill-rule:evenodd;clip-rule:evenodd;stroke-linejoin:round;stroke-miterlimit:2;" fill="currentColor" stroke="currentColor">
    <g transform="matrix(1,0,0,1,-31,-18)">
        <path d="M42,61.867L43.02,61.867L45.527,64.219L48.034,62.938L50.541,62.621L53.047,65.2L55.554,65.287L58.061,64.956L60.568,63.518L63.075,62.491L65.582,64.895L68.089,65.15L70.596,66.043L73.103,65.082L75.61,62.949L78.117,62.703L80.624,61.984L83.131,62.702L85.638,63.574L88.145,64.127L90.652,66.103L93.159,67.199L95.666,67.826L98.172,68.649L100.679,68.189L103.186,66.986L105.693,65.34L108.2,65.76L110.707,65.883L113.214,65.73L115.721,65.673L118.228,66.214L120.735,67.234L123.242,68.424L125.749,69.132L128.256,70.074L130.763,71.694L133.27,73.445L135.777,74.859L138.284,74.729L140.791,74.737L143.298,76.464L145.804,75.691L148.311,77.658L150.818,77.779L153.325,75.098L155.832,72.45L158.339,68.963L160.846,66.037L163.353,66.136L165.86,68.249L168.367,67.426L170.874,67.909L173.381,68.139L175.888,66.929L178.395,67.108L180.902,68.415L183.409,69.096L184.662,69.096" style="fill:none;stroke-width:0.38px;"/>
    </g>
    <g transform="matrix(1,0,0,1,-31,-18)">
        <path d="M197.197,72.539L198.45,72.539L200.957,74.188L203.464,75.021L205.971,76.002L208.478,76.62L210.985,76.476L213.492,75.601L215.999,76.33L218.506,77.536L221.013,78.108L223.52,77.614L226.027,76.508L228.534,83.224L231.041,81.399L233.548,77.699L236.055,73.958L238.561,73.582L241.068,74.389L243.575,74.363L246.082,74.269L248.589,73.293L251.096,74.449L253.603,74.703L254.857,74.703" style="fill:none;stroke-width:0.38px;"/>
    </g>
    <g transform="matrix(1,0,0,1,-31,-18)">
        <path d="M272.405,85.097L273.659,85.097L276.166,80.367L278.673,79.703L281.18,81.468L283.687,84.032L286.193,85.403L288.7,85.161L289.954,85.161" style="fill:none;stroke-width:0.38px;"/>
    </g>
    <g transform="matrix(1,0,0,1,-31,-18)">
        <path d="M315.023,90.57L316.277,90.57L318.784,84.256L321.291,81.321L323.798,78.669L326.305,76.34L328.812,77.204L331.319,78.637L333.826,80.759L336.332,82.182L337.586,82.182" style="fill:none;stroke-width:0.38px;"/>
    </g>
    <g transform="matrix(1,0,0,1,-31,-18)">
        <path d="M340.093,93.205L341.346,93.205L343.853,95.87L346.36,96.632L348.867,98.278L351.374,100.161L353.881,101.975L356.388,102.211L358.895,103.439L361.402,104.796L363.909,106.339L366.416,113.727L368.923,116.149L371.43,116.368L373.937,116.129L375.19,116.129" style="fill:none;stroke-width:0.38px;"/>
    </g>
    <g transform="matrix(1,0,0,1,-31,-18)">
        <rect x="42" y="134.667" width="348" height="26.667" style="fill:none;stroke-width:0.38px;"/>
    </g>
    <g transform="matrix(1,0,0,1,-31,-18)">
        <path d="M46.911,134.667L46.911,133.947M46.911,132.627L46.911,131.907M46.911,130.587L46.911,129.867M46.911,128.547L46.911,127.827M46.911,126.507L46.911,125.787M46.911,124.467L46.911,123.747M46.911,122.427L46.911,121.707M46.911,120.387L46.911,119.667M46.911,118.347L46.911,117.627M46.911,116.307L46.911,115.587M46.911,114.267L46.911,113.547M46.911,112.227L46.911,111.507M46.911,110.187L46.911,109.467M46.911,108.147L46.911,107.427M46.911,106.107L46.911,105.387M46.911,104.067L46.911,103.347M46.911,102.027L46.911,101.307M46.911,99.987L46.911,99.267M46.911,97.947L46.911,97.227M46.911,95.907L46.911,95.187M46.911,93.867L46.911,93.147M46.911,91.827L46.911,91.107M46.911,89.787L46.911,89.067M46.911,87.747L46.911,87.027M46.911,85.707L46.911,84.987M46.911,83.667L46.911,82.947M46.911,81.627L46.911,80.907M46.911,79.587L46.911,78.867M46.911,77.547L46.911,76.827M46.911,75.507L46.911,74.787M46.911,73.467L46.911,72.747M46.911,71.427L46.911,70.707M46.911,69.387L46.911,68.667M46.911,67.347L46.911,66.627M46.911,65.307L46.911,64.587M46.911,63.267L46.911,62.547M46.911,61.227L46.911,60.507M46.911,59.187L46.911,58.467M46.911,57.147L46.911,56.427M46.911,55.107L46.911,54.387M46.911,53.067L46.911,52.347M46.911,51.027L46.911,50.307M46.911,48.987L46.911,48.267M46.911,46.947L46.911,46.227M46.911,44.907L46.911,44.187M46.911,42.867L46.911,42.147M46.911,40.827L46.911,40.107M46.911,38.787L46.911,38.067M46.911,36.747L46.911,36.027M46.911,34.707L46.911,33.987M46.911,32.667L46.911,31.947M46.911,30.627L46.911,29.907M46.911,28.587L46.911,28" style="fill:none;stroke-width:0.38px;"/>
    </g>
    <g transform="matrix(1,0,0,1,-31,-18)">
        <path d="M46.911,161.334L46.911,134.667" style="fill:none;stroke-width:0.38px;"/>
    </g>
    <g transform="matrix(1,0,0,1,-31,-18)">
        <path d="M80.599,151.08L80.599,150.941C81.216,150.901 81.366,150.752 81.366,150.224L81.366,145.473C81.366,145.065 81.346,144.865 80.898,144.865C80.758,144.865 80.728,144.865 80.589,144.875L80.589,144.726C81.047,144.616 82.033,144.328 82.162,144.278L82.212,144.278L82.212,150.224C82.212,150.792 82.322,150.901 82.959,150.941L82.959,151.08L80.599,151.08Z" style="fill-rule:nonzero;stroke:none;"/>
    </g>
    <g transform="matrix(1,0,0,1,-31,-18)">
        <path d="M87.571,150.423L87.571,150.682C87.282,151.001 87.033,151.18 86.684,151.18C86.176,151.18 86.067,150.831 86.037,150.453C85.648,150.782 85.17,151.18 84.593,151.18C83.955,151.18 83.537,150.732 83.537,150.154C83.537,149.128 84.463,148.79 86.017,148.182L86.017,147.614C86.017,147.435 86.037,146.738 85.26,146.738C84.981,146.738 84.553,146.887 84.553,147.246C84.553,147.365 84.603,147.495 84.603,147.614C84.603,147.883 84.364,148.043 84.135,148.043C83.886,148.043 83.726,147.814 83.726,147.594C83.726,147.236 84.164,146.499 85.35,146.499C86.385,146.499 86.824,146.987 86.824,147.943L86.824,150.055C86.824,150.353 86.824,150.622 87.123,150.622C87.372,150.622 87.571,150.423 87.571,150.423ZM86.017,148.411C85.35,148.66 84.413,148.989 84.413,149.825C84.413,150.234 84.642,150.602 85.061,150.602C85.419,150.602 85.927,150.323 85.967,150.204C85.977,150.154 86.017,150.124 86.017,149.885L86.017,148.411Z" style="fill-rule:nonzero;stroke:none;"/>
    </g>
    <g transform="matrix(1,0,0,1,-31,-18)">
        <path d="M87.68,146.598L89.124,146.598L89.124,149.825C89.124,150.254 89.393,150.602 89.862,150.602C90.31,150.602 90.788,150.284 90.838,150.124C90.907,149.955 90.887,149.756 90.887,149.586L90.887,147.335C90.887,146.887 90.698,146.788 90.17,146.768L90.17,146.598L91.734,146.598L91.734,150.104C91.734,150.572 92.003,150.582 92.361,150.582L92.361,150.732C92.003,150.802 90.957,151.17 90.957,151.17C90.927,151.19 90.957,150.403 90.947,150.323C90.569,150.732 90.17,151.18 89.473,151.18C88.786,151.18 88.298,150.672 88.298,149.925L88.298,147.365C88.298,146.698 87.85,146.768 87.68,146.738L87.68,146.598Z" style="fill-rule:nonzero;stroke:none;"/>
    </g>
    <g transform="matrix(1,0,0,1,-31,-18)">
        <path d="M94.124,146.499L94.144,146.519L94.144,147.415L94.184,147.415C94.413,147.086 94.762,146.499 95.34,146.499C95.708,146.499 95.907,146.738 95.907,147.037C95.907,147.236 95.818,147.485 95.519,147.485C95.18,147.485 95.061,147.136 94.832,147.136C94.652,147.136 94.144,147.565 94.144,147.983L94.144,150.234C94.144,150.752 94.353,150.931 94.991,150.931L94.991,151.08L92.62,151.08L92.62,150.931C93.288,150.831 93.318,150.672 93.318,150.204L93.318,147.694C93.318,147.086 93.019,147.146 92.949,147.146C92.84,147.146 92.76,147.166 92.63,147.196L92.63,147.037C93.019,146.917 94.124,146.499 94.124,146.499Z" style="fill-rule:nonzero;stroke:none;"/>
    </g>
    <g transform="matrix(1,0,0,1,-31,-18)">
        <path d="M97.172,144.278C97.451,144.278 97.68,144.527 97.68,144.776C97.68,145.065 97.471,145.314 97.172,145.314C96.834,145.314 96.654,145.025 96.654,144.796C96.654,144.527 96.853,144.278 97.172,144.278ZM96.047,151.08L96.047,150.941C96.654,150.901 96.834,150.841 96.834,150.074L96.834,147.764C96.834,147.365 96.744,147.156 96.465,147.156C96.345,147.156 96.196,147.166 96.096,147.206L96.096,147.057C96.326,146.987 97.451,146.569 97.63,146.509L97.66,146.539L97.66,150.074C97.66,150.742 97.73,150.901 98.407,150.941L98.407,151.08L96.047,151.08Z" style="fill-rule:nonzero;stroke:none;"/>
    </g>
    <g transform="matrix(1,0,0,1,-31,-18)">
        <path d="M102.72,149.457L102.879,149.527C102.491,150.533 101.734,151.18 100.768,151.18C99.573,151.18 98.905,150.254 98.905,148.959C98.905,147.116 100.13,146.499 100.937,146.499C101.873,146.499 102.57,147.017 102.68,148.331L99.602,148.331C99.712,150.084 100.519,150.503 101.166,150.503C102.053,150.503 102.491,149.825 102.72,149.457ZM99.622,147.993L101.674,147.993C101.594,147.535 101.505,146.867 100.708,146.867C100.17,146.867 99.782,147.136 99.622,147.993Z" style="fill-rule:nonzero;stroke:none;"/>
    </g>
    <g transform="matrix(1,0,0,1,-31,-18)">
        <path d="M136.759,134.667L136.759,133.947M136.759,132.627L136.759,131.907M136.759,130.587L136.759,129.867M136.759,128.547L136.759,127.827M136.759,126.507L136.759,125.787M136.759,124.467L136.759,123.747M136.759,122.427L136.759,121.707M136.759,120.387L136.759,119.667M136.759,118.347L136.759,117.627M136.759,116.307L136.759,115.587M136.759,114.267L136.759,113.547M136.759,112.227L136.759,111.507M136.759,110.187L136.759,109.467M136.759,108.147L136.759,107.427M136.759,106.107L136.759,105.387M136.759,104.067L136.759,103.347M136.759,102.027L136.759,101.307M136.759,99.987L136.759,99.267M136.759,97.947L136.759,97.227M136.759,95.907L136.759,95.187M136.759,93.867L136.759,93.147M136.759,91.827L136.759,91.107M136.759,89.787L136.759,89.067M136.759,87.747L136.759,87.027M136.759,85.707L136.759,84.987M136.759,83.667L136.759,82.947M136.759,81.627L136.759,80.907M136.759,79.587L136.759,78.867M136.759,77.547L136.759,76.827M136.759,75.507L136.759,74.787M136.759,73.467L136.759,72.747M136.759,71.427L136.759,70.707M136.759,69.387L136.759,68.667M136.759,67.347L136.759,66.627M136.759,65.307L136.759,64.587M136.759,63.267L136.759,62.547M136.759,61.227L136.759,60.507M136.759,59.187L136.759,58.467M136.759,57.147L136.759,56.427M136.759,55.107L136.759,54.387M136.759,53.067L136.759,52.347M136.759,51.027L136.759,50.307M136.759,48.987L136.759,48.267M136.759,46.947L136.759,46.227M136.759,44.907L136.759,44.187M136.759,42.867L136.759,42.147M136.759,40.827L136.759,40.107M136.759,38.787L136.759,38.067M136.759,36.747L136.759,36.027M136.759,34.707L136.759,33.987M136.759,32.667L136.759,31.947M136.759,30.627L136.759,29.907M136.759,28.587L136.759,28" style="fill:none;stroke-width:0.38px;"/>
    </g>
    <g transform="matrix(1,0,0,1,-31,-18)">
        <path d="M136.759,161.334L136.759,134.667" style="fill:none;stroke-width:0.38px;"/>
    </g>
    <g transform="matrix(1,0,0,1,-31,-18)">
        <path d="M166.879,151.08L166.879,150.941C167.496,150.901 167.646,150.752 167.646,150.224L167.646,145.473C167.646,145.065 167.626,144.865 167.178,144.865C167.038,144.865 167.008,144.865 166.869,144.875L166.869,144.726C167.327,144.616 168.313,144.328 168.442,144.278L168.492,144.278L168.492,150.224C168.492,150.792 168.602,150.901 169.239,150.941L169.239,151.08L166.879,151.08Z" style="fill-rule:nonzero;stroke:none;"/>
    </g>
    <g transform="matrix(1,0,0,1,-31,-18)">
        <path d="M173.851,150.423L173.851,150.682C173.562,151.001 173.313,151.18 172.964,151.18C172.456,151.18 172.347,150.831 172.317,150.453C171.928,150.782 171.45,151.18 170.873,151.18C170.235,151.18 169.817,150.732 169.817,150.154C169.817,149.128 170.743,148.79 172.297,148.182L172.297,147.614C172.297,147.435 172.317,146.738 171.54,146.738C171.261,146.738 170.833,146.887 170.833,147.246C170.833,147.365 170.883,147.495 170.883,147.614C170.883,147.883 170.644,148.043 170.415,148.043C170.166,148.043 170.006,147.814 170.006,147.594C170.006,147.236 170.444,146.499 171.63,146.499C172.665,146.499 173.104,146.987 173.104,147.943L173.104,150.055C173.104,150.353 173.104,150.622 173.403,150.622C173.652,150.622 173.851,150.423 173.851,150.423ZM172.297,148.411C171.63,148.66 170.693,148.989 170.693,149.825C170.693,150.234 170.922,150.602 171.341,150.602C171.699,150.602 172.207,150.323 172.247,150.204C172.257,150.154 172.297,150.124 172.297,149.885L172.297,148.411Z" style="fill-rule:nonzero;stroke:none;"/>
    </g>
    <g transform="matrix(1,0,0,1,-31,-18)">
        <path d="M174.657,150.254L174.657,147.744C174.657,147.067 174.488,147.086 174.289,147.086C174.199,147.086 174.11,147.086 174.03,147.116L174.03,146.947C174.289,146.867 174.787,146.738 175.404,146.499L175.474,146.519L175.474,147.316C175.932,146.887 176.301,146.499 176.918,146.499C177.536,146.499 178.094,146.917 178.094,147.993L178.094,150.284C178.094,150.732 178.273,150.901 178.701,150.931L178.701,151.08L176.63,151.08L176.63,150.931C177.038,150.921 177.247,150.732 177.247,150.084L177.247,147.993C177.247,147.316 176.988,147.047 176.51,147.047C176.102,147.047 175.783,147.365 175.504,147.614L175.504,150.423C175.504,150.831 175.773,150.901 176.161,150.931L176.161,151.08L174.06,151.08L174.06,150.931C174.359,150.901 174.657,150.901 174.657,150.254Z" style="fill-rule:nonzero;stroke:none;"/>
    </g>
    <g transform="matrix(1,0,0,1,-31,-18)">
        <path d="M180.325,145.314C180.325,145.314 180.375,145.333 180.375,145.363L180.375,146.608L181.38,146.608L181.38,146.927L180.375,146.927L180.375,149.905C180.375,150.244 180.464,150.672 180.892,150.672C181.151,150.672 181.341,150.503 181.48,150.323L181.629,150.423C181.41,150.821 180.962,151.18 180.464,151.18C179.727,151.18 179.558,150.602 179.558,149.905L179.558,146.927L179.01,146.927C179.01,146.907 178.99,146.897 178.98,146.847C179.06,146.628 179.359,146.778 180.325,145.314Z" style="fill-rule:nonzero;stroke:none;"/>
    </g>
    <g transform="matrix(1,0,0,1,-31,-18)">
        <path d="M186.022,150.423L186.022,150.682C185.733,151.001 185.484,151.18 185.135,151.18C184.627,151.18 184.518,150.831 184.488,150.453C184.1,150.782 183.621,151.18 183.044,151.18C182.406,151.18 181.988,150.732 181.988,150.154C181.988,149.128 182.914,148.79 184.468,148.182L184.468,147.614C184.468,147.435 184.488,146.738 183.711,146.738C183.432,146.738 183.004,146.887 183.004,147.246C183.004,147.365 183.054,147.495 183.054,147.614C183.054,147.883 182.815,148.043 182.586,148.043C182.337,148.043 182.177,147.814 182.177,147.594C182.177,147.236 182.616,146.499 183.801,146.499C184.837,146.499 185.275,146.987 185.275,147.943L185.275,150.055C185.275,150.353 185.275,150.622 185.574,150.622C185.823,150.622 186.022,150.423 186.022,150.423ZM184.468,148.411C183.801,148.66 182.865,148.989 182.865,149.825C182.865,150.234 183.094,150.602 183.512,150.602C183.87,150.602 184.378,150.323 184.418,150.204C184.428,150.154 184.468,150.124 184.468,149.885L184.468,148.411Z" style="fill-rule:nonzero;stroke:none;"/>
    </g>
    <g transform="matrix(1,0,0,1,-31,-18)">
        <path d="M187.596,146.499L187.615,146.519L187.615,147.415L187.655,147.415C187.884,147.086 188.233,146.499 188.811,146.499C189.179,146.499 189.378,146.738 189.378,147.037C189.378,147.236 189.289,147.485 188.99,147.485C188.651,147.485 188.532,147.136 188.303,147.136C188.123,147.136 187.615,147.565 187.615,147.983L187.615,150.234C187.615,150.752 187.825,150.931 188.462,150.931L188.462,151.08L186.092,151.08L186.092,150.931C186.759,150.831 186.789,150.672 186.789,150.204L186.789,147.694C186.789,147.086 186.49,147.146 186.42,147.146C186.311,147.146 186.231,147.166 186.102,147.196L186.102,147.037C186.49,146.917 187.596,146.499 187.596,146.499Z" style="fill-rule:nonzero;stroke:none;"/>
    </g>
    <g transform="matrix(1,0,0,1,-31,-18)">
        <path d="M219.534,134.667L219.534,133.947M219.534,132.627L219.534,131.907M219.534,130.587L219.534,129.867M219.534,128.547L219.534,127.827M219.534,126.507L219.534,125.787M219.534,124.467L219.534,123.747M219.534,122.427L219.534,121.707M219.534,120.387L219.534,119.667M219.534,118.347L219.534,117.627M219.534,116.307L219.534,115.587M219.534,114.267L219.534,113.547M219.534,112.227L219.534,111.507M219.534,110.187L219.534,109.467M219.534,108.147L219.534,107.427M219.534,106.107L219.534,105.387M219.534,104.067L219.534,103.347M219.534,102.027L219.534,101.307M219.534,99.987L219.534,99.267M219.534,97.947L219.534,97.227M219.534,95.907L219.534,95.187M219.534,93.867L219.534,93.147M219.534,91.827L219.534,91.107M219.534,89.787L219.534,89.067M219.534,87.747L219.534,87.027M219.534,85.707L219.534,84.987M219.534,83.667L219.534,82.947M219.534,81.627L219.534,80.907M219.534,79.587L219.534,78.867M219.534,77.547L219.534,76.827M219.534,75.507L219.534,74.787M219.534,73.467L219.534,72.747M219.534,71.427L219.534,70.707M219.534,69.387L219.534,68.667M219.534,67.347L219.534,66.627M219.534,65.307L219.534,64.587M219.534,63.267L219.534,62.547M219.534,61.227L219.534,60.507M219.534,59.187L219.534,58.467M219.534,57.147L219.534,56.427M219.534,55.107L219.534,54.387M219.534,53.067L219.534,52.347M219.534,51.027L219.534,50.307M219.534,48.987L219.534,48.267M219.534,46.947L219.534,46.227M219.534,44.907L219.534,44.187M219.534,42.867L219.534,42.147M219.534,40.827L219.534,40.107M219.534,38.787L219.534,38.067M219.534,36.747L219.534,36.027M219.534,34.707L219.534,33.987M219.534,32.667L219.534,31.947M219.534,30.627L219.534,29.907M219.534,28.587L219.534,28" style="fill:none;stroke-width:0.38px;"/>
    </g>
    <g transform="matrix(1,0,0,1,-31,-18)">
        <path d="M219.534,161.334L219.534,134.667" style="fill:none;stroke-width:0.38px;"/>
    </g>
    <g transform="matrix(1,0,0,1,-31,-18)">
        <path d="M244.039,151.08L244.039,150.941C244.656,150.901 244.806,150.752 244.806,150.224L244.806,145.473C244.806,145.065 244.786,144.865 244.338,144.865C244.198,144.865 244.168,144.865 244.029,144.875L244.029,144.726C244.487,144.616 245.473,144.328 245.602,144.278L245.652,144.278L245.652,150.224C245.652,150.792 245.762,150.901 246.399,150.941L246.399,151.08L244.039,151.08Z" style="fill-rule:nonzero;stroke:none;"/>
    </g>
    <g transform="matrix(1,0,0,1,-31,-18)">
        <path d="M251.011,150.423L251.011,150.682C250.722,151.001 250.473,151.18 250.124,151.18C249.616,151.18 249.507,150.831 249.477,150.453C249.088,150.782 248.61,151.18 248.033,151.18C247.395,151.18 246.977,150.732 246.977,150.154C246.977,149.128 247.903,148.79 249.457,148.182L249.457,147.614C249.457,147.435 249.477,146.738 248.7,146.738C248.421,146.738 247.993,146.887 247.993,147.246C247.993,147.365 248.043,147.495 248.043,147.614C248.043,147.883 247.804,148.043 247.575,148.043C247.326,148.043 247.166,147.814 247.166,147.594C247.166,147.236 247.604,146.499 248.79,146.499C249.825,146.499 250.264,146.987 250.264,147.943L250.264,150.055C250.264,150.353 250.264,150.622 250.563,150.622C250.812,150.622 251.011,150.423 251.011,150.423ZM249.457,148.411C248.79,148.66 247.853,148.989 247.853,149.825C247.853,150.234 248.082,150.602 248.501,150.602C248.859,150.602 249.367,150.323 249.407,150.204C249.417,150.154 249.457,150.124 249.457,149.885L249.457,148.411Z" style="fill-rule:nonzero;stroke:none;"/>
    </g>
    <g transform="matrix(1,0,0,1,-31,-18)">
        <path d="M254.158,147.943L254.019,147.943C253.79,146.937 253.351,146.738 252.903,146.738C252.365,146.738 252.146,147.116 252.146,147.385C252.146,147.584 252.206,147.863 252.594,148.082L253.65,148.73C254.138,149.029 254.497,149.288 254.497,149.905C254.497,150.772 253.68,151.18 253.053,151.18C252.594,151.18 252.166,151.001 251.887,151.001C251.758,151.001 251.748,151.031 251.658,151.12L251.549,151.12L251.549,149.576L251.708,149.576C251.847,150.274 252.116,150.971 252.973,150.971C253.451,150.971 253.79,150.702 253.79,150.254C253.79,149.905 253.59,149.676 253.282,149.507L252.694,149.178C252.076,148.829 251.539,148.461 251.539,147.734C251.539,146.987 252.146,146.499 252.903,146.499C253.311,146.499 253.73,146.698 253.839,146.698C253.889,146.698 253.959,146.648 254.019,146.598L254.118,146.598L254.158,147.943Z" style="fill-rule:nonzero;stroke:none;"/>
    </g>
    <g transform="matrix(1,0,0,1,-31,-18)">
        <path d="M258.033,147.943L257.893,147.943C257.664,146.937 257.226,146.738 256.778,146.738C256.24,146.738 256.021,147.116 256.021,147.385C256.021,147.584 256.08,147.863 256.469,148.082L257.525,148.73C258.013,149.029 258.371,149.288 258.371,149.905C258.371,150.772 257.554,151.18 256.927,151.18C256.469,151.18 256.041,151.001 255.762,151.001C255.632,151.001 255.622,151.031 255.533,151.12L255.423,151.12L255.423,149.576L255.582,149.576C255.722,150.274 255.991,150.971 256.847,150.971C257.325,150.971 257.664,150.702 257.664,150.254C257.664,149.905 257.465,149.676 257.156,149.507L256.568,149.178C255.951,148.829 255.413,148.461 255.413,147.734C255.413,146.987 256.021,146.499 256.778,146.499C257.186,146.499 257.604,146.698 257.714,146.698C257.764,146.698 257.833,146.648 257.893,146.598L257.993,146.598L258.033,147.943Z" style="fill-rule:nonzero;stroke:none;"/>
    </g>
    <g transform="matrix(1,0,0,1,-31,-18)">
        <path d="M260.064,144.278C260.343,144.278 260.572,144.527 260.572,144.776C260.572,145.065 260.363,145.314 260.064,145.314C259.726,145.314 259.546,145.025 259.546,144.796C259.546,144.527 259.746,144.278 260.064,144.278ZM258.939,151.08L258.939,150.941C259.546,150.901 259.726,150.841 259.726,150.074L259.726,147.764C259.726,147.365 259.636,147.156 259.357,147.156C259.238,147.156 259.088,147.166 258.989,147.206L258.989,147.057C259.218,146.987 260.343,146.569 260.523,146.509L260.552,146.539L260.552,150.074C260.552,150.742 260.622,150.901 261.299,150.941L261.299,151.08L258.939,151.08Z" style="fill-rule:nonzero;stroke:none;"/>
    </g>
    <g transform="matrix(1,0,0,1,-31,-18)">
        <path d="M286.078,134.667L286.078,133.947M286.078,132.627L286.078,131.907M286.078,130.587L286.078,129.867M286.078,128.547L286.078,127.827M286.078,126.507L286.078,125.787M286.078,124.467L286.078,123.747M286.078,122.427L286.078,121.707M286.078,120.387L286.078,119.667M286.078,118.347L286.078,117.627M286.078,116.307L286.078,115.587M286.078,114.267L286.078,113.547M286.078,112.227L286.078,111.507M286.078,110.187L286.078,109.467M286.078,108.147L286.078,107.427M286.078,106.107L286.078,105.387M286.078,104.067L286.078,103.347M286.078,102.027L286.078,101.307M286.078,99.987L286.078,99.267M286.078,97.947L286.078,97.227M286.078,95.907L286.078,95.187M286.078,93.867L286.078,93.147M286.078,91.827L286.078,91.107M286.078,89.787L286.078,89.067M286.078,87.747L286.078,87.027M286.078,85.707L286.078,84.987M286.078,83.667L286.078,82.947M286.078,81.627L286.078,80.907M286.078,79.587L286.078,78.867M286.078,77.547L286.078,76.827M286.078,75.507L286.078,74.787M286.078,73.467L286.078,72.747M286.078,71.427L286.078,70.707M286.078,69.387L286.078,68.667M286.078,67.347L286.078,66.627M286.078,65.307L286.078,64.587M286.078,63.267L286.078,62.547M286.078,61.227L286.078,60.507M286.078,59.187L286.078,58.467M286.078,57.147L286.078,56.427M286.078,55.107L286.078,54.387M286.078,53.067L286.078,52.347M286.078,51.027L286.078,50.307M286.078,48.987L286.078,48.267M286.078,46.947L286.078,46.227M286.078,44.907L286.078,44.187M286.078,42.867L286.078,42.147M286.078,40.827L286.078,40.107M286.078,38.787L286.078,38.067M286.078,36.747L286.078,36.027M286.078,34.707L286.078,33.987M286.078,32.667L286.078,31.947M286.078,30.627L286.078,29.907M286.078,28.587L286.078,28" style="fill:none;stroke-width:0.38px;"/>
    </g>
    <g transform="matrix(1,0,0,1,-31,-18)">
        <path d="M286.078,161.334L286.078,134.667" style="fill:none;stroke-width:0.38px;"/>
    </g>
    <g transform="matrix(1,0,0,1,-31,-18)">
        <path d="M321.127,147.943L320.988,147.943C320.758,146.937 320.32,146.738 319.872,146.738C319.334,146.738 319.115,147.116 319.115,147.385C319.115,147.584 319.175,147.863 319.563,148.082L320.619,148.73C321.107,149.029 321.466,149.288 321.466,149.905C321.466,150.772 320.649,151.18 320.021,151.18C319.563,151.18 319.135,151.001 318.856,151.001C318.727,151.001 318.717,151.031 318.627,151.12L318.517,151.12L318.517,149.576L318.677,149.576C318.816,150.274 319.085,150.971 319.942,150.971C320.42,150.971 320.758,150.702 320.758,150.254C320.758,149.905 320.559,149.676 320.251,149.507L319.663,149.178C319.045,148.829 318.508,148.461 318.508,147.734C318.508,146.987 319.115,146.499 319.872,146.499C320.28,146.499 320.699,146.698 320.808,146.698C320.858,146.698 320.928,146.648 320.988,146.598L321.087,146.598L321.127,147.943Z" style="fill-rule:nonzero;stroke:none;"/>
    </g>
    <g transform="matrix(1,0,0,1,-31,-18)">
        <path d="M325.509,144.328C325.738,144.328 325.848,144.467 325.848,144.666C325.848,144.816 325.738,144.965 325.619,145.045L324.025,146.041L323.617,146.041L325.161,144.497C325.28,144.377 325.37,144.328 325.509,144.328ZM321.964,146.618L323.408,146.618L323.408,149.825C323.408,150.254 323.677,150.602 324.145,150.602C324.593,150.602 325.071,150.294 325.121,150.124C325.191,149.965 325.171,149.766 325.171,149.596L325.171,147.345C325.171,146.897 324.982,146.798 324.454,146.778L324.454,146.618L326.017,146.618L326.017,150.104C326.017,150.572 326.286,150.592 326.645,150.592L326.645,150.742C326.286,150.802 325.24,151.17 325.24,151.17C325.211,151.19 325.24,150.403 325.231,150.323C324.852,150.742 324.454,151.18 323.756,151.18C323.069,151.18 322.581,150.672 322.581,149.925L322.581,147.375C322.581,146.718 322.133,146.778 321.964,146.748L321.964,146.618Z" style="fill-rule:nonzero;stroke:none;"/>
    </g>
    <g transform="matrix(1,0,0,1,-31,-18)">
        <path d="M328.408,146.499L328.428,146.519L328.428,147.415L328.468,147.415C328.697,147.086 329.045,146.499 329.623,146.499C329.991,146.499 330.191,146.738 330.191,147.037C330.191,147.236 330.101,147.485 329.802,147.485C329.464,147.485 329.344,147.136 329.115,147.136C328.936,147.136 328.428,147.565 328.428,147.983L328.428,150.234C328.428,150.752 328.637,150.931 329.274,150.931L329.274,151.08L326.904,151.08L326.904,150.931C327.571,150.831 327.601,150.672 327.601,150.204L327.601,147.694C327.601,147.086 327.302,147.146 327.232,147.146C327.123,147.146 327.043,147.166 326.914,147.196L326.914,147.037C327.302,146.917 328.408,146.499 328.408,146.499Z" style="fill-rule:nonzero;stroke:none;"/>
    </g>
    <g transform="matrix(1,0,0,1,-31,-18)">
        <path d="M331.456,144.278C331.734,144.278 331.963,144.527 331.963,144.776C331.963,145.065 331.754,145.314 331.456,145.314C331.117,145.314 330.938,145.025 330.938,144.796C330.938,144.527 331.137,144.278 331.456,144.278ZM330.33,151.08L330.33,150.941C330.938,150.901 331.117,150.841 331.117,150.074L331.117,147.764C331.117,147.365 331.027,147.156 330.748,147.156C330.629,147.156 330.479,147.166 330.38,147.206L330.38,147.057C330.609,146.987 331.734,146.569 331.914,146.509L331.944,146.539L331.944,150.074C331.944,150.742 332.013,150.901 332.691,150.941L332.691,151.08L330.33,151.08Z" style="fill-rule:nonzero;stroke:none;"/>
    </g>
    <g transform="matrix(1,0,0,1,-31,-18)">
        <path d="M333.726,150.254L333.726,147.744C333.726,147.067 333.557,147.086 333.358,147.086C333.268,147.086 333.179,147.086 333.099,147.116L333.099,146.947C333.358,146.867 333.856,146.738 334.473,146.499L334.543,146.519L334.543,147.316C335.001,146.887 335.37,146.499 335.987,146.499C336.605,146.499 337.163,146.917 337.163,147.993L337.163,150.284C337.163,150.732 337.342,150.901 337.77,150.931L337.77,151.08L335.698,151.08L335.698,150.931C336.107,150.921 336.316,150.732 336.316,150.084L336.316,147.993C336.316,147.316 336.057,147.047 335.579,147.047C335.171,147.047 334.852,147.365 334.573,147.614L334.573,150.423C334.573,150.831 334.842,150.901 335.23,150.931L335.23,151.08L333.129,151.08L333.129,150.931C333.428,150.901 333.726,150.901 333.726,150.254Z" style="fill-rule:nonzero;stroke:none;"/>
    </g>
    <g transform="matrix(1,0,0,1,-31,-18)">
        <path d="M341.983,149.457L342.143,149.527C341.754,150.533 340.997,151.18 340.031,151.18C338.836,151.18 338.169,150.254 338.169,148.959C338.169,147.116 339.394,146.499 340.2,146.499C341.137,146.499 341.834,147.017 341.943,148.331L338.866,148.331C338.975,150.084 339.782,150.503 340.429,150.503C341.316,150.503 341.754,149.825 341.983,149.457ZM338.886,147.993L340.937,147.993C340.858,147.535 340.768,146.867 339.971,146.867C339.433,146.867 339.045,147.136 338.886,147.993Z" style="fill-rule:nonzero;stroke:none;"/>
    </g>
    <g transform="matrix(1,0,0,1,-31,-18)">
        <path d="M345.28,144.347C345.29,144.397 345.37,144.517 345.37,144.517C344.095,145.463 343.676,146.578 343.676,148.501C343.676,150.074 343.906,151.738 345.37,152.684L345.24,152.843C344.852,152.664 344.045,151.967 343.487,151.07C343.009,150.294 342.82,149.576 342.82,148.521C342.82,146.887 343.587,145.383 345.28,144.347Z" style="fill-rule:nonzero;stroke:none;"/>
    </g>
    <g transform="matrix(1,0,0,1,-31,-18)">
        <path d="M346.445,150.254L346.445,147.744C346.445,147.067 346.276,147.086 346.077,147.086C345.987,147.086 345.898,147.086 345.818,147.116L345.818,146.947C346.077,146.867 346.575,146.738 347.192,146.499L347.262,146.519L347.262,147.316C347.72,146.887 348.089,146.499 348.706,146.499C349.324,146.499 349.882,146.917 349.882,147.993L349.882,150.284C349.882,150.732 350.061,150.901 350.489,150.931L350.489,151.08L348.417,151.08L348.417,150.931C348.826,150.921 349.035,150.732 349.035,150.084L349.035,147.993C349.035,147.316 348.776,147.047 348.298,147.047C347.89,147.047 347.571,147.365 347.292,147.614L347.292,150.423C347.292,150.831 347.561,150.901 347.949,150.931L347.949,151.08L345.848,151.08L345.848,150.931C346.147,150.901 346.445,150.901 346.445,150.254Z" style="fill-rule:nonzero;stroke:none;"/>
    </g>
    <g transform="matrix(1,0,0,1,-31,-18)">
        <path d="M351.007,152.843C350.977,152.803 350.927,152.684 350.927,152.684C352.192,151.758 352.611,150.622 352.611,148.7C352.611,147.136 352.381,145.463 350.927,144.517L351.047,144.347C351.435,144.547 352.222,145.244 352.79,146.13C353.278,146.927 353.477,147.634 353.477,148.7C353.477,150.323 352.7,151.837 351.007,152.843Z" style="fill-rule:nonzero;stroke:none;"/>
    </g>
    <g transform="matrix(1,0,0,1,-31,-18)">
        <path d="M386.084,134.667L386.084,133.947M386.084,132.627L386.084,131.907M386.084,130.587L386.084,129.867M386.084,128.547L386.084,127.827M386.084,126.507L386.084,125.787M386.084,124.467L386.084,123.747M386.084,122.427L386.084,121.707M386.084,120.387L386.084,119.667M386.084,118.347L386.084,117.627M386.084,116.307L386.084,115.587M386.084,114.267L386.084,113.547M386.084,112.227L386.084,111.507M386.084,110.187L386.084,109.467M386.084,108.147L386.084,107.427M386.084,106.107L386.084,105.387M386.084,104.067L386.084,103.347M386.084,102.027L386.084,101.307M386.084,99.987L386.084,99.267M386.084,97.947L386.084,97.227M386.084,95.907L386.084,95.187M386.084,93.867L386.084,93.147M386.084,91.827L386.084,91.107M386.084,89.787L386.084,89.067M386.084,87.747L386.084,87.027M386.084,85.707L386.084,84.987M386.084,83.667L386.084,82.947M386.084,81.627L386.084,80.907M386.084,79.587L386.084,78.867M386.084,77.547L386.084,76.827M386.084,75.507L386.084,74.787M386.084,73.467L386.084,72.747M386.084,71.427L386.084,70.707M386.084,69.387L386.084,68.667M386.084,67.347L386.084,66.627M386.084,65.307L386.084,64.587M386.084,63.267L386.084,62.547M386.084,61.227L386.084,60.507M386.084,59.187L386.084,58.467M386.084,57.147L386.084,56.427M386.084,55.107L386.084,54.387M386.084,53.067L386.084,52.347M386.084,51.027L386.084,50.307M386.084,48.987L386.084,48.267M386.084,46.947L386.084,46.227M386.084,44.907L386.084,44.187M386.084,42.867L386.084,42.147M386.084,40.827L386.084,40.107M386.084,38.787L386.084,38.067M386.084,36.747L386.084,36.027M386.084,34.707L386.084,33.987M386.084,32.667L386.084,31.947M386.084,30.627L386.084,29.907M386.084,28.587L386.084,28" style="fill:none;stroke-width:0.38px;"/>
    </g>
    <g transform="matrix(1,0,0,1,-31,-18)">
        <path d="M386.084,161.334L386.084,134.667" style="fill:none;stroke-width:0.38px;"/>
    </g>
    <g transform="matrix(1,0,0,1,-31,-18)">
        <rect x="42" y="161.334" width="348" height="26.666" style="fill:none;stroke-width:0.38px;"/>
    </g>
    <g transform="matrix(1,0,0,1,-31,-18)">
        <path d="M80.453,134.667L80.453,133.947M80.453,132.627L80.453,131.907M80.453,130.587L80.453,129.867M80.453,128.547L80.453,127.827M80.453,126.507L80.453,125.787M80.453,124.467L80.453,123.747M80.453,122.427L80.453,121.707M80.453,120.387L80.453,119.667M80.453,118.347L80.453,117.627M80.453,116.307L80.453,115.587M80.453,114.267L80.453,113.547M80.453,112.227L80.453,111.507M80.453,110.187L80.453,109.467M80.453,108.147L80.453,107.427M80.453,106.107L80.453,105.387M80.453,104.067L80.453,103.347M80.453,102.027L80.453,101.307M80.453,99.987L80.453,99.267M80.453,97.947L80.453,97.227M80.453,95.907L80.453,95.187M80.453,93.867L80.453,93.147M80.453,91.827L80.453,91.107M80.453,89.787L80.453,89.067M80.453,87.747L80.453,87.027M80.453,85.707L80.453,84.987M80.453,83.667L80.453,82.947M80.453,81.627L80.453,80.907M80.453,79.587L80.453,78.867M80.453,77.547L80.453,76.827M80.453,75.507L80.453,74.787M80.453,73.467L80.453,72.747M80.453,71.427L80.453,70.707M80.453,69.387L80.453,68.667M80.453,67.347L80.453,66.627M80.453,65.307L80.453,64.587M80.453,63.267L80.453,62.547M80.453,61.227L80.453,60.507M80.453,59.187L80.453,58.467M80.453,57.147L80.453,56.427M80.453,55.107L80.453,54.387M80.453,53.067L80.453,52.347M80.453,51.027L80.453,50.307M80.453,48.987L80.453,48.267M80.453,46.947L80.453,46.227M80.453,44.907L80.453,44.187M80.453,42.867L80.453,42.147M80.453,40.827L80.453,40.107M80.453,38.787L80.453,38.067M80.453,36.747L80.453,36.027M80.453,34.707L80.453,33.987M80.453,32.667L80.453,31.947M80.453,30.627L80.453,29.907M80.453,28.587L80.453,28" style="fill:none;stroke-width:0.38px;"/>
    </g>
    <g transform="matrix(1,0,0,1,-31,-18)">
        <path d="M80.453,188L80.453,182.667" style="fill:none;stroke-width:0.38px;"/>
    </g>
    <g transform="matrix(1,0,0,1,-31,-18)">
        <path d="M80.453,166.667L80.453,161.334" style="fill:none;stroke-width:0.38px;"/>
    </g>
    <g transform="matrix(1,0,0,1,-31,-18)">
        <path d="M74.469,171.127L77.228,171.127L77.228,171.316C76.63,171.366 76.371,171.436 76.371,172.083L76.371,174.135L79.379,174.135L79.379,172.093C79.379,171.436 79.12,171.366 78.503,171.316L78.503,171.127L81.271,171.127L81.271,171.316C80.724,171.366 80.385,171.386 80.385,172.083L80.385,176.764C80.385,177.461 80.724,177.471 81.271,177.541L81.271,177.72L78.503,177.72L78.503,177.541C79.17,177.511 79.379,177.372 79.379,176.724L79.379,174.583L76.371,174.583L76.371,176.774C76.371,177.342 76.58,177.491 77.228,177.541L77.228,177.72L74.469,177.72L74.469,177.541C75.116,177.511 75.325,177.392 75.325,176.724L75.325,172.093C75.325,171.615 75.256,171.346 74.469,171.316L74.469,171.127Z" style="fill-rule:nonzero;stroke:none;"/>
    </g>
    <g transform="matrix(1,0,0,1,-31,-18)">
        <path d="M83.971,170.987C84.2,170.987 84.319,171.177 84.319,171.386C84.319,171.734 84.04,171.983 84.06,172.92C84.728,172.581 85.026,171.824 85.395,171.824C85.644,171.824 85.773,172.003 85.773,172.183C85.773,172.581 85.504,172.571 85.046,172.671C84.728,172.75 84.429,172.87 84.15,173.049C84.977,173.607 85.773,173.298 85.773,173.876C85.773,174.055 85.664,174.244 85.435,174.244C84.957,174.244 84.767,173.448 84.06,173.179C84.06,174.274 84.339,174.374 84.339,174.653C84.339,174.922 84.15,175.081 83.951,175.081C83.761,175.081 83.602,174.922 83.602,174.703C83.602,174.374 83.881,174.045 83.881,173.458C83.881,173.358 83.881,173.258 83.861,173.179C83.612,173.328 83.313,173.557 83.283,173.597C82.965,173.926 82.825,174.224 82.526,174.224C82.257,174.224 82.158,174.055 82.158,173.896C82.158,173.298 82.995,173.597 83.791,173.029C83.532,172.87 83.403,172.8 82.925,172.681C82.616,172.621 82.158,172.551 82.158,172.203C82.158,171.983 82.297,171.834 82.487,171.834C82.945,171.834 82.945,172.382 83.881,172.88C83.881,171.874 83.612,171.834 83.612,171.386C83.612,171.207 83.702,170.987 83.971,170.987Z" style="fill-rule:nonzero;stroke:none;"/>
    </g>
    <g transform="matrix(1,0,0,1,-31,-18)">
        <path d="M156.515,134.667L156.515,133.947M156.515,132.627L156.515,131.907M156.515,130.587L156.515,129.867M156.515,128.547L156.515,127.827M156.515,126.507L156.515,125.787M156.515,124.467L156.515,123.747M156.515,122.427L156.515,121.707M156.515,120.387L156.515,119.667M156.515,118.347L156.515,117.627M156.515,116.307L156.515,115.587M156.515,114.267L156.515,113.547M156.515,112.227L156.515,111.507M156.515,110.187L156.515,109.467M156.515,108.147L156.515,107.427M156.515,106.107L156.515,105.387M156.515,104.067L156.515,103.347M156.515,102.027L156.515,101.307M156.515,99.987L156.515,99.267M156.515,97.947L156.515,97.227M156.515,95.907L156.515,95.187M156.515,93.867L156.515,93.147M156.515,91.827L156.515,91.107M156.515,89.787L156.515,89.067M156.515,87.747L156.515,87.027M156.515,85.707L156.515,84.987M156.515,83.667L156.515,82.947M156.515,81.627L156.515,80.907M156.515,79.587L156.515,78.867M156.515,77.547L156.515,76.827M156.515,75.507L156.515,74.787M156.515,73.467L156.515,72.747M156.515,71.427L156.515,70.707M156.515,69.387L156.515,68.667M156.515,67.347L156.515,66.627M156.515,65.307L156.515,64.587M156.515,63.267L156.515,62.547M156.515,61.227L156.515,60.507M156.515,59.187L156.515,58.467M156.515,57.147L156.515,56.427M156.515,55.107L156.515,54.387M156.515,53.067L156.515,52.347M156.515,51.027L156.515,50.307M156.515,48.987L156.515,48.267M156.515,46.947L156.515,46.227M156.515,44.907L156.515,44.187M156.515,42.867L156.515,42.147M156.515,40.827L156.515,40.107M156.515,38.787L156.515,38.067M156.515,36.747L156.515,36.027M156.515,34.707L156.515,33.987M156.515,32.667L156.515,31.947M156.515,30.627L156.515,29.907M156.515,28.587L156.515,28" style="fill:none;stroke-width:0.38px;"/>
    </g>
    <g transform="matrix(1,0,0,1,-31,-18)">
        <path d="M156.515,188L156.515,182.667" style="fill:none;stroke-width:0.38px;"/>
    </g>
    <g transform="matrix(1,0,0,1,-31,-18)">
        <path d="M156.515,166.667L156.515,161.334" style="fill:none;stroke-width:0.38px;"/>
    </g>
    <g transform="matrix(1,0,0,1,-31,-18)">
        <path d="M150.549,171.127L153.308,171.127L153.308,171.316C152.71,171.366 152.451,171.436 152.451,172.083L152.451,174.135L155.459,174.135L155.459,172.093C155.459,171.436 155.2,171.366 154.583,171.316L154.583,171.127L157.351,171.127L157.351,171.316C156.804,171.366 156.465,171.386 156.465,172.083L156.465,176.764C156.465,177.461 156.804,177.471 157.351,177.541L157.351,177.72L154.583,177.72L154.583,177.541C155.25,177.511 155.459,177.372 155.459,176.724L155.459,174.583L152.451,174.583L152.451,176.774C152.451,177.342 152.66,177.491 153.308,177.541L153.308,177.72L150.549,177.72L150.549,177.541C151.196,177.511 151.405,177.392 151.405,176.724L151.405,172.093C151.405,171.615 151.336,171.346 150.549,171.316L150.549,171.127Z" style="fill-rule:nonzero;stroke:none;"/>
    </g>
    <g transform="matrix(1,0,0,1,-31,-18)">
        <path d="M160.051,170.987C160.28,170.987 160.399,171.177 160.399,171.386C160.399,171.734 160.12,171.983 160.14,172.92C160.808,172.581 161.106,171.824 161.475,171.824C161.724,171.824 161.853,172.003 161.853,172.183C161.853,172.581 161.584,172.571 161.126,172.671C160.808,172.75 160.509,172.87 160.23,173.049C161.057,173.607 161.853,173.298 161.853,173.876C161.853,174.055 161.744,174.244 161.515,174.244C161.037,174.244 160.847,173.448 160.14,173.179C160.14,174.274 160.419,174.374 160.419,174.653C160.419,174.922 160.23,175.081 160.031,175.081C159.841,175.081 159.682,174.922 159.682,174.703C159.682,174.374 159.961,174.045 159.961,173.458C159.961,173.358 159.961,173.258 159.941,173.179C159.692,173.328 159.393,173.557 159.363,173.597C159.045,173.926 158.905,174.224 158.606,174.224C158.337,174.224 158.238,174.055 158.238,173.896C158.238,173.298 159.075,173.597 159.871,173.029C159.612,172.87 159.483,172.8 159.005,172.681C158.696,172.621 158.238,172.551 158.238,172.203C158.238,171.983 158.377,171.834 158.567,171.834C159.025,171.834 159.025,172.382 159.961,172.88C159.961,171.874 159.692,171.834 159.692,171.386C159.692,171.207 159.782,170.987 160.051,170.987Z" style="fill-rule:nonzero;stroke:none;"/>
    </g>
    <g transform="matrix(1,0,0,1,-31,-18)">
        <path d="M235.381,134.667L235.381,133.947M235.381,132.627L235.381,131.907M235.381,130.587L235.381,129.867M235.381,128.547L235.381,127.827M235.381,126.507L235.381,125.787M235.381,124.467L235.381,123.747M235.381,122.427L235.381,121.707M235.381,120.387L235.381,119.667M235.381,118.347L235.381,117.627M235.381,116.307L235.381,115.587M235.381,114.267L235.381,113.547M235.381,112.227L235.381,111.507M235.381,110.187L235.381,109.467M235.381,108.147L235.381,107.427M235.381,106.107L235.381,105.387M235.381,104.067L235.381,103.347M235.381,102.027L235.381,101.307M235.381,99.987L235.381,99.267M235.381,97.947L235.381,97.227M235.381,95.907L235.381,95.187M235.381,93.867L235.381,93.147M235.381,91.827L235.381,91.107M235.381,89.787L235.381,89.067M235.381,87.747L235.381,87.027M235.381,85.707L235.381,84.987M235.381,83.667L235.381,82.947M235.381,81.627L235.381,80.907M235.381,79.587L235.381,78.867M235.381,77.547L235.381,76.827M235.381,75.507L235.381,74.787M235.381,73.467L235.381,72.747M235.381,71.427L235.381,70.707M235.381,69.387L235.381,68.667M235.381,67.347L235.381,66.627M235.381,65.307L235.381,64.587M235.381,63.267L235.381,62.547M235.381,61.227L235.381,60.507M235.381,59.187L235.381,58.467M235.381,57.147L235.381,56.427M235.381,55.107L235.381,54.387M235.381,53.067L235.381,52.347M235.381,51.027L235.381,50.307M235.381,48.987L235.381,48.267M235.381,46.947L235.381,46.227M235.381,44.907L235.381,44.187M235.381,42.867L235.381,42.147M235.381,40.827L235.381,40.107M235.381,38.787L235.381,38.067M235.381,36.747L235.381,36.027M235.381,34.707L235.381,33.987M235.381,32.667L235.381,31.947M235.381,30.627L235.381,29.907M235.381,28.587L235.381,28" style="fill:none;stroke-width:0.38px;"/>
    </g>
    <g transform="matrix(1,0,0,1,-31,-18)">
        <path d="M235.381,188L235.381,182.667" style="fill:none;stroke-width:0.38px;"/>
    </g>
    <g transform="matrix(1,0,0,1,-31,-18)">
        <path d="M235.381,166.667L235.381,161.334" style="fill:none;stroke-width:0.38px;"/>
    </g>
    <g transform="matrix(1,0,0,1,-31,-18)">
        <path d="M229.389,171.127L232.148,171.127L232.148,171.316C231.55,171.366 231.291,171.436 231.291,172.083L231.291,174.135L234.299,174.135L234.299,172.093C234.299,171.436 234.04,171.366 233.423,171.316L233.423,171.127L236.191,171.127L236.191,171.316C235.644,171.366 235.305,171.386 235.305,172.083L235.305,176.764C235.305,177.461 235.644,177.471 236.191,177.541L236.191,177.72L233.423,177.72L233.423,177.541C234.09,177.511 234.299,177.372 234.299,176.724L234.299,174.583L231.291,174.583L231.291,176.774C231.291,177.342 231.5,177.491 232.148,177.541L232.148,177.72L229.389,177.72L229.389,177.541C230.036,177.511 230.245,177.392 230.245,176.724L230.245,172.093C230.245,171.615 230.176,171.346 229.389,171.316L229.389,171.127Z" style="fill-rule:nonzero;stroke:none;"/>
    </g>
    <g transform="matrix(1,0,0,1,-31,-18)">
        <path d="M238.891,170.987C239.12,170.987 239.239,171.177 239.239,171.386C239.239,171.734 238.96,171.983 238.98,172.92C239.648,172.581 239.946,171.824 240.315,171.824C240.564,171.824 240.693,172.003 240.693,172.183C240.693,172.581 240.424,172.571 239.966,172.671C239.648,172.75 239.349,172.87 239.07,173.049C239.897,173.607 240.693,173.298 240.693,173.876C240.693,174.055 240.584,174.244 240.355,174.244C239.877,174.244 239.687,173.448 238.98,173.179C238.98,174.274 239.259,174.374 239.259,174.653C239.259,174.922 239.07,175.081 238.871,175.081C238.681,175.081 238.522,174.922 238.522,174.703C238.522,174.374 238.801,174.045 238.801,173.458C238.801,173.358 238.801,173.258 238.781,173.179C238.532,173.328 238.233,173.557 238.203,173.597C237.885,173.926 237.745,174.224 237.446,174.224C237.177,174.224 237.078,174.055 237.078,173.896C237.078,173.298 237.915,173.597 238.711,173.029C238.452,172.87 238.323,172.8 237.845,172.681C237.536,172.621 237.078,172.551 237.078,172.203C237.078,171.983 237.217,171.834 237.407,171.834C237.865,171.834 237.865,172.382 238.801,172.88C238.801,171.874 238.532,171.834 238.532,171.386C238.532,171.207 238.622,170.987 238.891,170.987Z" style="fill-rule:nonzero;stroke:none;"/>
    </g>
    <g transform="matrix(1,0,0,1,-31,-18)">
        <path d="M326.609,134.667L326.609,133.947M326.609,132.627L326.609,131.907M326.609,130.587L326.609,129.867M326.609,128.547L326.609,127.827M326.609,126.507L326.609,125.787M326.609,124.467L326.609,123.747M326.609,122.427L326.609,121.707M326.609,120.387L326.609,119.667M326.609,118.347L326.609,117.627M326.609,116.307L326.609,115.587M326.609,114.267L326.609,113.547M326.609,112.227L326.609,111.507M326.609,110.187L326.609,109.467M326.609,108.147L326.609,107.427M326.609,106.107L326.609,105.387M326.609,104.067L326.609,103.347M326.609,102.027L326.609,101.307M326.609,99.987L326.609,99.267M326.609,97.947L326.609,97.227M326.609,95.907L326.609,95.187M326.609,93.867L326.609,93.147M326.609,91.827L326.609,91.107M326.609,89.787L326.609,89.067M326.609,87.747L326.609,87.027M326.609,85.707L326.609,84.987M326.609,83.667L326.609,82.947M326.609,81.627L326.609,80.907M326.609,79.587L326.609,78.867M326.609,77.547L326.609,76.827M326.609,75.507L326.609,74.787M326.609,73.467L326.609,72.747M326.609,71.427L326.609,70.707M326.609,69.387L326.609,68.667M326.609,67.347L326.609,66.627M326.609,65.307L326.609,64.587M326.609,63.267L326.609,62.547M326.609,61.227L326.609,60.507M326.609,59.187L326.609,58.467M326.609,57.147L326.609,56.427M326.609,55.107L326.609,54.387M326.609,53.067L326.609,52.347M326.609,51.027L326.609,50.307M326.609,48.987L326.609,48.267M326.609,46.947L326.609,46.227M326.609,44.907L326.609,44.187M326.609,42.867L326.609,42.147M326.609,40.827L326.609,40.107M326.609,38.787L326.609,38.067M326.609,36.747L326.609,36.027M326.609,34.707L326.609,33.987M326.609,32.667L326.609,31.947M326.609,30.627L326.609,29.907M326.609,28.587L326.609,28" style="fill:none;stroke-width:0.38px;"/>
    </g>
    <g transform="matrix(1,0,0,1,-31,-18)">
        <path d="M326.609,188L326.609,182.667" style="fill:none;stroke-width:0.38px;"/>
    </g>
    <g transform="matrix(1,0,0,1,-31,-18)">
        <path d="M326.609,166.667L326.609,161.334" style="fill:none;stroke-width:0.38px;"/>
    </g>
    <g transform="matrix(1,0,0,1,-31,-18)">
        <path d="M314.709,171.127L317.468,171.127L317.468,171.316C316.87,171.366 316.611,171.436 316.611,172.083L316.611,174.135L319.619,174.135L319.619,172.093C319.619,171.436 319.36,171.366 318.743,171.316L318.743,171.127L321.511,171.127L321.511,171.316C320.964,171.366 320.625,171.386 320.625,172.083L320.625,176.764C320.625,177.461 320.964,177.471 321.511,177.541L321.511,177.72L318.743,177.72L318.743,177.541C319.41,177.511 319.619,177.372 319.619,176.724L319.619,174.583L316.611,174.583L316.611,176.774C316.611,177.342 316.82,177.491 317.468,177.541L317.468,177.72L314.709,177.72L314.709,177.541C315.356,177.511 315.565,177.392 315.565,176.724L315.565,172.093C315.565,171.615 315.496,171.346 314.709,171.316L314.709,171.127Z" style="fill-rule:nonzero;stroke:none;"/>
    </g>
    <g transform="matrix(1,0,0,1,-31,-18)">
        <path d="M324.211,170.987C324.44,170.987 324.559,171.177 324.559,171.386C324.559,171.734 324.28,171.983 324.3,172.92C324.968,172.581 325.266,171.824 325.635,171.824C325.884,171.824 326.013,172.003 326.013,172.183C326.013,172.581 325.744,172.571 325.286,172.671C324.968,172.75 324.669,172.87 324.39,173.049C325.217,173.607 326.013,173.298 326.013,173.876C326.013,174.055 325.904,174.244 325.675,174.244C325.197,174.244 325.007,173.448 324.3,173.179C324.3,174.274 324.579,174.374 324.579,174.653C324.579,174.922 324.39,175.081 324.191,175.081C324.001,175.081 323.842,174.922 323.842,174.703C323.842,174.374 324.121,174.045 324.121,173.458C324.121,173.358 324.121,173.258 324.101,173.179C323.852,173.328 323.553,173.557 323.523,173.597C323.205,173.926 323.065,174.224 322.766,174.224C322.498,174.224 322.398,174.055 322.398,173.896C322.398,173.298 323.235,173.597 324.031,173.029C323.772,172.87 323.643,172.8 323.165,172.681C322.856,172.621 322.398,172.551 322.398,172.203C322.398,171.983 322.537,171.834 322.727,171.834C323.185,171.834 323.185,172.382 324.121,172.88C324.121,171.874 323.852,171.834 323.852,171.386C323.852,171.207 323.942,170.987 324.211,170.987Z" style="fill-rule:nonzero;stroke:none;"/>
    </g>
    <g transform="matrix(1,0,0,1,-31,-18)">
        <path d="M329.171,172.681L329.818,172.681L329.818,174.872L332.009,174.872L332.009,175.539L329.818,175.539L329.818,177.72L329.171,177.72L329.171,175.539L326.989,175.539L326.989,174.872L329.171,174.872L329.171,172.681Z" style="fill-rule:nonzero;stroke:none;"/>
    </g>
    <g transform="matrix(1,0,0,1,-31,-18)">
        <path d="M332.428,171.127L335.246,171.127L335.246,171.316C334.559,171.366 334.31,171.436 334.31,172.213L334.31,176.924C334.31,177.312 334.45,177.342 335.336,177.342C336.72,177.342 337.428,177.312 338.015,175.997L338.264,175.997L337.786,177.72L332.428,177.72L332.428,177.541C333.005,177.471 333.284,177.471 333.284,176.645L333.284,172.213C333.284,171.436 333.035,171.366 332.428,171.316L332.428,171.127Z" style="fill-rule:nonzero;stroke:none;"/>
    </g>
    <g transform="matrix(1,0,0,1,-31,-18)">
        <path d="M373.929,134.667L373.929,133.947M373.929,132.627L373.929,131.907M373.929,130.587L373.929,129.867M373.929,128.547L373.929,127.827M373.929,126.507L373.929,125.787M373.929,124.467L373.929,123.747M373.929,122.427L373.929,121.707M373.929,120.387L373.929,119.667M373.929,118.347L373.929,117.627M373.929,116.307L373.929,115.587M373.929,114.267L373.929,113.547M373.929,112.227L373.929,111.507M373.929,110.187L373.929,109.467M373.929,108.147L373.929,107.427M373.929,106.107L373.929,105.387M373.929,104.067L373.929,103.347M373.929,102.027L373.929,101.307M373.929,99.987L373.929,99.267M373.929,97.947L373.929,97.227M373.929,95.907L373.929,95.187M373.929,93.867L373.929,93.147M373.929,91.827L373.929,91.107M373.929,89.787L373.929,89.067M373.929,87.747L373.929,87.027M373.929,85.707L373.929,84.987M373.929,83.667L373.929,82.947M373.929,81.627L373.929,80.907M373.929,79.587L373.929,78.867M373.929,77.547L373.929,76.827M373.929,75.507L373.929,74.787M373.929,73.467L373.929,72.747M373.929,71.427L373.929,70.707M373.929,69.387L373.929,68.667M373.929,67.347L373.929,66.627M373.929,65.307L373.929,64.587M373.929,63.267L373.929,62.547M373.929,61.227L373.929,60.507M373.929,59.187L373.929,58.467M373.929,57.147L373.929,56.427M373.929,55.107L373.929,54.387M373.929,53.067L373.929,52.347M373.929,51.027L373.929,50.307M373.929,48.987L373.929,48.267M373.929,46.947L373.929,46.227M373.929,44.907L373.929,44.187M373.929,42.867L373.929,42.147M373.929,40.827L373.929,40.107M373.929,38.787L373.929,38.067M373.929,36.747L373.929,36.027M373.929,34.707L373.929,33.987M373.929,32.667L373.929,31.947M373.929,30.627L373.929,29.907M373.929,28.587L373.929,28" style="fill:none;stroke-width:0.38px;"/>
    </g>
    <g transform="matrix(1,0,0,1,-31,-18)">
        <path d="M373.929,188L373.929,182.667" style="fill:none;stroke-width:0.38px;"/>
    </g>
    <g transform="matrix(1,0,0,1,-31,-18)">
        <path d="M373.929,166.667L373.929,161.334" style="fill:none;stroke-width:0.38px;"/>
    </g>
    <g transform="matrix(1,0,0,1,-31,-18)">
        <path d="M362.039,171.127L364.858,171.127L364.858,171.316C364.171,171.366 363.922,171.436 363.922,172.213L363.922,176.924C363.922,177.312 364.061,177.342 364.947,177.342C366.332,177.342 367.039,177.312 367.627,175.997L367.876,175.997L367.398,177.72L362.039,177.72L362.039,177.541C362.617,177.471 362.896,177.471 362.896,176.645L362.896,172.213C362.896,171.436 362.647,171.366 362.039,171.316L362.039,171.127Z" style="fill-rule:nonzero;stroke:none;"/>
    </g>
    <g transform="matrix(1,0,0,1,-31,-18)">
        <rect x="368.394" y="175.161" width="2.45" height="0.627" style="fill-rule:nonzero;stroke:none;"/>
    </g>
    <g transform="matrix(1,0,0,1,-31,-18)">
        <path d="M371.441,171.127L374.26,171.127L374.26,171.316C373.573,171.366 373.324,171.436 373.324,172.213L373.324,176.924C373.324,177.312 373.463,177.342 374.35,177.342C375.734,177.342 376.441,177.312 377.029,175.997L377.278,175.997L376.8,177.72L371.441,177.72L371.441,177.541C372.019,177.471 372.298,177.471 372.298,176.645L372.298,172.213C372.298,171.436 372.049,171.366 371.441,171.316L371.441,171.127Z" style="fill-rule:nonzero;stroke:none;"/>
    </g>
    <g transform="matrix(1,0,0,1,-31,-18)">
        <path d="M383.712,170.987L379.877,177.85L379.409,177.85L382.885,171.675L382.846,171.635C382.527,171.834 382.208,171.924 381.81,171.924C381.561,171.924 381.361,171.904 381.152,171.824C381.152,171.824 381.222,172.053 381.222,172.272C381.222,173.358 380.415,174.842 379.19,174.842C378.503,174.842 378.015,174.294 378.015,173.507C378.015,172.432 379.021,171.137 380.166,171.137C381.063,171.137 380.744,171.675 381.77,171.675C382.746,171.675 383.114,171.137 383.344,170.987L383.712,170.987ZM380.186,171.436C379.579,171.436 378.752,172.92 378.752,173.776C378.752,174.254 378.941,174.503 379.389,174.503C380.126,174.503 380.973,173.408 380.973,172.222C380.973,172.123 380.963,171.954 380.893,171.754C380.784,171.724 380.654,171.705 380.535,171.635C380.236,171.475 380.346,171.436 380.186,171.436ZM384.031,174.045C384.788,174.045 385.096,174.473 385.096,175.121C385.096,176.216 384.31,177.72 383.095,177.72C382.228,177.72 381.879,177.113 381.879,176.376C381.879,175.29 382.915,174.045 384.031,174.045ZM384.14,174.344C383.184,174.344 382.636,176.177 382.636,176.714C382.636,177.193 382.846,177.422 383.274,177.422C384.12,177.422 384.847,176.047 384.847,175.201C384.847,174.802 384.618,174.344 384.14,174.344Z" style="fill-rule:nonzero;stroke:none;"/>
    </g>
    <g transform="matrix(1,0,0,1,-31,-18)">
        <path d="M42,28L42,25.48" style="fill:none;stroke-width:0.75px;"/>
    </g>
    <g transform="matrix(1,0,0,1,-31,-18)">
        <path d="M390,28L390,25.48" style="fill:none;stroke-width:0.75px;"/>
    </g>
    <g transform="matrix(1,0,0,1,-31,-18)">
        <path d="M42,188L42,187.28M42,186.08L42,185.36M42,184.16L42,183.44M42,182.24L42,181.52M42,180.32L42,179.6M42,178.4L42,177.68M42,176.48L42,175.76M42,174.56L42,173.84M42,172.64L42,171.92M42,170.72L42,170M42,168.8L42,168.08M42,166.88L42,166.16M42,164.96L42,164.24M42,163.04L42,162.32M42,161.12L42,160.4M42,159.2L42,158.48M42,157.28L42,156.56M42,155.36L42,154.64M42,153.44L42,152.72M42,151.52L42,150.8M42,149.6L42,148.88M42,147.68L42,146.96M42,145.76L42,145.04M42,143.84L42,143.12M42,141.92L42,141.2M42,140L42,139.28M42,138.08L42,137.36M42,136.16L42,135.44M42,134.24L42,133.52M42,132.32L42,131.6M42,130.4L42,129.68M42,128.48L42,127.76M42,126.56L42,125.84M42,124.64L42,123.92M42,122.72L42,122M42,120.8L42,120.08M42,118.88L42,118.16M42,116.96L42,116.24M42,115.04L42,114.32M42,113.12L42,112.4M42,111.2L42,110.48M42,109.28L42,108.56M42,107.36L42,106.64M42,105.44L42,104.72M42,103.52L42,102.8M42,101.6L42,100.88M42,99.68L42,98.96M42,97.76L42,97.04M42,95.84L42,95.12M42,93.92L42,93.2M42,92L42,91.28M42,90.08L42,89.36M42,88.16L42,87.44M42,86.24L42,85.52M42,84.32L42,83.6M42,82.4L42,81.68M42,80.48L42,79.76M42,78.56L42,77.84M42,76.64L42,75.92M42,74.72L42,74M42,72.8L42,72.08M42,70.88L42,70.16M42,68.96L42,68.24M42,67.04L42,66.32M42,65.12L42,64.4M42,63.2L42,62.48M42,61.28L42,60.56M42,59.36L42,58.64M42,57.44L42,56.72M42,55.52L42,54.8M42,53.6L42,52.88M42,51.68L42,50.96M42,49.76L42,49.04M42,47.84L42,47.12M42,45.92L42,45.2M42,44L42,43.28M42,42.08L42,41.36M42,40.16L42,39.44M42,38.24L42,37.52M42,36.32L42,35.6M42,34.4L42,33.68M42,32.48L42,31.76M42,30.56L42,29.84M42,28.64L42,28" style="fill:none;stroke-width:0.25px;"/>
    </g>
    <g transform="matrix(1,0,0,1,-31,-18)">
        <path d="M390,188L390,187.28M390,186.08L390,185.36M390,184.16L390,183.44M390,182.24L390,181.52M390,180.32L390,179.6M390,178.4L390,177.68M390,176.48L390,175.76M390,174.56L390,173.84M390,172.64L390,171.92M390,170.72L390,170M390,168.8L390,168.08M390,166.88L390,166.16M390,164.96L390,164.24M390,163.04L390,162.32M390,161.12L390,160.4M390,159.2L390,158.48M390,157.28L390,156.56M390,155.36L390,154.64M390,153.44L390,152.72M390,151.52L390,150.8M390,149.6L390,148.88M390,147.68L390,146.96M390,145.76L390,145.04M390,143.84L390,143.12M390,141.92L390,141.2M390,140L390,139.28M390,138.08L390,137.36M390,136.16L390,135.44M390,134.24L390,133.52M390,132.32L390,131.6M390,130.4L390,129.68M390,128.48L390,127.76M390,126.56L390,125.84M390,124.64L390,123.92M390,122.72L390,122M390,120.8L390,120.08M390,118.88L390,118.16M390,116.96L390,116.24M390,115.04L390,114.32M390,113.12L390,112.4M390,111.2L390,110.48M390,109.28L390,108.56M390,107.36L390,106.64M390,105.44L390,104.72M390,103.52L390,102.8M390,101.6L390,100.88M390,99.68L390,98.96M390,97.76L390,97.04M390,95.84L390,95.12M390,93.92L390,93.2M390,92L390,91.28M390,90.08L390,89.36M390,88.16L390,87.44M390,86.24L390,85.52M390,84.32L390,83.6M390,82.4L390,81.68M390,80.48L390,79.76M390,78.56L390,77.84M390,76.64L390,75.92M390,74.72L390,74M390,72.8L390,72.08M390,70.88L390,70.16M390,68.96L390,68.24M390,67.04L390,66.32M390,65.12L390,64.4M390,63.2L390,62.48M390,61.28L390,60.56M390,59.36L390,58.64M390,57.44L390,56.72M390,55.52L390,54.8M390,53.6L390,52.88M390,51.68L390,50.96M390,49.76L390,49.04M390,47.84L390,47.12M390,45.92L390,45.2M390,44L390,43.28M390,42.08L390,41.36M390,40.16L390,39.44M390,38.24L390,37.52M390,36.32L390,35.6M390,34.4L390,33.68M390,32.48L390,31.76M390,30.56L390,29.84M390,28.64L390,28" style="fill:none;stroke-width:0.25px;"/>
    </g>
</svg>
