<?xml version="1.0" encoding="UTF-8" standalone="no"?>
<!DOCTYPE svg PUBLIC "-//W3C//DTD SVG 1.1//EN" "http://www.w3.org/Graphics/SVG/1.1/DTD/svg11.dtd">
<svg width="75%" height="75%" viewBox="0 0 370 180" version="1.1" xmlns="http://www.w3.org/2000/svg" xmlns:xlink="http://www.w3.org/1999/xlink" xml:space="preserve" xmlns:serif="http://www.serif.com/" style="fill-rule:evenodd;clip-rule:evenodd;stroke-linejoin:round;stroke-miterlimit:2;" fill="currentColor" stroke="currentColor">
    <g transform="matrix(1,0,0,1,-31,-18)">
        <path d="M58.341,89.751L59.563,89.751L62.007,87.501L64.452,85.696L66.896,85.544L69.34,86.925L71.785,85.14L74.229,77.789L76.673,76.866L79.118,75.129L81.562,70.64L84.006,60.939L86.451,60.415L88.895,59.478L91.339,54.058L93.784,53.988L96.228,54.901L98.672,56.033L101.117,56.703L103.561,58.449L106.005,59.539L108.449,56.642L110.894,54.646L113.338,54.827L115.782,54.269L118.227,54.152L120.671,54.922L123.115,53.586L125.56,52.687L128.004,54.293L130.448,53.861L132.893,54.03L135.337,54.057L136.559,54.057" style="fill:none;stroke-width:0.38px;"/>
    </g>
    <g transform="matrix(1,0,0,1,-31,-18)">
        <path d="M143.892,64.947L145.114,64.947L147.559,64.045L150.003,57.162L152.447,54.395L154.892,54.08L157.336,54.625L159.78,58.584L162.224,61.365L164.669,63.371L167.113,67.785L169.557,70.208L172.002,69.951L174.446,68.776L176.89,68.268L179.335,65.894L181.779,63.821L184.223,60.72L186.668,60.016L189.112,60.269L191.556,60.957L194.001,59.563L196.445,60.503L198.889,60.249L201.334,58.979L203.778,58.551L206.222,60.057L208.666,61.575L211.111,62.27L213.555,64.534L215.999,65.883L218.444,67.84L220.888,68.529L223.332,63.529L225.777,63.736L228.221,64.563L230.665,65.891L233.11,67.73L235.554,66.772L237.998,62.37L240.443,64.2L242.887,66.102L245.331,64.401L247.776,63.228L250.22,62.354L252.664,61.865L255.108,62.696L257.553,63.891L259.997,65.663L262.441,66.845L264.886,67.561L267.33,68.94L269.774,68.761L272.219,69.06L274.663,70.498L277.107,70.869L279.552,70.254L281.996,70.866L284.44,73.545L286.885,74.708L289.329,77.38L291.773,80.654L294.218,80.002L296.662,77.673L299.106,79.767L301.55,79.198L303.995,75.378L306.439,67.708L308.883,65.8L311.328,66.175L313.772,65.015L316.216,63.438L318.661,63.527L321.105,63.585L323.549,64.517L325.994,65.247L328.438,65.022L330.882,65.292L333.327,66.474L335.771,67.226L338.215,67.991L340.66,71.231L343.104,70.776L345.548,70.645L347.993,71.412L350.437,72.514L352.881,71.49L355.325,70.171L357.77,71.698L360.214,73.595L362.658,73.898L365.103,72.854L367.547,72.435L369.991,72.481L372.436,73.364L374.88,74.342L377.324,75.332L379.769,76.822L382.213,76.992L384.657,76.889L387.102,76.07L389.546,75.658L389.999,75.658" style="fill:none;stroke-width:0.38px;"/>
    </g>
    <g transform="matrix(1,0,0,1,-31,-18)">
        <rect x="42" y="134.667" width="348" height="26.667" style="fill:none;stroke-width:0.38px;"/>
    </g>
    <g transform="matrix(1,0,0,1,-31,-18)">
        <path d="M51.423,134.667L51.423,133.947M51.423,132.627L51.423,131.907M51.423,130.587L51.423,129.867M51.423,128.547L51.423,127.827M51.423,126.507L51.423,125.787M51.423,124.467L51.423,123.747M51.423,122.427L51.423,121.707M51.423,120.387L51.423,119.667M51.423,118.347L51.423,117.627M51.423,116.307L51.423,115.587M51.423,114.267L51.423,113.547M51.423,112.227L51.423,111.507M51.423,110.187L51.423,109.467M51.423,108.147L51.423,107.427M51.423,106.107L51.423,105.387M51.423,104.067L51.423,103.347M51.423,102.027L51.423,101.307M51.423,99.987L51.423,99.267M51.423,97.947L51.423,97.227M51.423,95.907L51.423,95.187M51.423,93.867L51.423,93.147M51.423,91.827L51.423,91.107M51.423,89.787L51.423,89.067M51.423,87.747L51.423,87.027M51.423,85.707L51.423,84.987M51.423,83.667L51.423,82.947M51.423,81.627L51.423,80.907M51.423,79.587L51.423,78.867M51.423,77.547L51.423,76.827M51.423,75.507L51.423,74.787M51.423,73.467L51.423,72.747M51.423,71.427L51.423,70.707M51.423,69.387L51.423,68.667M51.423,67.347L51.423,66.627M51.423,65.307L51.423,64.587M51.423,63.267L51.423,62.547M51.423,61.227L51.423,60.507M51.423,59.187L51.423,58.467M51.423,57.147L51.423,56.427M51.423,55.107L51.423,54.387M51.423,53.067L51.423,52.347M51.423,51.027L51.423,50.307M51.423,48.987L51.423,48.267M51.423,46.947L51.423,46.227M51.423,44.907L51.423,44.187M51.423,42.867L51.423,42.147M51.423,40.827L51.423,40.107M51.423,38.787L51.423,38.067M51.423,36.747L51.423,36.027M51.423,34.707L51.423,33.987M51.423,32.667L51.423,31.947M51.423,30.627L51.423,29.907M51.423,28.587L51.423,28" style="fill:none;stroke-width:0.38px;"/>
    </g>
    <g transform="matrix(1,0,0,1,-31,-18)">
        <path d="M51.423,161.334L51.423,134.667" style="fill:none;stroke-width:0.38px;"/>
    </g>
    <g transform="matrix(1,0,0,1,-31,-18)">
        <path d="M62.842,150.423L62.842,150.682C62.553,151.001 62.304,151.18 61.955,151.18C61.447,151.18 61.338,150.831 61.308,150.453C60.92,150.782 60.441,151.18 59.864,151.18C59.226,151.18 58.808,150.732 58.808,150.154C58.808,149.128 59.734,148.79 61.288,148.182L61.288,147.614C61.288,147.435 61.308,146.738 60.531,146.738C60.252,146.738 59.824,146.887 59.824,147.246C59.824,147.365 59.874,147.495 59.874,147.614C59.874,147.883 59.635,148.043 59.406,148.043C59.157,148.043 58.997,147.814 58.997,147.594C58.997,147.236 59.436,146.499 60.621,146.499C61.657,146.499 62.095,146.987 62.095,147.943L62.095,150.055C62.095,150.353 62.095,150.622 62.394,150.622C62.643,150.622 62.842,150.423 62.842,150.423ZM61.288,148.411C60.621,148.66 59.685,148.989 59.685,149.825C59.685,150.234 59.914,150.602 60.332,150.602C60.69,150.602 61.198,150.323 61.238,150.204C61.248,150.154 61.288,150.124 61.288,149.885L61.288,148.411Z" style="fill-rule:nonzero;stroke:none;"/>
    </g>
    <g transform="matrix(1,0,0,1,-31,-18)">
        <path d="M64.416,146.499L64.435,146.519L64.435,147.415L64.475,147.415C64.704,147.086 65.053,146.499 65.631,146.499C65.999,146.499 66.198,146.738 66.198,147.037C66.198,147.236 66.109,147.485 65.81,147.485C65.471,147.485 65.352,147.136 65.123,147.136C64.943,147.136 64.435,147.565 64.435,147.983L64.435,150.234C64.435,150.752 64.645,150.931 65.282,150.931L65.282,151.08L62.912,151.08L62.912,150.931C63.579,150.831 63.609,150.672 63.609,150.204L63.609,147.694C63.609,147.086 63.31,147.146 63.24,147.146C63.131,147.146 63.051,147.166 62.922,147.196L62.922,147.037C63.31,146.917 64.416,146.499 64.416,146.499Z" style="fill-rule:nonzero;stroke:none;"/>
    </g>
    <g transform="matrix(1,0,0,1,-31,-18)">
        <path d="M73.582,134.667L73.582,133.947M73.582,132.627L73.582,131.907M73.582,130.587L73.582,129.867M73.582,128.547L73.582,127.827M73.582,126.507L73.582,125.787M73.582,124.467L73.582,123.747M73.582,122.427L73.582,121.707M73.582,120.387L73.582,119.667M73.582,118.347L73.582,117.627M73.582,116.307L73.582,115.587M73.582,114.267L73.582,113.547M73.582,112.227L73.582,111.507M73.582,110.187L73.582,109.467M73.582,108.147L73.582,107.427M73.582,106.107L73.582,105.387M73.582,104.067L73.582,103.347M73.582,102.027L73.582,101.307M73.582,99.987L73.582,99.267M73.582,97.947L73.582,97.227M73.582,95.907L73.582,95.187M73.582,93.867L73.582,93.147M73.582,91.827L73.582,91.107M73.582,89.787L73.582,89.067M73.582,87.747L73.582,87.027M73.582,85.707L73.582,84.987M73.582,83.667L73.582,82.947M73.582,81.627L73.582,80.907M73.582,79.587L73.582,78.867M73.582,77.547L73.582,76.827M73.582,75.507L73.582,74.787M73.582,73.467L73.582,72.747M73.582,71.427L73.582,70.707M73.582,69.387L73.582,68.667M73.582,67.347L73.582,66.627M73.582,65.307L73.582,64.587M73.582,63.267L73.582,62.547M73.582,61.227L73.582,60.507M73.582,59.187L73.582,58.467M73.582,57.147L73.582,56.427M73.582,55.107L73.582,54.387M73.582,53.067L73.582,52.347M73.582,51.027L73.582,50.307M73.582,48.987L73.582,48.267M73.582,46.947L73.582,46.227M73.582,44.907L73.582,44.187M73.582,42.867L73.582,42.147M73.582,40.827L73.582,40.107M73.582,38.787L73.582,38.067M73.582,36.747L73.582,36.027M73.582,34.707L73.582,33.987M73.582,32.667L73.582,31.947M73.582,30.627L73.582,29.907M73.582,28.587L73.582,28" style="fill:none;stroke-width:0.38px;"/>
    </g>
    <g transform="matrix(1,0,0,1,-31,-18)">
        <path d="M73.582,161.334L73.582,134.667" style="fill:none;stroke-width:0.38px;"/>
    </g>
    <g transform="matrix(1,0,0,1,-31,-18)">
        <path d="M99.924,144.278C100.203,144.278 100.432,144.527 100.432,144.776C100.432,145.065 100.223,145.314 99.924,145.314C99.586,145.314 99.406,145.025 99.406,144.796C99.406,144.527 99.606,144.278 99.924,144.278ZM98.799,151.08L98.799,150.941C99.406,150.901 99.586,150.841 99.586,150.074L99.586,147.764C99.586,147.365 99.496,147.156 99.217,147.156C99.098,147.156 98.948,147.166 98.849,147.206L98.849,147.057C99.078,146.987 100.203,146.569 100.383,146.509L100.412,146.539L100.412,150.074C100.412,150.742 100.482,150.901 101.159,150.941L101.159,151.08L98.799,151.08Z" style="fill-rule:nonzero;stroke:none;"/>
    </g>
    <g transform="matrix(1,0,0,1,-31,-18)">
        <path d="M101.608,151.08L101.608,150.941C102.225,150.901 102.375,150.752 102.375,150.224L102.375,145.473C102.375,145.065 102.355,144.865 101.906,144.865C101.767,144.865 101.737,144.865 101.598,144.875L101.598,144.726C102.056,144.616 103.042,144.328 103.171,144.278L103.221,144.278L103.221,150.224C103.221,150.792 103.331,150.901 103.968,150.941L103.968,151.08L101.608,151.08Z" style="fill-rule:nonzero;stroke:none;"/>
    </g>
    <g transform="matrix(1,0,0,1,-31,-18)">
        <path d="M104.327,146.598L106.378,146.598L106.378,146.748C106.199,146.768 105.791,146.738 105.791,147.037C105.791,147.096 105.831,147.236 105.851,147.286L107.036,149.925L107.952,147.345C107.982,147.236 108.052,147.096 108.052,147.037C108.052,146.768 107.753,146.748 107.564,146.748L107.564,146.598L108.908,146.598L108.908,146.748C108.689,146.768 108.55,146.867 108.44,147.166L106.886,151.28C106.408,152.545 105.97,153.252 105.213,153.252C104.805,153.252 104.466,153.043 104.466,152.664C104.466,152.415 104.665,152.246 104.944,152.246C105.213,152.246 105.532,152.415 105.651,152.415C106.149,152.415 106.538,151.22 106.588,150.901C106.588,150.831 106.518,150.682 106.518,150.682L105.014,147.485C104.825,147.047 104.785,146.818 104.317,146.738L104.327,146.598Z" style="fill-rule:nonzero;stroke:none;"/>
    </g>
    <g transform="matrix(1,0,0,1,-31,-18)">
        <path d="M113.221,149.457L113.38,149.527C112.992,150.533 112.235,151.18 111.269,151.18C110.074,151.18 109.406,150.254 109.406,148.959C109.406,147.116 110.631,146.499 111.438,146.499C112.374,146.499 113.072,147.017 113.181,148.331L110.103,148.331C110.213,150.084 111.02,150.503 111.667,150.503C112.554,150.503 112.992,149.825 113.221,149.457ZM110.123,147.993L112.175,147.993C112.095,147.535 112.006,146.867 111.209,146.867C110.671,146.867 110.283,147.136 110.123,147.993Z" style="fill-rule:nonzero;stroke:none;"/>
    </g>
    <g transform="matrix(1,0,0,1,-31,-18)">
        <path d="M139.044,134.667L139.044,133.947M139.044,132.627L139.044,131.907M139.044,130.587L139.044,129.867M139.044,128.547L139.044,127.827M139.044,126.507L139.044,125.787M139.044,124.467L139.044,123.747M139.044,122.427L139.044,121.707M139.044,120.387L139.044,119.667M139.044,118.347L139.044,117.627M139.044,116.307L139.044,115.587M139.044,114.267L139.044,113.547M139.044,112.227L139.044,111.507M139.044,110.187L139.044,109.467M139.044,108.147L139.044,107.427M139.044,106.107L139.044,105.387M139.044,104.067L139.044,103.347M139.044,102.027L139.044,101.307M139.044,99.987L139.044,99.267M139.044,97.947L139.044,97.227M139.044,95.907L139.044,95.187M139.044,93.867L139.044,93.147M139.044,91.827L139.044,91.107M139.044,89.787L139.044,89.067M139.044,87.747L139.044,87.027M139.044,85.707L139.044,84.987M139.044,83.667L139.044,82.947M139.044,81.627L139.044,80.907M139.044,79.587L139.044,78.867M139.044,77.547L139.044,76.827M139.044,75.507L139.044,74.787M139.044,73.467L139.044,72.747M139.044,71.427L139.044,70.707M139.044,69.387L139.044,68.667M139.044,67.347L139.044,66.627M139.044,65.307L139.044,64.587M139.044,63.267L139.044,62.547M139.044,61.227L139.044,60.507M139.044,59.187L139.044,58.467M139.044,57.147L139.044,56.427M139.044,55.107L139.044,54.387M139.044,53.067L139.044,52.347M139.044,51.027L139.044,50.307M139.044,48.987L139.044,48.267M139.044,46.947L139.044,46.227M139.044,44.907L139.044,44.187M139.044,42.867L139.044,42.147M139.044,40.827L139.044,40.107M139.044,38.787L139.044,38.067M139.044,36.747L139.044,36.027M139.044,34.707L139.044,33.987M139.044,32.667L139.044,31.947M139.044,30.627L139.044,29.907M139.044,28.587L139.044,28" style="fill:none;stroke-width:0.38px;"/>
    </g>
    <g transform="matrix(1,0,0,1,-31,-18)">
        <path d="M139.044,161.334L139.044,134.667" style="fill:none;stroke-width:0.38px;"/>
    </g>
    <g transform="matrix(1,0,0,1,-31,-18)">
        <path d="M154.234,145.314C154.234,145.314 154.283,145.333 154.283,145.363L154.283,146.608L155.289,146.608L155.289,146.927L154.283,146.927L154.283,149.905C154.283,150.244 154.373,150.672 154.801,150.672C155.06,150.672 155.25,150.503 155.389,150.323L155.538,150.423C155.319,150.821 154.871,151.18 154.373,151.18C153.636,151.18 153.467,150.602 153.467,149.905L153.467,146.927L152.919,146.927C152.919,146.907 152.899,146.897 152.889,146.847C152.969,146.628 153.267,146.778 154.234,145.314Z" style="fill-rule:nonzero;stroke:none;"/>
    </g>
    <g transform="matrix(1,0,0,1,-31,-18)">
        <path d="M156.813,144.278C157.092,144.278 157.321,144.527 157.321,144.776C157.321,145.065 157.112,145.314 156.813,145.314C156.475,145.314 156.295,145.025 156.295,144.796C156.295,144.527 156.495,144.278 156.813,144.278ZM155.688,151.08L155.688,150.941C156.295,150.901 156.475,150.841 156.475,150.074L156.475,147.764C156.475,147.365 156.385,147.156 156.106,147.156C155.987,147.156 155.837,147.166 155.738,147.206L155.738,147.057C155.967,146.987 157.092,146.569 157.271,146.509L157.301,146.539L157.301,150.074C157.301,150.742 157.371,150.901 158.048,150.941L158.048,151.08L155.688,151.08Z" style="fill-rule:nonzero;stroke:none;"/>
    </g>
    <g transform="matrix(1,0,0,1,-31,-18)">
        <path d="M162.361,149.457L162.52,149.527C162.132,150.533 161.375,151.18 160.409,151.18C159.214,151.18 158.546,150.254 158.546,148.959C158.546,147.116 159.771,146.499 160.578,146.499C161.514,146.499 162.212,147.017 162.321,148.331L159.243,148.331C159.353,150.084 160.16,150.503 160.807,150.503C161.694,150.503 162.132,149.825 162.361,149.457ZM159.263,147.993L161.315,147.993C161.235,147.535 161.146,146.867 160.349,146.867C159.811,146.867 159.423,147.136 159.263,147.993Z" style="fill-rule:nonzero;stroke:none;"/>
    </g>
    <g transform="matrix(1,0,0,1,-31,-18)">
        <path d="M164.273,146.499L164.293,146.519L164.293,147.415L164.333,147.415C164.562,147.086 164.911,146.499 165.488,146.499C165.857,146.499 166.056,146.738 166.056,147.037C166.056,147.236 165.966,147.485 165.668,147.485C165.329,147.485 165.21,147.136 164.98,147.136C164.801,147.136 164.293,147.565 164.293,147.983L164.293,150.234C164.293,150.752 164.502,150.931 165.14,150.931L165.14,151.08L162.769,151.08L162.769,150.931C163.437,150.831 163.467,150.672 163.467,150.204L163.467,147.694C163.467,147.086 163.168,147.146 163.098,147.146C162.988,147.146 162.909,147.166 162.779,147.196L162.779,147.037C163.168,146.917 164.273,146.499 164.273,146.499Z" style="fill-rule:nonzero;stroke:none;"/>
    </g>
    <g transform="matrix(1,0,0,1,-31,-18)">
        <path d="M180.022,134.667L180.022,133.947M180.022,132.627L180.022,131.907M180.022,130.587L180.022,129.867M180.022,128.547L180.022,127.827M180.022,126.507L180.022,125.787M180.022,124.467L180.022,123.747M180.022,122.427L180.022,121.707M180.022,120.387L180.022,119.667M180.022,118.347L180.022,117.627M180.022,116.307L180.022,115.587M180.022,114.267L180.022,113.547M180.022,112.227L180.022,111.507M180.022,110.187L180.022,109.467M180.022,108.147L180.022,107.427M180.022,106.107L180.022,105.387M180.022,104.067L180.022,103.347M180.022,102.027L180.022,101.307M180.022,99.987L180.022,99.267M180.022,97.947L180.022,97.227M180.022,95.907L180.022,95.187M180.022,93.867L180.022,93.147M180.022,91.827L180.022,91.107M180.022,89.787L180.022,89.067M180.022,87.747L180.022,87.027M180.022,85.707L180.022,84.987M180.022,83.667L180.022,82.947M180.022,81.627L180.022,80.907M180.022,79.587L180.022,78.867M180.022,77.547L180.022,76.827M180.022,75.507L180.022,74.787M180.022,73.467L180.022,72.747M180.022,71.427L180.022,70.707M180.022,69.387L180.022,68.667M180.022,67.347L180.022,66.627M180.022,65.307L180.022,64.587M180.022,63.267L180.022,62.547M180.022,61.227L180.022,60.507M180.022,59.187L180.022,58.467M180.022,57.147L180.022,56.427M180.022,55.107L180.022,54.387M180.022,53.067L180.022,52.347M180.022,51.027L180.022,50.307M180.022,48.987L180.022,48.267M180.022,46.947L180.022,46.227M180.022,44.907L180.022,44.187M180.022,42.867L180.022,42.147M180.022,40.827L180.022,40.107M180.022,38.787L180.022,38.067M180.022,36.747L180.022,36.027M180.022,34.707L180.022,33.987M180.022,32.667L180.022,31.947M180.022,30.627L180.022,29.907M180.022,28.587L180.022,28" style="fill:none;stroke-width:0.38px;"/>
    </g>
    <g transform="matrix(1,0,0,1,-31,-18)">
        <path d="M180.022,161.334L180.022,134.667" style="fill:none;stroke-width:0.38px;"/>
    </g>
    <g transform="matrix(1,0,0,1,-31,-18)">
        <path d="M217.649,146.598L219.093,146.598L219.093,149.825C219.093,150.254 219.362,150.602 219.83,150.602C220.279,150.602 220.757,150.284 220.806,150.124C220.876,149.955 220.856,149.756 220.856,149.586L220.856,147.335C220.856,146.887 220.667,146.788 220.139,146.768L220.139,146.598L221.703,146.598L221.703,150.104C221.703,150.572 221.972,150.582 222.33,150.582L222.33,150.732C221.972,150.802 220.926,151.17 220.926,151.17C220.896,151.19 220.926,150.403 220.916,150.323C220.538,150.732 220.139,151.18 219.442,151.18C218.755,151.18 218.267,150.672 218.267,149.925L218.267,147.365C218.267,146.698 217.818,146.768 217.649,146.738L217.649,146.598Z" style="fill-rule:nonzero;stroke:none;"/>
    </g>
    <g transform="matrix(1,0,0,1,-31,-18)">
        <path d="M223.326,150.254L223.326,147.744C223.326,147.067 223.157,147.086 222.958,147.086C222.868,147.086 222.779,147.086 222.699,147.116L222.699,146.947C222.958,146.867 223.456,146.738 224.073,146.499L224.143,146.519L224.143,147.316C224.601,146.887 224.97,146.499 225.587,146.499C226.205,146.499 226.763,146.917 226.763,147.993L226.763,150.284C226.763,150.732 226.942,150.901 227.37,150.931L227.37,151.08L225.298,151.08L225.298,150.931C225.707,150.921 225.916,150.732 225.916,150.084L225.916,147.993C225.916,147.316 225.657,147.047 225.179,147.047C224.771,147.047 224.452,147.365 224.173,147.614L224.173,150.423C224.173,150.831 224.442,150.901 224.83,150.931L224.83,151.08L222.729,151.08L222.729,150.931C223.028,150.901 223.326,150.901 223.326,150.254Z" style="fill-rule:nonzero;stroke:none;"/>
    </g>
    <g transform="matrix(1,0,0,1,-31,-18)">
        <path d="M232.41,150.503L232.41,150.672L230.946,151.18L230.886,151.15L230.886,150.553L230.866,150.553C230.697,150.821 230.328,151.18 229.601,151.18C229.193,151.18 227.788,150.991 227.788,148.959C227.788,147.654 228.715,146.509 229.83,146.509C230.268,146.509 230.557,146.638 230.886,146.917L230.886,145.343C230.886,145.045 230.886,144.816 230.219,144.875L230.219,144.726C230.816,144.567 231.543,144.328 231.683,144.278L231.733,144.298L231.733,150.074C231.733,150.343 231.753,150.572 232.41,150.503ZM229.86,146.788C229.263,146.788 228.635,147.316 228.635,148.63C228.635,150.104 229.352,150.672 230.01,150.672C230.428,150.672 230.816,150.423 230.886,150.074L230.886,147.833C230.886,147.286 230.468,146.788 229.86,146.788Z" style="fill-rule:nonzero;stroke:none;"/>
    </g>
    <g transform="matrix(1,0,0,1,-31,-18)">
        <path d="M232.589,146.598L234.033,146.598L234.033,149.825C234.033,150.254 234.302,150.602 234.77,150.602C235.219,150.602 235.697,150.284 235.746,150.124C235.816,149.955 235.796,149.756 235.796,149.586L235.796,147.335C235.796,146.887 235.607,146.788 235.079,146.768L235.079,146.598L236.643,146.598L236.643,150.104C236.643,150.572 236.912,150.582 237.27,150.582L237.27,150.732C236.912,150.802 235.866,151.17 235.866,151.17C235.836,151.19 235.866,150.403 235.856,150.323C235.478,150.732 235.079,151.18 234.382,151.18C233.695,151.18 233.207,150.672 233.207,149.925L233.207,147.365C233.207,146.698 232.758,146.768 232.589,146.738L232.589,146.598Z" style="fill-rule:nonzero;stroke:none;"/>
    </g>
    <g transform="matrix(1,0,0,1,-31,-18)">
        <path d="M237.679,151.08L237.679,150.941C238.296,150.901 238.446,150.752 238.446,150.224L238.446,145.473C238.446,145.065 238.426,144.865 237.978,144.865C237.838,144.865 237.808,144.865 237.669,144.875L237.669,144.726C238.127,144.616 239.113,144.328 239.242,144.278L239.292,144.278L239.292,150.224C239.292,150.792 239.402,150.901 240.039,150.941L240.039,151.08L237.679,151.08Z" style="fill-rule:nonzero;stroke:none;"/>
    </g>
    <g transform="matrix(1,0,0,1,-31,-18)">
        <path d="M243.605,144.328C243.854,144.328 243.963,144.467 243.963,144.666C243.963,144.816 243.854,144.965 243.714,145.045L242.131,146.041L241.722,146.041L243.276,144.497C243.376,144.377 243.465,144.328 243.605,144.328ZM244.651,150.423L244.651,150.692C244.362,151.001 244.113,151.18 243.764,151.18C243.256,151.18 243.147,150.841 243.117,150.453C242.728,150.792 242.25,151.18 241.673,151.18C241.035,151.18 240.617,150.742 240.617,150.154C240.617,149.128 241.543,148.8 243.097,148.192L243.097,147.624C243.097,147.445 243.117,146.748 242.34,146.748C242.061,146.748 241.633,146.897 241.633,147.266C241.633,147.375 241.683,147.515 241.683,147.624C241.683,147.893 241.444,148.053 241.215,148.053C240.966,148.053 240.806,147.823 240.806,147.614C240.806,147.246 241.244,146.519 242.43,146.519C243.465,146.519 243.904,146.997 243.904,147.953L243.904,150.055C243.904,150.353 243.904,150.622 244.203,150.622C244.452,150.622 244.651,150.423 244.651,150.423ZM243.097,148.421C242.43,148.67 241.493,148.999 241.493,149.825C241.493,150.244 241.722,150.602 242.141,150.602C242.499,150.602 243.007,150.323 243.047,150.204C243.057,150.154 243.097,150.124 243.097,149.895L243.097,148.421Z" style="fill-rule:nonzero;stroke:none;"/>
    </g>
    <g transform="matrix(1,0,0,1,-31,-18)">
        <path d="M244.86,146.598L246.812,146.598L246.812,146.758C246.653,146.768 246.334,146.768 246.334,147.057C246.334,147.106 246.374,147.206 246.374,147.236L247.44,149.965L248.147,148.152C248.216,147.963 248.505,147.286 248.505,147.086C248.505,146.907 248.356,146.768 248.027,146.758L248.027,146.598L249.422,146.598L249.422,146.758C249.153,146.788 249.063,146.788 248.784,147.485L247.39,150.961C247.39,150.961 247.29,151.22 247.21,151.22C247.131,151.22 247.071,151.09 246.971,150.821C246.453,149.477 245.537,147.405 245.537,147.405C245.298,146.818 245.119,146.788 244.86,146.758L244.86,146.598Z" style="fill-rule:nonzero;stroke:none;"/>
    </g>
    <g transform="matrix(1,0,0,1,-31,-18)">
        <path d="M253.714,149.457L253.874,149.527C253.485,150.533 252.728,151.18 251.762,151.18C250.567,151.18 249.9,150.254 249.9,148.959C249.9,147.116 251.125,146.499 251.931,146.499C252.868,146.499 253.565,147.017 253.674,148.331L250.597,148.331C250.706,150.084 251.513,150.503 252.161,150.503C253.047,150.503 253.485,149.825 253.714,149.457ZM250.617,147.993L252.669,147.993C252.589,147.535 252.499,146.867 251.702,146.867C251.165,146.867 250.776,147.136 250.617,147.993Z" style="fill-rule:nonzero;stroke:none;"/>
    </g>
    <g transform="matrix(1,0,0,1,-31,-18)">
        <path d="M291.821,134.667L291.821,133.947M291.821,132.627L291.821,131.907M291.821,130.587L291.821,129.867M291.821,128.547L291.821,127.827M291.821,126.507L291.821,125.787M291.821,124.467L291.821,123.747M291.821,122.427L291.821,121.707M291.821,120.387L291.821,119.667M291.821,118.347L291.821,117.627M291.821,116.307L291.821,115.587M291.821,114.267L291.821,113.547M291.821,112.227L291.821,111.507M291.821,110.187L291.821,109.467M291.821,108.147L291.821,107.427M291.821,106.107L291.821,105.387M291.821,104.067L291.821,103.347M291.821,102.027L291.821,101.307M291.821,99.987L291.821,99.267M291.821,97.947L291.821,97.227M291.821,95.907L291.821,95.187M291.821,93.867L291.821,93.147M291.821,91.827L291.821,91.107M291.821,89.787L291.821,89.067M291.821,87.747L291.821,87.027M291.821,85.707L291.821,84.987M291.821,83.667L291.821,82.947M291.821,81.627L291.821,80.907M291.821,79.587L291.821,78.867M291.821,77.547L291.821,76.827M291.821,75.507L291.821,74.787M291.821,73.467L291.821,72.747M291.821,71.427L291.821,70.707M291.821,69.387L291.821,68.667M291.821,67.347L291.821,66.627M291.821,65.307L291.821,64.587M291.821,63.267L291.821,62.547M291.821,61.227L291.821,60.507M291.821,59.187L291.821,58.467M291.821,57.147L291.821,56.427M291.821,55.107L291.821,54.387M291.821,53.067L291.821,52.347M291.821,51.027L291.821,50.307M291.821,48.987L291.821,48.267M291.821,46.947L291.821,46.227M291.821,44.907L291.821,44.187M291.821,42.867L291.821,42.147M291.821,40.827L291.821,40.107M291.821,38.787L291.821,38.067M291.821,36.747L291.821,36.027M291.821,34.707L291.821,33.987M291.821,32.667L291.821,31.947M291.821,30.627L291.821,29.907M291.821,28.587L291.821,28" style="fill:none;stroke-width:0.38px;"/>
    </g>
    <g transform="matrix(1,0,0,1,-31,-18)">
        <path d="M291.821,161.334L291.821,134.667" style="fill:none;stroke-width:0.38px;"/>
    </g>
    <g transform="matrix(1,0,0,1,-31,-18)">
        <path d="M317.119,151.08L317.119,150.941C317.736,150.901 317.886,150.752 317.886,150.224L317.886,145.473C317.886,145.065 317.866,144.865 317.418,144.865C317.278,144.865 317.248,144.865 317.109,144.875L317.109,144.726C317.567,144.616 318.553,144.328 318.682,144.278L318.732,144.278L318.732,150.224C318.732,150.792 318.842,150.901 319.479,150.941L319.479,151.08L317.119,151.08Z" style="fill-rule:nonzero;stroke:none;"/>
    </g>
    <g transform="matrix(1,0,0,1,-31,-18)">
        <path d="M319.778,146.598L321.222,146.598L321.222,149.825C321.222,150.254 321.491,150.602 321.959,150.602C322.408,150.602 322.886,150.284 322.935,150.124C323.005,149.955 322.985,149.756 322.985,149.586L322.985,147.335C322.985,146.887 322.796,146.788 322.268,146.768L322.268,146.598L323.832,146.598L323.832,150.104C323.832,150.572 324.101,150.582 324.459,150.582L324.459,150.732C324.101,150.802 323.055,151.17 323.055,151.17C323.025,151.19 323.055,150.403 323.045,150.323C322.666,150.732 322.268,151.18 321.571,151.18C320.884,151.18 320.396,150.672 320.396,149.925L320.396,147.365C320.396,146.698 319.947,146.768 319.778,146.738L319.778,146.598Z" style="fill-rule:nonzero;stroke:none;"/>
    </g>
    <g transform="matrix(1,0,0,1,-31,-18)">
        <path d="M325.525,150.234L325.525,147.644C325.525,146.997 325.226,147.086 325.156,147.086C325.057,147.086 324.967,147.096 324.858,147.116L324.858,146.947C325.226,146.837 325.814,146.648 326.252,146.499L326.322,146.519L326.322,147.266C326.76,146.947 327.218,146.499 327.876,146.499C328.403,146.499 328.792,146.818 328.911,147.335C329.26,146.937 329.868,146.499 330.535,146.499C331.521,146.499 331.7,147.485 331.7,148.282L331.7,150.353C331.7,150.921 331.999,150.901 332.387,150.931L332.387,151.08L330.196,151.08L330.196,150.931C330.634,150.871 330.854,150.901 330.854,150.234L330.854,147.943C330.854,147.515 330.784,147.017 330.127,147.017C329.35,147.017 329.051,147.594 329.031,147.644L329.031,150.134C329.031,150.821 329.26,150.931 329.738,150.931L329.738,151.08L327.517,151.08L327.517,150.931C328.035,150.921 328.184,150.782 328.184,150.234L328.184,148.092C328.184,147.266 327.945,147.017 327.497,147.017C326.81,147.017 326.352,147.565 326.352,147.614L326.352,150.403C326.352,150.821 326.461,150.931 327.039,150.931L327.039,151.08L324.828,151.08L324.828,150.931C325.226,150.921 325.525,150.921 325.525,150.234Z" style="fill-rule:nonzero;stroke:none;"/>
    </g>
    <g transform="matrix(1,0,0,1,-31,-18)">
        <path d="M333.881,144.278L333.941,144.298L333.941,147.335C333.971,147.166 334.429,146.509 335.296,146.509C336.491,146.509 337.079,147.664 337.079,148.71C337.079,149.656 336.441,151.18 334.678,151.18C334.11,151.18 333.095,150.901 333.095,150.572L333.095,145.294C333.095,145.065 333.095,144.816 332.447,144.875L332.447,144.726C333.005,144.567 333.553,144.397 333.881,144.278ZM334.927,147.136C334.489,147.136 333.941,147.405 333.941,147.933L333.941,150.373C333.941,150.742 334.589,150.871 334.907,150.871C335.963,150.871 336.192,149.905 336.192,149.078C336.192,148.302 335.913,147.136 334.927,147.136Z" style="fill-rule:nonzero;stroke:none;"/>
    </g>
    <g transform="matrix(1,0,0,1,-31,-18)">
        <path d="M337.487,146.598L338.931,146.598L338.931,149.825C338.931,150.254 339.2,150.602 339.668,150.602C340.116,150.602 340.594,150.284 340.644,150.124C340.714,149.955 340.694,149.756 340.694,149.586L340.694,147.335C340.694,146.887 340.505,146.788 339.977,146.768L339.977,146.598L341.541,146.598L341.541,150.104C341.541,150.572 341.81,150.582 342.168,150.582L342.168,150.732C341.81,150.802 340.764,151.17 340.764,151.17C340.734,151.19 340.764,150.403 340.754,150.323C340.375,150.732 339.977,151.18 339.28,151.18C338.592,151.18 338.104,150.672 338.104,149.925L338.104,147.365C338.104,146.698 337.656,146.768 337.487,146.738L337.487,146.598Z" style="fill-rule:nonzero;stroke:none;"/>
    </g>
    <g transform="matrix(1,0,0,1,-31,-18)">
        <path d="M342.576,151.08L342.576,150.941C343.194,150.901 343.343,150.752 343.343,150.224L343.343,145.473C343.343,145.065 343.323,144.865 342.875,144.865C342.736,144.865 342.706,144.865 342.567,144.875L342.567,144.726C343.025,144.616 344.011,144.328 344.14,144.278L344.19,144.278L344.19,150.224C344.19,150.792 344.3,150.901 344.937,150.941L344.937,151.08L342.576,151.08Z" style="fill-rule:nonzero;stroke:none;"/>
    </g>
    <g transform="matrix(1,0,0,1,-31,-18)">
        <path d="M349.21,149.457L349.369,149.527C348.981,150.533 348.224,151.18 347.258,151.18C346.062,151.18 345.395,150.254 345.395,148.959C345.395,147.116 346.62,146.499 347.427,146.499C348.363,146.499 349.06,147.017 349.17,148.331L346.092,148.331C346.202,150.084 347.009,150.503 347.656,150.503C348.543,150.503 348.981,149.825 349.21,149.457ZM346.112,147.993L348.164,147.993C348.084,147.535 347.995,146.867 347.198,146.867C346.66,146.867 346.272,147.136 346.112,147.993Z" style="fill-rule:nonzero;stroke:none;"/>
    </g>
    <g transform="matrix(1,0,0,1,-31,-18)">
        <path d="M375.091,134.667L375.091,133.947M375.091,132.627L375.091,131.907M375.091,130.587L375.091,129.867M375.091,128.547L375.091,127.827M375.091,126.507L375.091,125.787M375.091,124.467L375.091,123.747M375.091,122.427L375.091,121.707M375.091,120.387L375.091,119.667M375.091,118.347L375.091,117.627M375.091,116.307L375.091,115.587M375.091,114.267L375.091,113.547M375.091,112.227L375.091,111.507M375.091,110.187L375.091,109.467M375.091,108.147L375.091,107.427M375.091,106.107L375.091,105.387M375.091,104.067L375.091,103.347M375.091,102.027L375.091,101.307M375.091,99.987L375.091,99.267M375.091,97.947L375.091,97.227M375.091,95.907L375.091,95.187M375.091,93.867L375.091,93.147M375.091,91.827L375.091,91.107M375.091,89.787L375.091,89.067M375.091,87.747L375.091,87.027M375.091,85.707L375.091,84.987M375.091,83.667L375.091,82.947M375.091,81.627L375.091,80.907M375.091,79.587L375.091,78.867M375.091,77.547L375.091,76.827M375.091,75.507L375.091,74.787M375.091,73.467L375.091,72.747M375.091,71.427L375.091,70.707M375.091,69.387L375.091,68.667M375.091,67.347L375.091,66.627M375.091,65.307L375.091,64.587M375.091,63.267L375.091,62.547M375.091,61.227L375.091,60.507M375.091,59.187L375.091,58.467M375.091,57.147L375.091,56.427M375.091,55.107L375.091,54.387M375.091,53.067L375.091,52.347M375.091,51.027L375.091,50.307M375.091,48.987L375.091,48.267M375.091,46.947L375.091,46.227M375.091,44.907L375.091,44.187M375.091,42.867L375.091,42.147M375.091,40.827L375.091,40.107M375.091,38.787L375.091,38.067M375.091,36.747L375.091,36.027M375.091,34.707L375.091,33.987M375.091,32.667L375.091,31.947M375.091,30.627L375.091,29.907M375.091,28.587L375.091,28" style="fill:none;stroke-width:0.38px;"/>
    </g>
    <g transform="matrix(1,0,0,1,-31,-18)">
        <path d="M375.091,161.334L375.091,134.667" style="fill:none;stroke-width:0.38px;"/>
    </g>
    <g transform="matrix(1,0,0,1,-31,-18)">
        <rect x="42" y="161.334" width="348" height="26.666" style="fill:none;stroke-width:0.38px;"/>
    </g>
    <g transform="matrix(1,0,0,1,-31,-18)">
        <path d="M57.324,134.667L57.324,133.947M57.324,132.627L57.324,131.907M57.324,130.587L57.324,129.867M57.324,128.547L57.324,127.827M57.324,126.507L57.324,125.787M57.324,124.467L57.324,123.747M57.324,122.427L57.324,121.707M57.324,120.387L57.324,119.667M57.324,118.347L57.324,117.627M57.324,116.307L57.324,115.587M57.324,114.267L57.324,113.547M57.324,112.227L57.324,111.507M57.324,110.187L57.324,109.467M57.324,108.147L57.324,107.427M57.324,106.107L57.324,105.387M57.324,104.067L57.324,103.347M57.324,102.027L57.324,101.307M57.324,99.987L57.324,99.267M57.324,97.947L57.324,97.227M57.324,95.907L57.324,95.187M57.324,93.867L57.324,93.147M57.324,91.827L57.324,91.107M57.324,89.787L57.324,89.067M57.324,87.747L57.324,87.027M57.324,85.707L57.324,84.987M57.324,83.667L57.324,82.947M57.324,81.627L57.324,80.907M57.324,79.587L57.324,78.867M57.324,77.547L57.324,76.827M57.324,75.507L57.324,74.787M57.324,73.467L57.324,72.747M57.324,71.427L57.324,70.707M57.324,69.387L57.324,68.667M57.324,67.347L57.324,66.627M57.324,65.307L57.324,64.587M57.324,63.267L57.324,62.547M57.324,61.227L57.324,60.507M57.324,59.187L57.324,58.467M57.324,57.147L57.324,56.427M57.324,55.107L57.324,54.387M57.324,53.067L57.324,52.347M57.324,51.027L57.324,50.307M57.324,48.987L57.324,48.267M57.324,46.947L57.324,46.227M57.324,44.907L57.324,44.187M57.324,42.867L57.324,42.147M57.324,40.827L57.324,40.107M57.324,38.787L57.324,38.067M57.324,36.747L57.324,36.027M57.324,34.707L57.324,33.987M57.324,32.667L57.324,31.947M57.324,30.627L57.324,29.907M57.324,28.587L57.324,28" style="fill:none;stroke-width:0.38px;"/>
    </g>
    <g transform="matrix(1,0,0,1,-31,-18)">
        <path d="M57.324,188L57.324,182.667" style="fill:none;stroke-width:0.38px;"/>
    </g>
    <g transform="matrix(1,0,0,1,-31,-18)">
        <path d="M57.324,166.667L57.324,161.334" style="fill:none;stroke-width:0.38px;"/>
    </g>
    <g transform="matrix(1,0,0,1,-31,-18)">
        <path d="M56.344,170.987L52.51,177.85L52.041,177.85L55.518,171.675L55.478,171.635C55.159,171.834 54.84,171.924 54.442,171.924C54.193,171.924 53.994,171.904 53.784,171.824C53.784,171.824 53.854,172.053 53.854,172.272C53.854,173.358 53.047,174.842 51.822,174.842C51.135,174.842 50.647,174.294 50.647,173.507C50.647,172.432 51.653,171.137 52.798,171.137C53.695,171.137 53.376,171.675 54.402,171.675C55.378,171.675 55.747,171.137 55.976,170.987L56.344,170.987ZM52.818,171.436C52.211,171.436 51.384,172.92 51.384,173.776C51.384,174.254 51.573,174.503 52.022,174.503C52.759,174.503 53.605,173.408 53.605,172.222C53.605,172.123 53.595,171.954 53.526,171.754C53.416,171.724 53.286,171.705 53.167,171.635C52.868,171.475 52.978,171.436 52.818,171.436ZM56.663,174.045C57.42,174.045 57.729,174.473 57.729,175.121C57.729,176.216 56.942,177.72 55.727,177.72C54.86,177.72 54.512,177.113 54.512,176.376C54.512,175.29 55.547,174.045 56.663,174.045ZM56.772,174.344C55.816,174.344 55.269,176.177 55.269,176.714C55.269,177.193 55.478,177.422 55.906,177.422C56.753,177.422 57.48,176.047 57.48,175.201C57.48,174.802 57.251,174.344 56.772,174.344Z" style="fill-rule:nonzero;stroke:none;"/>
    </g>
    <g transform="matrix(1,0,0,1,-31,-18)">
        <path d="M58.456,171.127L61.274,171.127L61.274,171.316C60.587,171.366 60.338,171.436 60.338,172.213L60.338,176.924C60.338,177.312 60.478,177.342 61.364,177.342C62.748,177.342 63.456,177.312 64.043,175.997L64.292,175.997L63.814,177.72L58.456,177.72L58.456,177.541C59.033,177.471 59.312,177.471 59.312,176.645L59.312,172.213C59.312,171.436 59.063,171.366 58.456,171.316L58.456,171.127Z" style="fill-rule:nonzero;stroke:none;"/>
    </g>
    <g transform="matrix(1,0,0,1,-31,-18)">
        <path d="M83.263,134.667L83.263,133.947M83.263,132.627L83.263,131.907M83.263,130.587L83.263,129.867M83.263,128.547L83.263,127.827M83.263,126.507L83.263,125.787M83.263,124.467L83.263,123.747M83.263,122.427L83.263,121.707M83.263,120.387L83.263,119.667M83.263,118.347L83.263,117.627M83.263,116.307L83.263,115.587M83.263,114.267L83.263,113.547M83.263,112.227L83.263,111.507M83.263,110.187L83.263,109.467M83.263,108.147L83.263,107.427M83.263,106.107L83.263,105.387M83.263,104.067L83.263,103.347M83.263,102.027L83.263,101.307M83.263,99.987L83.263,99.267M83.263,97.947L83.263,97.227M83.263,95.907L83.263,95.187M83.263,93.867L83.263,93.147M83.263,91.827L83.263,91.107M83.263,89.787L83.263,89.067M83.263,87.747L83.263,87.027M83.263,85.707L83.263,84.987M83.263,83.667L83.263,82.947M83.263,81.627L83.263,80.907M83.263,79.587L83.263,78.867M83.263,77.547L83.263,76.827M83.263,75.507L83.263,74.787M83.263,73.467L83.263,72.747M83.263,71.427L83.263,70.707M83.263,69.387L83.263,68.667M83.263,67.347L83.263,66.627M83.263,65.307L83.263,64.587M83.263,63.267L83.263,62.547M83.263,61.227L83.263,60.507M83.263,59.187L83.263,58.467M83.263,57.147L83.263,56.427M83.263,55.107L83.263,54.387M83.263,53.067L83.263,52.347M83.263,51.027L83.263,50.307M83.263,48.987L83.263,48.267M83.263,46.947L83.263,46.227M83.263,44.907L83.263,44.187M83.263,42.867L83.263,42.147M83.263,40.827L83.263,40.107M83.263,38.787L83.263,38.067M83.263,36.747L83.263,36.027M83.263,34.707L83.263,33.987M83.263,32.667L83.263,31.947M83.263,30.627L83.263,29.907M83.263,28.587L83.263,28" style="fill:none;stroke-width:0.38px;"/>
    </g>
    <g transform="matrix(1,0,0,1,-31,-18)">
        <path d="M83.263,188L83.263,182.667" style="fill:none;stroke-width:0.38px;"/>
    </g>
    <g transform="matrix(1,0,0,1,-31,-18)">
        <path d="M83.263,166.667L83.263,161.334" style="fill:none;stroke-width:0.38px;"/>
    </g>
    <g transform="matrix(1,0,0,1,-31,-18)">
        <path d="M77.229,171.127L79.988,171.127L79.988,171.316C79.39,171.366 79.131,171.436 79.131,172.083L79.131,174.135L82.139,174.135L82.139,172.093C82.139,171.436 81.88,171.366 81.263,171.316L81.263,171.127L84.031,171.127L84.031,171.316C83.484,171.366 83.145,171.386 83.145,172.083L83.145,176.764C83.145,177.461 83.484,177.471 84.031,177.541L84.031,177.72L81.263,177.72L81.263,177.541C81.93,177.511 82.139,177.372 82.139,176.724L82.139,174.583L79.131,174.583L79.131,176.774C79.131,177.342 79.34,177.491 79.988,177.541L79.988,177.72L77.229,177.72L77.229,177.541C77.876,177.511 78.085,177.392 78.085,176.724L78.085,172.093C78.085,171.615 78.016,171.346 77.229,171.316L77.229,171.127Z" style="fill-rule:nonzero;stroke:none;"/>
    </g>
    <g transform="matrix(1,0,0,1,-31,-18)">
        <path d="M86.731,170.987C86.96,170.987 87.079,171.177 87.079,171.386C87.079,171.734 86.8,171.983 86.82,172.92C87.488,172.581 87.786,171.824 88.155,171.824C88.404,171.824 88.533,172.003 88.533,172.183C88.533,172.581 88.264,172.571 87.806,172.671C87.488,172.75 87.189,172.87 86.91,173.049C87.737,173.607 88.533,173.298 88.533,173.876C88.533,174.055 88.424,174.244 88.195,174.244C87.717,174.244 87.527,173.448 86.82,173.179C86.82,174.274 87.099,174.374 87.099,174.653C87.099,174.922 86.91,175.081 86.711,175.081C86.521,175.081 86.362,174.922 86.362,174.703C86.362,174.374 86.641,174.045 86.641,173.458C86.641,173.358 86.641,173.258 86.621,173.179C86.372,173.328 86.073,173.557 86.043,173.597C85.725,173.926 85.585,174.224 85.286,174.224C85.017,174.224 84.918,174.055 84.918,173.896C84.918,173.298 85.755,173.597 86.551,173.029C86.292,172.87 86.163,172.8 85.685,172.681C85.376,172.621 84.918,172.551 84.918,172.203C84.918,171.983 85.057,171.834 85.247,171.834C85.705,171.834 85.705,172.382 86.641,172.88C86.641,171.874 86.372,171.834 86.372,171.386C86.372,171.207 86.462,170.987 86.731,170.987Z" style="fill-rule:nonzero;stroke:none;"/>
    </g>
    <g transform="matrix(1,0,0,1,-31,-18)">
        <path d="M153.783,134.667L153.783,133.947M153.783,132.627L153.783,131.907M153.783,130.587L153.783,129.867M153.783,128.547L153.783,127.827M153.783,126.507L153.783,125.787M153.783,124.467L153.783,123.747M153.783,122.427L153.783,121.707M153.783,120.387L153.783,119.667M153.783,118.347L153.783,117.627M153.783,116.307L153.783,115.587M153.783,114.267L153.783,113.547M153.783,112.227L153.783,111.507M153.783,110.187L153.783,109.467M153.783,108.147L153.783,107.427M153.783,106.107L153.783,105.387M153.783,104.067L153.783,103.347M153.783,102.027L153.783,101.307M153.783,99.987L153.783,99.267M153.783,97.947L153.783,97.227M153.783,95.907L153.783,95.187M153.783,93.867L153.783,93.147M153.783,91.827L153.783,91.107M153.783,89.787L153.783,89.067M153.783,87.747L153.783,87.027M153.783,85.707L153.783,84.987M153.783,83.667L153.783,82.947M153.783,81.627L153.783,80.907M153.783,79.587L153.783,78.867M153.783,77.547L153.783,76.827M153.783,75.507L153.783,74.787M153.783,73.467L153.783,72.747M153.783,71.427L153.783,70.707M153.783,69.387L153.783,68.667M153.783,67.347L153.783,66.627M153.783,65.307L153.783,64.587M153.783,63.267L153.783,62.547M153.783,61.227L153.783,60.507M153.783,59.187L153.783,58.467M153.783,57.147L153.783,56.427M153.783,55.107L153.783,54.387M153.783,53.067L153.783,52.347M153.783,51.027L153.783,50.307M153.783,48.987L153.783,48.267M153.783,46.947L153.783,46.227M153.783,44.907L153.783,44.187M153.783,42.867L153.783,42.147M153.783,40.827L153.783,40.107M153.783,38.787L153.783,38.067M153.783,36.747L153.783,36.027M153.783,34.707L153.783,33.987M153.783,32.667L153.783,31.947M153.783,30.627L153.783,29.907M153.783,28.587L153.783,28" style="fill:none;stroke-width:0.38px;"/>
    </g>
    <g transform="matrix(1,0,0,1,-31,-18)">
        <path d="M153.783,188L153.783,182.667" style="fill:none;stroke-width:0.38px;"/>
    </g>
    <g transform="matrix(1,0,0,1,-31,-18)">
        <path d="M153.783,166.667L153.783,161.334" style="fill:none;stroke-width:0.38px;"/>
    </g>
    <g transform="matrix(1,0,0,1,-31,-18)">
        <path d="M144.669,171.127L147.428,171.127L147.428,171.316C146.83,171.366 146.571,171.436 146.571,172.083L146.571,174.135L149.579,174.135L149.579,172.093C149.579,171.436 149.32,171.366 148.703,171.316L148.703,171.127L151.471,171.127L151.471,171.316C150.924,171.366 150.585,171.386 150.585,172.083L150.585,176.764C150.585,177.461 150.924,177.471 151.471,177.541L151.471,177.72L148.703,177.72L148.703,177.541C149.37,177.511 149.579,177.372 149.579,176.724L149.579,174.583L146.571,174.583L146.571,176.774C146.571,177.342 146.78,177.491 147.428,177.541L147.428,177.72L144.669,177.72L144.669,177.541C145.316,177.511 145.525,177.392 145.525,176.724L145.525,172.093C145.525,171.615 145.456,171.346 144.669,171.316L144.669,171.127Z" style="fill-rule:nonzero;stroke:none;"/>
    </g>
    <g transform="matrix(1,0,0,1,-31,-18)">
        <path d="M154.171,170.987C154.4,170.987 154.519,171.177 154.519,171.386C154.519,171.734 154.24,171.983 154.26,172.92C154.928,172.581 155.226,171.824 155.595,171.824C155.844,171.824 155.973,172.003 155.973,172.183C155.973,172.581 155.704,172.571 155.246,172.671C154.928,172.75 154.629,172.87 154.35,173.049C155.177,173.607 155.973,173.298 155.973,173.876C155.973,174.055 155.864,174.244 155.635,174.244C155.157,174.244 154.967,173.448 154.26,173.179C154.26,174.274 154.539,174.374 154.539,174.653C154.539,174.922 154.35,175.081 154.151,175.081C153.961,175.081 153.802,174.922 153.802,174.703C153.802,174.374 154.081,174.045 154.081,173.458C154.081,173.358 154.081,173.258 154.061,173.179C153.812,173.328 153.513,173.557 153.483,173.597C153.165,173.926 153.025,174.224 152.726,174.224C152.457,174.224 152.358,174.055 152.358,173.896C152.358,173.298 153.195,173.597 153.991,173.029C153.732,172.87 153.603,172.8 153.125,172.681C152.816,172.621 152.358,172.551 152.358,172.203C152.358,171.983 152.497,171.834 152.687,171.834C153.145,171.834 153.145,172.382 154.081,172.88C154.081,171.874 153.812,171.834 153.812,171.386C153.812,171.207 153.902,170.987 154.171,170.987Z" style="fill-rule:nonzero;stroke:none;"/>
    </g>
    <g transform="matrix(1,0,0,1,-31,-18)">
        <path d="M156.77,171.127L159.589,171.127L159.589,171.316C158.902,171.366 158.653,171.436 158.653,172.213L158.653,176.924C158.653,177.312 158.792,177.342 159.678,177.342C161.063,177.342 161.77,177.312 162.358,175.997L162.607,175.997L162.129,177.72L156.77,177.72L156.77,177.541C157.348,177.471 157.627,177.471 157.627,176.645L157.627,172.213C157.627,171.436 157.378,171.366 156.77,171.316L156.77,171.127Z" style="fill-rule:nonzero;stroke:none;"/>
    </g>
    <g transform="matrix(1,0,0,1,-31,-18)">
        <path d="M252.472,134.667L252.472,133.947M252.472,132.627L252.472,131.907M252.472,130.587L252.472,129.867M252.472,128.547L252.472,127.827M252.472,126.507L252.472,125.787M252.472,124.467L252.472,123.747M252.472,122.427L252.472,121.707M252.472,120.387L252.472,119.667M252.472,118.347L252.472,117.627M252.472,116.307L252.472,115.587M252.472,114.267L252.472,113.547M252.472,112.227L252.472,111.507M252.472,110.187L252.472,109.467M252.472,108.147L252.472,107.427M252.472,106.107L252.472,105.387M252.472,104.067L252.472,103.347M252.472,102.027L252.472,101.307M252.472,99.987L252.472,99.267M252.472,97.947L252.472,97.227M252.472,95.907L252.472,95.187M252.472,93.867L252.472,93.147M252.472,91.827L252.472,91.107M252.472,89.787L252.472,89.067M252.472,87.747L252.472,87.027M252.472,85.707L252.472,84.987M252.472,83.667L252.472,82.947M252.472,81.627L252.472,80.907M252.472,79.587L252.472,78.867M252.472,77.547L252.472,76.827M252.472,75.507L252.472,74.787M252.472,73.467L252.472,72.747M252.472,71.427L252.472,70.707M252.472,69.387L252.472,68.667M252.472,67.347L252.472,66.627M252.472,65.307L252.472,64.587M252.472,63.267L252.472,62.547M252.472,61.227L252.472,60.507M252.472,59.187L252.472,58.467M252.472,57.147L252.472,56.427M252.472,55.107L252.472,54.387M252.472,53.067L252.472,52.347M252.472,51.027L252.472,50.307M252.472,48.987L252.472,48.267M252.472,46.947L252.472,46.227M252.472,44.907L252.472,44.187M252.472,42.867L252.472,42.147M252.472,40.827L252.472,40.107M252.472,38.787L252.472,38.067M252.472,36.747L252.472,36.027M252.472,34.707L252.472,33.987M252.472,32.667L252.472,31.947M252.472,30.627L252.472,29.907M252.472,28.587L252.472,28" style="fill:none;stroke-width:0.38px;"/>
    </g>
    <g transform="matrix(1,0,0,1,-31,-18)">
        <path d="M252.472,188L252.472,182.667" style="fill:none;stroke-width:0.38px;"/>
    </g>
    <g transform="matrix(1,0,0,1,-31,-18)">
        <path d="M252.472,166.667L252.472,161.334" style="fill:none;stroke-width:0.38px;"/>
    </g>
    <g transform="matrix(1,0,0,1,-31,-18)">
        <path d="M243.309,171.127L246.068,171.127L246.068,171.316C245.47,171.366 245.211,171.436 245.211,172.083L245.211,174.135L248.219,174.135L248.219,172.093C248.219,171.436 247.96,171.366 247.343,171.316L247.343,171.127L250.111,171.127L250.111,171.316C249.564,171.366 249.225,171.386 249.225,172.083L249.225,176.764C249.225,177.461 249.564,177.471 250.111,177.541L250.111,177.72L247.343,177.72L247.343,177.541C248.01,177.511 248.219,177.372 248.219,176.724L248.219,174.583L245.211,174.583L245.211,176.774C245.211,177.342 245.42,177.491 246.068,177.541L246.068,177.72L243.309,177.72L243.309,177.541C243.956,177.511 244.165,177.392 244.165,176.724L244.165,172.093C244.165,171.615 244.096,171.346 243.309,171.316L243.309,171.127Z" style="fill-rule:nonzero;stroke:none;"/>
    </g>
    <g transform="matrix(1,0,0,1,-31,-18)">
        <path d="M252.811,170.987C253.04,170.987 253.159,171.177 253.159,171.386C253.159,171.734 252.88,171.983 252.9,172.92C253.568,172.581 253.866,171.824 254.235,171.824C254.484,171.824 254.613,172.003 254.613,172.183C254.613,172.581 254.344,172.571 253.886,172.671C253.568,172.75 253.269,172.87 252.99,173.049C253.817,173.607 254.613,173.298 254.613,173.876C254.613,174.055 254.504,174.244 254.275,174.244C253.797,174.244 253.607,173.448 252.9,173.179C252.9,174.274 253.179,174.374 253.179,174.653C253.179,174.922 252.99,175.081 252.791,175.081C252.601,175.081 252.442,174.922 252.442,174.703C252.442,174.374 252.721,174.045 252.721,173.458C252.721,173.358 252.721,173.258 252.701,173.179C252.452,173.328 252.153,173.557 252.123,173.597C251.805,173.926 251.665,174.224 251.366,174.224C251.097,174.224 250.998,174.055 250.998,173.896C250.998,173.298 251.835,173.597 252.631,173.029C252.372,172.87 252.243,172.8 251.765,172.681C251.456,172.621 250.998,172.551 250.998,172.203C250.998,171.983 251.137,171.834 251.327,171.834C251.785,171.834 251.785,172.382 252.721,172.88C252.721,171.874 252.452,171.834 252.452,171.386C252.452,171.207 252.542,170.987 252.811,170.987Z" style="fill-rule:nonzero;stroke:none;"/>
    </g>
    <g transform="matrix(1,0,0,1,-31,-18)">
        <path d="M255.41,171.127L258.229,171.127L258.229,171.316C257.542,171.366 257.293,171.436 257.293,172.213L257.293,176.924C257.293,177.312 257.432,177.342 258.318,177.342C259.703,177.342 260.41,177.312 260.998,175.997L261.247,175.997L260.769,177.72L255.41,177.72L255.41,177.541C255.988,177.471 256.267,177.471 256.267,176.645L256.267,172.213C256.267,171.436 256.018,171.366 255.41,171.316L255.41,171.127Z" style="fill-rule:nonzero;stroke:none;"/>
    </g>
    <g transform="matrix(1,0,0,1,-31,-18)">
        <path d="M316.913,134.667L316.913,133.947M316.913,132.627L316.913,131.907M316.913,130.587L316.913,129.867M316.913,128.547L316.913,127.827M316.913,126.507L316.913,125.787M316.913,124.467L316.913,123.747M316.913,122.427L316.913,121.707M316.913,120.387L316.913,119.667M316.913,118.347L316.913,117.627M316.913,116.307L316.913,115.587M316.913,114.267L316.913,113.547M316.913,112.227L316.913,111.507M316.913,110.187L316.913,109.467M316.913,108.147L316.913,107.427M316.913,106.107L316.913,105.387M316.913,104.067L316.913,103.347M316.913,102.027L316.913,101.307M316.913,99.987L316.913,99.267M316.913,97.947L316.913,97.227M316.913,95.907L316.913,95.187M316.913,93.867L316.913,93.147M316.913,91.827L316.913,91.107M316.913,89.787L316.913,89.067M316.913,87.747L316.913,87.027M316.913,85.707L316.913,84.987M316.913,83.667L316.913,82.947M316.913,81.627L316.913,80.907M316.913,79.587L316.913,78.867M316.913,77.547L316.913,76.827M316.913,75.507L316.913,74.787M316.913,73.467L316.913,72.747M316.913,71.427L316.913,70.707M316.913,69.387L316.913,68.667M316.913,67.347L316.913,66.627M316.913,65.307L316.913,64.587M316.913,63.267L316.913,62.547M316.913,61.227L316.913,60.507M316.913,59.187L316.913,58.467M316.913,57.147L316.913,56.427M316.913,55.107L316.913,54.387M316.913,53.067L316.913,52.347M316.913,51.027L316.913,50.307M316.913,48.987L316.913,48.267M316.913,46.947L316.913,46.227M316.913,44.907L316.913,44.187M316.913,42.867L316.913,42.147M316.913,40.827L316.913,40.107M316.913,38.787L316.913,38.067M316.913,36.747L316.913,36.027M316.913,34.707L316.913,33.987M316.913,32.667L316.913,31.947M316.913,30.627L316.913,29.907M316.913,28.587L316.913,28" style="fill:none;stroke-width:0.38px;"/>
    </g>
    <g transform="matrix(1,0,0,1,-31,-18)">
        <path d="M316.913,188L316.913,182.667" style="fill:none;stroke-width:0.38px;"/>
    </g>
    <g transform="matrix(1,0,0,1,-31,-18)">
        <path d="M316.913,166.667L316.913,161.334" style="fill:none;stroke-width:0.38px;"/>
    </g>
    <g transform="matrix(1,0,0,1,-31,-18)">
        <path d="M307.749,171.127L310.508,171.127L310.508,171.316C309.91,171.366 309.651,171.436 309.651,172.083L309.651,174.135L312.659,174.135L312.659,172.093C312.659,171.436 312.4,171.366 311.783,171.316L311.783,171.127L314.551,171.127L314.551,171.316C314.004,171.366 313.665,171.386 313.665,172.083L313.665,176.764C313.665,177.461 314.004,177.471 314.551,177.541L314.551,177.72L311.783,177.72L311.783,177.541C312.45,177.511 312.659,177.372 312.659,176.724L312.659,174.583L309.651,174.583L309.651,176.774C309.651,177.342 309.86,177.491 310.508,177.541L310.508,177.72L307.749,177.72L307.749,177.541C308.396,177.511 308.605,177.392 308.605,176.724L308.605,172.093C308.605,171.615 308.536,171.346 307.749,171.316L307.749,171.127Z" style="fill-rule:nonzero;stroke:none;"/>
    </g>
    <g transform="matrix(1,0,0,1,-31,-18)">
        <path d="M317.251,170.987C317.48,170.987 317.599,171.177 317.599,171.386C317.599,171.734 317.32,171.983 317.34,172.92C318.008,172.581 318.306,171.824 318.675,171.824C318.924,171.824 319.053,172.003 319.053,172.183C319.053,172.581 318.784,172.571 318.326,172.671C318.008,172.75 317.709,172.87 317.43,173.049C318.257,173.607 319.053,173.298 319.053,173.876C319.053,174.055 318.944,174.244 318.715,174.244C318.237,174.244 318.047,173.448 317.34,173.179C317.34,174.274 317.619,174.374 317.619,174.653C317.619,174.922 317.43,175.081 317.231,175.081C317.041,175.081 316.882,174.922 316.882,174.703C316.882,174.374 317.161,174.045 317.161,173.458C317.161,173.358 317.161,173.258 317.141,173.179C316.892,173.328 316.593,173.557 316.563,173.597C316.245,173.926 316.105,174.224 315.806,174.224C315.538,174.224 315.438,174.055 315.438,173.896C315.438,173.298 316.275,173.597 317.071,173.029C316.812,172.87 316.683,172.8 316.205,172.681C315.896,172.621 315.438,172.551 315.438,172.203C315.438,171.983 315.577,171.834 315.767,171.834C316.225,171.834 316.225,172.382 317.161,172.88C317.161,171.874 316.892,171.834 316.892,171.386C316.892,171.207 316.982,170.987 317.251,170.987Z" style="fill-rule:nonzero;stroke:none;"/>
    </g>
    <g transform="matrix(1,0,0,1,-31,-18)">
        <path d="M319.85,171.127L322.669,171.127L322.669,171.316C321.982,171.366 321.733,171.436 321.733,172.213L321.733,176.924C321.733,177.312 321.872,177.342 322.759,177.342C324.143,177.342 324.85,177.312 325.438,175.997L325.687,175.997L325.209,177.72L319.85,177.72L319.85,177.541C320.428,177.471 320.707,177.471 320.707,176.645L320.707,172.213C320.707,171.436 320.458,171.366 319.85,171.316L319.85,171.127Z" style="fill-rule:nonzero;stroke:none;"/>
    </g>
    <g transform="matrix(1,0,0,1,-31,-18)">
        <path d="M375.198,134.667L375.198,133.947M375.198,132.627L375.198,131.907M375.198,130.587L375.198,129.867M375.198,128.547L375.198,127.827M375.198,126.507L375.198,125.787M375.198,124.467L375.198,123.747M375.198,122.427L375.198,121.707M375.198,120.387L375.198,119.667M375.198,118.347L375.198,117.627M375.198,116.307L375.198,115.587M375.198,114.267L375.198,113.547M375.198,112.227L375.198,111.507M375.198,110.187L375.198,109.467M375.198,108.147L375.198,107.427M375.198,106.107L375.198,105.387M375.198,104.067L375.198,103.347M375.198,102.027L375.198,101.307M375.198,99.987L375.198,99.267M375.198,97.947L375.198,97.227M375.198,95.907L375.198,95.187M375.198,93.867L375.198,93.147M375.198,91.827L375.198,91.107M375.198,89.787L375.198,89.067M375.198,87.747L375.198,87.027M375.198,85.707L375.198,84.987M375.198,83.667L375.198,82.947M375.198,81.627L375.198,80.907M375.198,79.587L375.198,78.867M375.198,77.547L375.198,76.827M375.198,75.507L375.198,74.787M375.198,73.467L375.198,72.747M375.198,71.427L375.198,70.707M375.198,69.387L375.198,68.667M375.198,67.347L375.198,66.627M375.198,65.307L375.198,64.587M375.198,63.267L375.198,62.547M375.198,61.227L375.198,60.507M375.198,59.187L375.198,58.467M375.198,57.147L375.198,56.427M375.198,55.107L375.198,54.387M375.198,53.067L375.198,52.347M375.198,51.027L375.198,50.307M375.198,48.987L375.198,48.267M375.198,46.947L375.198,46.227M375.198,44.907L375.198,44.187M375.198,42.867L375.198,42.147M375.198,40.827L375.198,40.107M375.198,38.787L375.198,38.067M375.198,36.747L375.198,36.027M375.198,34.707L375.198,33.987M375.198,32.667L375.198,31.947M375.198,30.627L375.198,29.907M375.198,28.587L375.198,28" style="fill:none;stroke-width:0.38px;"/>
    </g>
    <g transform="matrix(1,0,0,1,-31,-18)">
        <path d="M375.198,188L375.198,182.667" style="fill:none;stroke-width:0.38px;"/>
    </g>
    <g transform="matrix(1,0,0,1,-31,-18)">
        <path d="M375.198,166.667L375.198,161.334" style="fill:none;stroke-width:0.38px;"/>
    </g>
    <g transform="matrix(1,0,0,1,-41.8378,-18)">
        <path d="M385.995,28L385.995,25.48" style="fill:none;stroke-width:0.75px;"/>
    </g>
    <g transform="matrix(1,0,0,1,-365.567,-18)">
        <path d="M385.995,28L385.995,25.48" style="fill:none;stroke-width:0.75px;"/>
    </g>
</svg>
