<?xml version="1.0" encoding="UTF-8" standalone="no"?>
<!DOCTYPE svg PUBLIC "-//W3C//DTD SVG 1.1//EN" "http://www.w3.org/Graphics/SVG/1.1/DTD/svg11.dtd">
<svg width="75%" height="75%" viewBox="0 0 370 180" version="1.1" xmlns="http://www.w3.org/2000/svg" xmlns:xlink="http://www.w3.org/1999/xlink" xml:space="preserve" xmlns:serif="http://www.serif.com/" style="fill-rule:evenodd;clip-rule:evenodd;stroke-linejoin:round;stroke-miterlimit:2;" fill="currentColor" stroke="currentColor">
    <g transform="matrix(1,0,0,1,-30,-18)">
        <path d="M75.262,91.568L76.455,91.568L78.84,86.069L81.225,81.95L83.611,76.152L85.996,74.884L88.381,75.633L90.767,75.998L93.152,74.104L95.538,67.767L97.923,66.308L100.308,65.596L102.694,66.355L105.079,70.004L107.464,72.339L109.85,71.774L112.235,71.282L114.621,72.15L117.006,70.674L119.391,71.956L121.777,72.967L124.162,72.236L126.548,71.102L128.933,70.399L131.318,70.374L133.704,70.903L136.089,71.287L138.474,71.881L140.86,72.484L143.245,71.356L145.631,72.347L148.016,75.81L150.401,75.273L152.787,71.89L155.172,69.832L157.557,69.457L159.943,68.859L162.328,70.676L164.714,71.286L167.099,71.664L169.484,73.825L171.87,75.396L174.255,74.161L176.64,72.662L179.026,72.551L181.411,72.33L183.797,73.219L186.182,74.297L188.567,75.593L190.953,76.267L193.338,76.582L195.724,75.642L198.109,73.932L200.494,74.326L202.88,71.776L205.265,74.196L207.65,80.929L210.036,81.766L212.421,81.84L214.807,82.078L217.192,82.571L219.577,80.23L221.963,79.316L224.348,79.126L226.733,77.529L229.119,78.679L231.504,80.041L233.89,81.427L236.275,83.328L238.66,83.991L241.046,85.531L243.431,85.594L245.816,87.039L248.202,88.143L250.587,90.149L252.973,91.896L255.358,91.165L257.743,89.079L260.129,91.794L262.514,95.914L264.9,98.531L267.285,99.359L269.67,100.328L272.056,99.838L274.441,98.574L276.826,98.755L279.212,101.091L281.597,102.509L283.983,103.185L286.368,103.738L287.561,103.738" style="fill:none;stroke-width:0.38px;"/>
    </g>
    <g transform="matrix(1,0,0,1,-30,-18)">
        <path d="M318.571,112.146L319.763,112.146L322.149,111.234L324.534,110.749L326.919,110.858L328.112,110.858" style="fill:none;stroke-width:0.38px;"/>
    </g>
    <g transform="matrix(1,0,0,1,-30,-18)">
        <path d="M349.58,113.902L350.773,113.902L353.158,113.28L355.544,114.219L357.929,114.611L360.315,114.705L362.7,113.977L365.085,113.148L367.471,114.939L369.856,116.191L372.241,116.787L374.627,115.935L377.012,115.781L378.205,115.781" style="fill:none;stroke-width:0.38px;"/>
    </g>
    <g transform="matrix(1,0,0,1,-30,-18)">
        <rect x="42" y="134.667" width="348" height="26.667" style="fill:none;stroke-width:0.38px;"/>
    </g>
    <g transform="matrix(1,0,0,1,-30,-18)">
        <path d="M50.522,134.667L50.522,133.947M50.522,132.627L50.522,131.907M50.522,130.587L50.522,129.867M50.522,128.547L50.522,127.827M50.522,126.507L50.522,125.787M50.522,124.467L50.522,123.747M50.522,122.427L50.522,121.707M50.522,120.387L50.522,119.667M50.522,118.347L50.522,117.627M50.522,116.307L50.522,115.587M50.522,114.267L50.522,113.547M50.522,112.227L50.522,111.507M50.522,110.187L50.522,109.467M50.522,108.147L50.522,107.427M50.522,106.107L50.522,105.387M50.522,104.067L50.522,103.347M50.522,102.027L50.522,101.307M50.522,99.987L50.522,99.267M50.522,97.947L50.522,97.227M50.522,95.907L50.522,95.187M50.522,93.867L50.522,93.147M50.522,91.827L50.522,91.107M50.522,89.787L50.522,89.067M50.522,87.747L50.522,87.027M50.522,85.707L50.522,84.987M50.522,83.667L50.522,82.947M50.522,81.627L50.522,80.907M50.522,79.587L50.522,78.867M50.522,77.547L50.522,76.827M50.522,75.507L50.522,74.787M50.522,73.467L50.522,72.747M50.522,71.427L50.522,70.707M50.522,69.387L50.522,68.667M50.522,67.347L50.522,66.627M50.522,65.307L50.522,64.587M50.522,63.267L50.522,62.547M50.522,61.227L50.522,60.507M50.522,59.187L50.522,58.467M50.522,57.147L50.522,56.427M50.522,55.107L50.522,54.387M50.522,53.067L50.522,52.347M50.522,51.027L50.522,50.307M50.522,48.987L50.522,48.267M50.522,46.947L50.522,46.227M50.522,44.907L50.522,44.187M50.522,42.867L50.522,42.147M50.522,40.827L50.522,40.107M50.522,38.787L50.522,38.067M50.522,36.747L50.522,36.027M50.522,34.707L50.522,33.987M50.522,32.667L50.522,31.947M50.522,30.627L50.522,29.907M50.522,28.587L50.522,28" style="fill:none;stroke-width:0.38px;"/>
    </g>
    <g transform="matrix(1,0,0,1,-30,-18)">
        <path d="M50.522,161.334L50.522,134.667" style="fill:none;stroke-width:0.38px;"/>
    </g>
    <g transform="matrix(1,0,0,1,-30,-18)">
        <path d="M77.887,147.943L77.748,147.943C77.518,146.937 77.08,146.738 76.632,146.738C76.094,146.738 75.875,147.116 75.875,147.385C75.875,147.584 75.935,147.863 76.323,148.082L77.379,148.73C77.867,149.029 78.226,149.288 78.226,149.905C78.226,150.772 77.409,151.18 76.781,151.18C76.323,151.18 75.895,151.001 75.616,151.001C75.487,151.001 75.477,151.031 75.387,151.12L75.277,151.12L75.277,149.576L75.437,149.576C75.576,150.274 75.845,150.971 76.702,150.971C77.18,150.971 77.518,150.702 77.518,150.254C77.518,149.905 77.319,149.676 77.01,149.507L76.423,149.178C75.805,148.829 75.267,148.461 75.267,147.734C75.267,146.987 75.875,146.499 76.632,146.499C77.04,146.499 77.459,146.698 77.568,146.698C77.618,146.698 77.688,146.648 77.748,146.598L77.847,146.598L77.887,147.943Z" style="fill-rule:nonzero;stroke:none;"/>
    </g>
    <g transform="matrix(1,0,0,1,-30,-18)">
        <path d="M81.164,144.328C81.413,144.328 81.522,144.467 81.522,144.646C81.522,144.816 81.413,144.965 81.273,145.045L79.69,146.041L79.281,146.041L80.835,144.497C80.955,144.377 81.044,144.328 81.164,144.328ZM80.377,146.509L80.407,146.539L80.407,150.254C80.407,150.752 80.566,150.921 81.144,150.941L81.144,151.08L78.793,151.08L78.793,150.941C79.401,150.921 79.58,150.792 79.58,150.174L79.58,147.704C79.58,147.316 79.491,147.156 79.212,147.156C79.092,147.156 78.943,147.166 78.843,147.206L78.843,147.057C79.052,146.987 80.198,146.569 80.377,146.509Z" style="fill-rule:nonzero;stroke:none;"/>
    </g>
    <g transform="matrix(1,0,0,1,-30,-18)">
        <path d="M105.918,134.667L105.918,133.947M105.918,132.627L105.918,131.907M105.918,130.587L105.918,129.867M105.918,128.547L105.918,127.827M105.918,126.507L105.918,125.787M105.918,124.467L105.918,123.747M105.918,122.427L105.918,121.707M105.918,120.387L105.918,119.667M105.918,118.347L105.918,117.627M105.918,116.307L105.918,115.587M105.918,114.267L105.918,113.547M105.918,112.227L105.918,111.507M105.918,110.187L105.918,109.467M105.918,108.147L105.918,107.427M105.918,106.107L105.918,105.387M105.918,104.067L105.918,103.347M105.918,102.027L105.918,101.307M105.918,99.987L105.918,99.267M105.918,97.947L105.918,97.227M105.918,95.907L105.918,95.187M105.918,93.867L105.918,93.147M105.918,91.827L105.918,91.107M105.918,89.787L105.918,89.067M105.918,87.747L105.918,87.027M105.918,85.707L105.918,84.987M105.918,83.667L105.918,82.947M105.918,81.627L105.918,80.907M105.918,79.587L105.918,78.867M105.918,77.547L105.918,76.827M105.918,75.507L105.918,74.787M105.918,73.467L105.918,72.747M105.918,71.427L105.918,70.707M105.918,69.387L105.918,68.667M105.918,67.347L105.918,66.627M105.918,65.307L105.918,64.587M105.918,63.267L105.918,62.547M105.918,61.227L105.918,60.507M105.918,59.187L105.918,58.467M105.918,57.147L105.918,56.427M105.918,55.107L105.918,54.387M105.918,53.067L105.918,52.347M105.918,51.027L105.918,50.307M105.918,48.987L105.918,48.267M105.918,46.947L105.918,46.227M105.918,44.907L105.918,44.187M105.918,42.867L105.918,42.147M105.918,40.827L105.918,40.107M105.918,38.787L105.918,38.067M105.918,36.747L105.918,36.027M105.918,34.707L105.918,33.987M105.918,32.667L105.918,31.947M105.918,30.627L105.918,29.907M105.918,28.587L105.918,28" style="fill:none;stroke-width:0.38px;"/>
    </g>
    <g transform="matrix(1,0,0,1,-30,-18)">
        <path d="M105.918,161.334L105.918,134.667" style="fill:none;stroke-width:0.38px;"/>
    </g>
    <g transform="matrix(1,0,0,1,-30,-18)">
        <path d="M117.256,150.234L117.256,147.644C117.256,146.997 116.957,147.086 116.888,147.086C116.788,147.086 116.698,147.096 116.589,147.116L116.589,146.947C116.957,146.837 117.545,146.648 117.983,146.499L118.053,146.519L118.053,147.266C118.491,146.947 118.949,146.499 119.607,146.499C120.135,146.499 120.523,146.818 120.642,147.335C120.991,146.937 121.599,146.499 122.266,146.499C123.252,146.499 123.431,147.485 123.431,148.282L123.431,150.353C123.431,150.921 123.73,150.901 124.119,150.931L124.119,151.08L121.927,151.08L121.927,150.931C122.366,150.871 122.585,150.901 122.585,150.234L122.585,147.943C122.585,147.515 122.515,147.017 121.858,147.017C121.081,147.017 120.782,147.594 120.762,147.644L120.762,150.134C120.762,150.821 120.991,150.931 121.469,150.931L121.469,151.08L119.248,151.08L119.248,150.931C119.766,150.921 119.915,150.782 119.915,150.234L119.915,148.092C119.915,147.266 119.676,147.017 119.228,147.017C118.541,147.017 118.083,147.565 118.083,147.614L118.083,150.403C118.083,150.821 118.192,150.931 118.77,150.931L118.77,151.08L116.559,151.08L116.559,150.931C116.957,150.921 117.256,150.921 117.256,150.234Z" style="fill-rule:nonzero;stroke:none;"/>
    </g>
    <g transform="matrix(1,0,0,1,-30,-18)">
        <path d="M128.551,150.423L128.551,150.682C128.262,151.001 128.013,151.18 127.664,151.18C127.156,151.18 127.047,150.831 127.017,150.453C126.628,150.782 126.15,151.18 125.573,151.18C124.935,151.18 124.517,150.732 124.517,150.154C124.517,149.128 125.443,148.79 126.997,148.182L126.997,147.614C126.997,147.435 127.017,146.738 126.24,146.738C125.961,146.738 125.533,146.887 125.533,147.246C125.533,147.365 125.583,147.495 125.583,147.614C125.583,147.883 125.344,148.043 125.115,148.043C124.866,148.043 124.706,147.814 124.706,147.594C124.706,147.236 125.144,146.499 126.33,146.499C127.365,146.499 127.804,146.987 127.804,147.943L127.804,150.055C127.804,150.353 127.804,150.622 128.103,150.622C128.352,150.622 128.551,150.423 128.551,150.423ZM126.997,148.411C126.33,148.66 125.393,148.989 125.393,149.825C125.393,150.234 125.622,150.602 126.041,150.602C126.399,150.602 126.907,150.323 126.947,150.204C126.957,150.154 126.997,150.124 126.997,149.885L126.997,148.411Z" style="fill-rule:nonzero;stroke:none;"/>
    </g>
    <g transform="matrix(1,0,0,1,-30,-18)">
        <path d="M129.357,150.254L129.357,147.744C129.357,147.067 129.188,147.086 128.989,147.086C128.899,147.086 128.81,147.086 128.73,147.116L128.73,146.947C128.989,146.867 129.487,146.738 130.104,146.499L130.174,146.519L130.174,147.316C130.632,146.887 131.001,146.499 131.618,146.499C132.236,146.499 132.794,146.917 132.794,147.993L132.794,150.284C132.794,150.732 132.973,150.901 133.401,150.931L133.401,151.08L131.33,151.08L131.33,150.931C131.738,150.921 131.947,150.732 131.947,150.084L131.947,147.993C131.947,147.316 131.688,147.047 131.21,147.047C130.802,147.047 130.483,147.365 130.204,147.614L130.204,150.423C130.204,150.831 130.473,150.901 130.861,150.931L130.861,151.08L128.76,151.08L128.76,150.931C129.059,150.901 129.357,150.901 129.357,150.254Z" style="fill-rule:nonzero;stroke:none;"/>
    </g>
    <g transform="matrix(1,0,0,1,-30,-18)">
        <path d="M144.188,134.667L144.188,133.947M144.188,132.627L144.188,131.907M144.188,130.587L144.188,129.867M144.188,128.547L144.188,127.827M144.188,126.507L144.188,125.787M144.188,124.467L144.188,123.747M144.188,122.427L144.188,121.707M144.188,120.387L144.188,119.667M144.188,118.347L144.188,117.627M144.188,116.307L144.188,115.587M144.188,114.267L144.188,113.547M144.188,112.227L144.188,111.507M144.188,110.187L144.188,109.467M144.188,108.147L144.188,107.427M144.188,106.107L144.188,105.387M144.188,104.067L144.188,103.347M144.188,102.027L144.188,101.307M144.188,99.987L144.188,99.267M144.188,97.947L144.188,97.227M144.188,95.907L144.188,95.187M144.188,93.867L144.188,93.147M144.188,91.827L144.188,91.107M144.188,89.787L144.188,89.067M144.188,87.747L144.188,87.027M144.188,85.707L144.188,84.987M144.188,83.667L144.188,82.947M144.188,81.627L144.188,80.907M144.188,79.587L144.188,78.867M144.188,77.547L144.188,76.827M144.188,75.507L144.188,74.787M144.188,73.467L144.188,72.747M144.188,71.427L144.188,70.707M144.188,69.387L144.188,68.667M144.188,67.347L144.188,66.627M144.188,65.307L144.188,64.587M144.188,63.267L144.188,62.547M144.188,61.227L144.188,60.507M144.188,59.187L144.188,58.467M144.188,57.147L144.188,56.427M144.188,55.107L144.188,54.387M144.188,53.067L144.188,52.347M144.188,51.027L144.188,50.307M144.188,48.987L144.188,48.267M144.188,46.947L144.188,46.227M144.188,44.907L144.188,44.187M144.188,42.867L144.188,42.147M144.188,40.827L144.188,40.107M144.188,38.787L144.188,38.067M144.188,36.747L144.188,36.027M144.188,34.707L144.188,33.987M144.188,32.667L144.188,31.947M144.188,30.627L144.188,29.907M144.188,28.587L144.188,28" style="fill:none;stroke-width:0.38px;"/>
    </g>
    <g transform="matrix(1,0,0,1,-30,-18)">
        <path d="M144.188,161.334L144.188,134.667" style="fill:none;stroke-width:0.38px;"/>
    </g>
    <g transform="matrix(1,0,0,1,-30,-18)">
        <path d="M169.764,144.278C170.043,144.278 170.272,144.527 170.272,144.776C170.272,145.065 170.063,145.314 169.764,145.314C169.426,145.314 169.246,145.025 169.246,144.796C169.246,144.527 169.446,144.278 169.764,144.278ZM168.639,151.08L168.639,150.941C169.246,150.901 169.426,150.841 169.426,150.074L169.426,147.764C169.426,147.365 169.336,147.156 169.057,147.156C168.938,147.156 168.788,147.166 168.689,147.206L168.689,147.057C168.918,146.987 170.043,146.569 170.223,146.509L170.252,146.539L170.252,150.074C170.252,150.742 170.322,150.901 170.999,150.941L170.999,151.08L168.639,151.08Z" style="fill-rule:nonzero;stroke:none;"/>
    </g>
    <g transform="matrix(1,0,0,1,-30,-18)">
        <path d="M171.398,146.598L173.45,146.598L173.45,146.748C173.27,146.768 172.862,146.738 172.862,147.037C172.862,147.096 172.902,147.236 172.922,147.286L174.107,149.925L175.023,147.345C175.053,147.236 175.123,147.096 175.123,147.037C175.123,146.768 174.824,146.748 174.635,146.748L174.635,146.598L175.979,146.598L175.979,146.748C175.76,146.768 175.621,146.867 175.511,147.166L173.958,151.28C173.479,152.545 173.041,153.252 172.284,153.252C171.876,153.252 171.537,153.043 171.537,152.664C171.537,152.415 171.736,152.246 172.015,152.246C172.284,152.246 172.603,152.415 172.722,152.415C173.22,152.415 173.609,151.22 173.659,150.901C173.659,150.831 173.589,150.682 173.589,150.682L172.085,147.485C171.896,147.047 171.856,146.818 171.388,146.738L171.398,146.598Z" style="fill-rule:nonzero;stroke:none;"/>
    </g>
    <g transform="matrix(1,0,0,1,-30,-18)">
        <path d="M176.318,146.598L177.762,146.598L177.762,149.825C177.762,150.254 178.031,150.602 178.499,150.602C178.947,150.602 179.426,150.284 179.475,150.124C179.545,149.955 179.525,149.756 179.525,149.586L179.525,147.335C179.525,146.887 179.336,146.788 178.808,146.768L178.808,146.598L180.372,146.598L180.372,150.104C180.372,150.572 180.641,150.582 180.999,150.582L180.999,150.732C180.641,150.802 179.595,151.17 179.595,151.17C179.565,151.19 179.595,150.403 179.585,150.323C179.206,150.732 178.808,151.18 178.111,151.18C177.424,151.18 176.936,150.672 176.936,149.925L176.936,147.365C176.936,146.698 176.487,146.768 176.318,146.738L176.318,146.598Z" style="fill-rule:nonzero;stroke:none;"/>
    </g>
    <g transform="matrix(1,0,0,1,-30,-18)">
        <path d="M181.408,151.08L181.408,150.941C182.025,150.901 182.175,150.752 182.175,150.224L182.175,145.473C182.175,145.065 182.155,144.865 181.706,144.865C181.567,144.865 181.537,144.865 181.398,144.875L181.398,144.726C181.856,144.616 182.842,144.328 182.971,144.278L183.021,144.278L183.021,150.224C183.021,150.792 183.131,150.901 183.768,150.941L183.768,151.08L181.408,151.08Z" style="fill-rule:nonzero;stroke:none;"/>
    </g>
    <g transform="matrix(1,0,0,1,-30,-18)">
        <path d="M188.868,150.503L188.868,150.672L187.404,151.18L187.344,151.15L187.344,150.553L187.324,150.553C187.155,150.821 186.786,151.18 186.059,151.18C185.651,151.18 184.246,150.991 184.246,148.959C184.246,147.654 185.172,146.509 186.288,146.509C186.726,146.509 187.015,146.638 187.344,146.917L187.344,145.343C187.344,145.045 187.344,144.816 186.676,144.875L186.676,144.726C187.274,144.567 188.001,144.328 188.141,144.278L188.19,144.298L188.19,150.074C188.19,150.343 188.21,150.572 188.868,150.503ZM186.318,146.788C185.72,146.788 185.093,147.316 185.093,148.63C185.093,150.104 185.81,150.672 186.467,150.672C186.886,150.672 187.274,150.423 187.344,150.074L187.344,147.833C187.344,147.286 186.925,146.788 186.318,146.788Z" style="fill-rule:nonzero;stroke:none;"/>
    </g>
    <g transform="matrix(1,0,0,1,-30,-18)">
        <path d="M193.36,150.423L193.36,150.682C193.071,151.001 192.822,151.18 192.473,151.18C191.965,151.18 191.856,150.831 191.826,150.453C191.437,150.782 190.959,151.18 190.382,151.18C189.744,151.18 189.326,150.732 189.326,150.154C189.326,149.128 190.252,148.79 191.806,148.182L191.806,147.614C191.806,147.435 191.826,146.738 191.049,146.738C190.77,146.738 190.342,146.887 190.342,147.246C190.342,147.365 190.392,147.495 190.392,147.614C190.392,147.883 190.152,148.043 189.923,148.043C189.674,148.043 189.515,147.814 189.515,147.594C189.515,147.236 189.953,146.499 191.139,146.499C192.174,146.499 192.613,146.987 192.613,147.943L192.613,150.055C192.613,150.353 192.613,150.622 192.911,150.622C193.16,150.622 193.36,150.423 193.36,150.423ZM191.806,148.411C191.139,148.66 190.202,148.989 190.202,149.825C190.202,150.234 190.431,150.602 190.85,150.602C191.208,150.602 191.716,150.323 191.756,150.204C191.766,150.154 191.806,150.124 191.806,149.885L191.806,148.411Z" style="fill-rule:nonzero;stroke:none;"/>
    </g>
    <g transform="matrix(1,0,0,1,-30,-18)">
        <path d="M217.959,134.667L217.959,133.947M217.959,132.627L217.959,131.907M217.959,130.587L217.959,129.867M217.959,128.547L217.959,127.827M217.959,126.507L217.959,125.787M217.959,124.467L217.959,123.747M217.959,122.427L217.959,121.707M217.959,120.387L217.959,119.667M217.959,118.347L217.959,117.627M217.959,116.307L217.959,115.587M217.959,114.267L217.959,113.547M217.959,112.227L217.959,111.507M217.959,110.187L217.959,109.467M217.959,108.147L217.959,107.427M217.959,106.107L217.959,105.387M217.959,104.067L217.959,103.347M217.959,102.027L217.959,101.307M217.959,99.987L217.959,99.267M217.959,97.947L217.959,97.227M217.959,95.907L217.959,95.187M217.959,93.867L217.959,93.147M217.959,91.827L217.959,91.107M217.959,89.787L217.959,89.067M217.959,87.747L217.959,87.027M217.959,85.707L217.959,84.987M217.959,83.667L217.959,82.947M217.959,81.627L217.959,80.907M217.959,79.587L217.959,78.867M217.959,77.547L217.959,76.827M217.959,75.507L217.959,74.787M217.959,73.467L217.959,72.747M217.959,71.427L217.959,70.707M217.959,69.387L217.959,68.667M217.959,67.347L217.959,66.627M217.959,65.307L217.959,64.587M217.959,63.267L217.959,62.547M217.959,61.227L217.959,60.507M217.959,59.187L217.959,58.467M217.959,57.147L217.959,56.427M217.959,55.107L217.959,54.387M217.959,53.067L217.959,52.347M217.959,51.027L217.959,50.307M217.959,48.987L217.959,48.267M217.959,46.947L217.959,46.227M217.959,44.907L217.959,44.187M217.959,42.867L217.959,42.147M217.959,40.827L217.959,40.107M217.959,38.787L217.959,38.067M217.959,36.747L217.959,36.027M217.959,34.707L217.959,33.987M217.959,32.667L217.959,31.947M217.959,30.627L217.959,29.907M217.959,28.587L217.959,28" style="fill:none;stroke-width:0.38px;"/>
    </g>
    <g transform="matrix(1,0,0,1,-30,-18)">
        <path d="M217.959,161.334L217.959,134.667" style="fill:none;stroke-width:0.38px;"/>
    </g>
    <g transform="matrix(1,0,0,1,-30,-18)">
        <path d="M232.026,150.254L232.026,147.744C232.026,147.067 231.857,147.086 231.658,147.086C231.568,147.086 231.479,147.086 231.399,147.116L231.399,146.947C231.658,146.867 232.156,146.738 232.773,146.499L232.843,146.519L232.843,147.316C233.301,146.887 233.67,146.499 234.287,146.499C234.905,146.499 235.463,146.917 235.463,147.993L235.463,150.284C235.463,150.732 235.642,150.901 236.07,150.931L236.07,151.08L233.998,151.08L233.998,150.931C234.407,150.921 234.616,150.732 234.616,150.084L234.616,147.993C234.616,147.316 234.357,147.047 233.879,147.047C233.471,147.047 233.152,147.365 232.873,147.614L232.873,150.423C232.873,150.831 233.142,150.901 233.53,150.931L233.53,151.08L231.429,151.08L231.429,150.931C231.728,150.901 232.026,150.901 232.026,150.254Z" style="fill-rule:nonzero;stroke:none;"/>
    </g>
    <g transform="matrix(1,0,0,1,-30,-18)">
        <path d="M237.504,144.278C237.783,144.278 238.012,144.527 238.012,144.776C238.012,145.065 237.803,145.314 237.504,145.314C237.166,145.314 236.986,145.025 236.986,144.796C236.986,144.527 237.186,144.278 237.504,144.278ZM236.379,151.08L236.379,150.941C236.986,150.901 237.166,150.841 237.166,150.074L237.166,147.764C237.166,147.365 237.076,147.156 236.797,147.156C236.678,147.156 236.528,147.166 236.429,147.206L236.429,147.057C236.658,146.987 237.783,146.569 237.963,146.509L237.992,146.539L237.992,150.074C237.992,150.742 238.062,150.901 238.739,150.941L238.739,151.08L236.379,151.08Z" style="fill-rule:nonzero;stroke:none;"/>
    </g>
    <g transform="matrix(1,0,0,1,-30,-18)">
        <path d="M239.775,150.254L239.775,147.744C239.775,147.067 239.606,147.086 239.407,147.086C239.317,147.086 239.227,147.086 239.148,147.116L239.148,146.947C239.407,146.867 239.905,146.738 240.522,146.499L240.592,146.519L240.592,147.316C241.05,146.887 241.419,146.499 242.036,146.499C242.654,146.499 243.211,146.917 243.211,147.993L243.211,150.284C243.211,150.732 243.391,150.901 243.819,150.931L243.819,151.08L241.747,151.08L241.747,150.931C242.156,150.921 242.365,150.732 242.365,150.084L242.365,147.993C242.365,147.316 242.106,147.047 241.628,147.047C241.219,147.047 240.901,147.365 240.622,147.614L240.622,150.423C240.622,150.831 240.891,150.901 241.279,150.931L241.279,151.08L239.178,151.08L239.178,150.931C239.476,150.901 239.775,150.901 239.775,150.254Z" style="fill-rule:nonzero;stroke:none;"/>
    </g>
    <g transform="matrix(1,0,0,1,-30,-18)">
        <path d="M257.514,134.667L257.514,133.947M257.514,132.627L257.514,131.907M257.514,130.587L257.514,129.867M257.514,128.547L257.514,127.827M257.514,126.507L257.514,125.787M257.514,124.467L257.514,123.747M257.514,122.427L257.514,121.707M257.514,120.387L257.514,119.667M257.514,118.347L257.514,117.627M257.514,116.307L257.514,115.587M257.514,114.267L257.514,113.547M257.514,112.227L257.514,111.507M257.514,110.187L257.514,109.467M257.514,108.147L257.514,107.427M257.514,106.107L257.514,105.387M257.514,104.067L257.514,103.347M257.514,102.027L257.514,101.307M257.514,99.987L257.514,99.267M257.514,97.947L257.514,97.227M257.514,95.907L257.514,95.187M257.514,93.867L257.514,93.147M257.514,91.827L257.514,91.107M257.514,89.787L257.514,89.067M257.514,87.747L257.514,87.027M257.514,85.707L257.514,84.987M257.514,83.667L257.514,82.947M257.514,81.627L257.514,80.907M257.514,79.587L257.514,78.867M257.514,77.547L257.514,76.827M257.514,75.507L257.514,74.787M257.514,73.467L257.514,72.747M257.514,71.427L257.514,70.707M257.514,69.387L257.514,68.667M257.514,67.347L257.514,66.627M257.514,65.307L257.514,64.587M257.514,63.267L257.514,62.547M257.514,61.227L257.514,60.507M257.514,59.187L257.514,58.467M257.514,57.147L257.514,56.427M257.514,55.107L257.514,54.387M257.514,53.067L257.514,52.347M257.514,51.027L257.514,50.307M257.514,48.987L257.514,48.267M257.514,46.947L257.514,46.227M257.514,44.907L257.514,44.187M257.514,42.867L257.514,42.147M257.514,40.827L257.514,40.107M257.514,38.787L257.514,38.067M257.514,36.747L257.514,36.027M257.514,34.707L257.514,33.987M257.514,32.667L257.514,31.947M257.514,30.627L257.514,29.907M257.514,28.587L257.514,28" style="fill:none;stroke-width:0.38px;"/>
    </g>
    <g transform="matrix(1,0,0,1,-30,-18)">
        <path d="M257.514,161.334L257.514,134.667" style="fill:none;stroke-width:0.38px;"/>
    </g>
    <g transform="matrix(1,0,0,1,-30,-18)">
        <path d="M297.943,149.457L298.103,149.527C297.714,150.533 296.957,151.18 295.991,151.18C294.796,151.18 294.129,150.254 294.129,148.959C294.129,147.116 295.354,146.499 296.16,146.499C297.097,146.499 297.794,147.017 297.903,148.331L294.826,148.331C294.935,150.084 295.742,150.503 296.389,150.503C297.276,150.503 297.714,149.825 297.943,149.457ZM294.846,147.993L296.897,147.993C296.818,147.535 296.728,146.867 295.931,146.867C295.393,146.867 295.005,147.136 294.846,147.993Z" style="fill-rule:nonzero;stroke:none;"/>
    </g>
    <g transform="matrix(1,0,0,1,-30,-18)">
        <path d="M299.089,150.254L299.089,147.744C299.089,147.067 298.919,147.086 298.72,147.086C298.63,147.086 298.541,147.086 298.461,147.116L298.461,146.947C298.72,146.867 299.218,146.738 299.836,146.499L299.905,146.519L299.905,147.316C300.364,146.887 300.732,146.499 301.35,146.499C301.967,146.499 302.525,146.917 302.525,147.993L302.525,150.284C302.525,150.732 302.704,150.901 303.132,150.931L303.132,151.08L301.061,151.08L301.061,150.931C301.469,150.921 301.678,150.732 301.678,150.084L301.678,147.993C301.678,147.316 301.419,147.047 300.941,147.047C300.533,147.047 300.214,147.365 299.935,147.614L299.935,150.423C299.935,150.831 300.204,150.901 300.593,150.931L300.593,151.08L298.491,151.08L298.491,150.931C298.79,150.901 299.089,150.901 299.089,150.254Z" style="fill-rule:nonzero;stroke:none;"/>
    </g>
    <g transform="matrix(1,0,0,1,-30,-18)">
        <path d="M306.847,146.867L307.465,146.499L307.505,146.549L307.505,152.485C307.505,153.003 307.714,153.013 308.142,153.112L308.142,153.242L305.792,153.242L305.792,153.082C306.409,153.052 306.678,152.933 306.678,152.365L306.678,150.483L306.618,150.483C306.529,150.682 305.842,151.19 305.154,151.19C304.118,151.19 303.521,150.284 303.521,149.009C303.521,147.545 304.537,146.519 305.742,146.519C306.32,146.519 306.708,146.788 306.847,146.867ZM305.702,146.798C304.945,146.798 304.367,147.465 304.367,148.72C304.367,149.557 304.696,150.582 305.652,150.582C306.001,150.582 306.529,150.393 306.618,150.144C306.658,150.045 306.678,149.915 306.678,149.786L306.678,147.734C306.678,147.136 306.359,146.798 305.702,146.798Z" style="fill-rule:nonzero;stroke:none;"/>
    </g>
    <g transform="matrix(1,0,0,1,-30,-18)">
        <path d="M308.351,146.598L309.796,146.598L309.796,149.825C309.796,150.254 310.065,150.602 310.533,150.602C310.981,150.602 311.459,150.284 311.509,150.124C311.578,149.955 311.559,149.756 311.559,149.586L311.559,147.335C311.559,146.887 311.369,146.788 310.841,146.768L310.841,146.598L312.405,146.598L312.405,150.104C312.405,150.572 312.674,150.582 313.033,150.582L313.033,150.732C312.674,150.802 311.628,151.17 311.628,151.17C311.598,151.19 311.628,150.403 311.618,150.323C311.24,150.732 310.841,151.18 310.144,151.18C309.457,151.18 308.969,150.672 308.969,149.925L308.969,147.365C308.969,146.698 308.521,146.768 308.351,146.738L308.351,146.598Z" style="fill-rule:nonzero;stroke:none;"/>
    </g>
    <g transform="matrix(1,0,0,1,-30,-18)">
        <path d="M317.644,150.423L317.644,150.682C317.355,151.001 317.106,151.18 316.758,151.18C316.25,151.18 316.14,150.831 316.11,150.453C315.722,150.782 315.244,151.18 314.666,151.18C314.029,151.18 313.61,150.732 313.61,150.154C313.61,149.128 314.537,148.79 316.09,148.182L316.09,147.614C316.09,147.435 316.11,146.738 315.333,146.738C315.055,146.738 314.626,146.887 314.626,147.246C314.626,147.365 314.676,147.495 314.676,147.614C314.676,147.883 314.437,148.043 314.208,148.043C313.959,148.043 313.8,147.814 313.8,147.594C313.8,147.236 314.238,146.499 315.423,146.499C316.459,146.499 316.897,146.987 316.897,147.943L316.897,150.055C316.897,150.353 316.897,150.622 317.196,150.622C317.445,150.622 317.644,150.423 317.644,150.423ZM316.09,148.411C315.423,148.66 314.487,148.989 314.487,149.825C314.487,150.234 314.716,150.602 315.134,150.602C315.493,150.602 316.001,150.323 316.041,150.204C316.051,150.154 316.09,150.124 316.09,149.885L316.09,148.411Z" style="fill-rule:nonzero;stroke:none;"/>
    </g>
    <g transform="matrix(1,0,0,1,-30,-18)">
        <path d="M318.451,150.254L318.451,147.744C318.451,147.067 318.282,147.086 318.082,147.086C317.993,147.086 317.903,147.086 317.823,147.116L317.823,146.947C318.082,146.867 318.58,146.738 319.198,146.499L319.268,146.519L319.268,147.316C319.726,146.887 320.094,146.499 320.712,146.499C321.329,146.499 321.887,146.917 321.887,147.993L321.887,150.284C321.887,150.732 322.066,150.901 322.495,150.931L322.495,151.08L320.423,151.08L320.423,150.931C320.831,150.921 321.04,150.732 321.04,150.084L321.04,147.993C321.04,147.316 320.782,147.047 320.303,147.047C319.895,147.047 319.576,147.365 319.297,147.614L319.297,150.423C319.297,150.831 319.566,150.901 319.955,150.931L319.955,151.08L317.853,151.08L317.853,150.931C318.152,150.901 318.451,150.901 318.451,150.254Z" style="fill-rule:nonzero;stroke:none;"/>
    </g>
    <g transform="matrix(1,0,0,1,-30,-18)">
        <path d="M324.118,145.314C324.118,145.314 324.168,145.333 324.168,145.363L324.168,146.608L325.174,146.608L325.174,146.927L324.168,146.927L324.168,149.905C324.168,150.244 324.258,150.672 324.686,150.672C324.945,150.672 325.134,150.503 325.273,150.323L325.423,150.423C325.204,150.821 324.756,151.18 324.258,151.18C323.521,151.18 323.351,150.602 323.351,149.905L323.351,146.927L322.803,146.927C322.803,146.907 322.783,146.897 322.774,146.847C322.853,146.628 323.152,146.778 324.118,145.314Z" style="fill-rule:nonzero;stroke:none;"/>
    </g>
    <g transform="matrix(1,0,0,1,-30,-18)">
        <path d="M325.503,146.598L326.947,146.598L326.947,149.825C326.947,150.254 327.216,150.602 327.684,150.602C328.132,150.602 328.61,150.284 328.66,150.124C328.73,149.955 328.71,149.756 328.71,149.586L328.71,147.335C328.71,146.887 328.52,146.788 327.993,146.768L327.993,146.598L329.556,146.598L329.556,150.104C329.556,150.572 329.825,150.582 330.184,150.582L330.184,150.732C329.825,150.802 328.779,151.17 328.779,151.17C328.75,151.19 328.779,150.403 328.769,150.323C328.391,150.732 327.993,151.18 327.295,151.18C326.608,151.18 326.12,150.672 326.12,149.925L326.12,147.365C326.12,146.698 325.672,146.768 325.503,146.738L325.503,146.598Z" style="fill-rule:nonzero;stroke:none;"/>
    </g>
    <g transform="matrix(1,0,0,1,-30,-18)">
        <path d="M330.582,146.598L332.534,146.598L332.534,146.758C332.375,146.768 332.056,146.768 332.056,147.057C332.056,147.106 332.096,147.206 332.096,147.236L333.162,149.965L333.869,148.152C333.939,147.963 334.228,147.286 334.228,147.086C334.228,146.907 334.078,146.768 333.749,146.758L333.749,146.598L335.144,146.598L335.144,146.758C334.875,146.788 334.785,146.788 334.506,147.485L333.112,150.961C333.112,150.961 333.012,151.22 332.933,151.22C332.853,151.22 332.793,151.09 332.694,150.821C332.176,149.477 331.259,147.405 331.259,147.405C331.02,146.818 330.841,146.788 330.582,146.758L330.582,146.598Z" style="fill-rule:nonzero;stroke:none;"/>
    </g>
    <g transform="matrix(1,0,0,1,-30,-18)">
        <path d="M339.775,150.423L339.775,150.682C339.486,151.001 339.237,151.18 338.889,151.18C338.381,151.18 338.271,150.831 338.241,150.453C337.853,150.782 337.375,151.18 336.797,151.18C336.16,151.18 335.741,150.732 335.741,150.154C335.741,149.128 336.668,148.79 338.221,148.182L338.221,147.614C338.221,147.435 338.241,146.738 337.465,146.738C337.186,146.738 336.757,146.887 336.757,147.246C336.757,147.365 336.807,147.495 336.807,147.614C336.807,147.883 336.568,148.043 336.339,148.043C336.09,148.043 335.931,147.814 335.931,147.594C335.931,147.236 336.369,146.499 337.554,146.499C338.59,146.499 339.028,146.987 339.028,147.943L339.028,150.055C339.028,150.353 339.028,150.622 339.327,150.622C339.576,150.622 339.775,150.423 339.775,150.423ZM338.221,148.411C337.554,148.66 336.618,148.989 336.618,149.825C336.618,150.234 336.847,150.602 337.265,150.602C337.624,150.602 338.132,150.323 338.172,150.204C338.182,150.154 338.221,150.124 338.221,149.885L338.221,148.411Z" style="fill-rule:nonzero;stroke:none;"/>
    </g>
    <g transform="matrix(1,0,0,1,-30,-18)">
        <path d="M376.478,134.667L376.478,133.947M376.478,132.627L376.478,131.907M376.478,130.587L376.478,129.867M376.478,128.547L376.478,127.827M376.478,126.507L376.478,125.787M376.478,124.467L376.478,123.747M376.478,122.427L376.478,121.707M376.478,120.387L376.478,119.667M376.478,118.347L376.478,117.627M376.478,116.307L376.478,115.587M376.478,114.267L376.478,113.547M376.478,112.227L376.478,111.507M376.478,110.187L376.478,109.467M376.478,108.147L376.478,107.427M376.478,106.107L376.478,105.387M376.478,104.067L376.478,103.347M376.478,102.027L376.478,101.307M376.478,99.987L376.478,99.267M376.478,97.947L376.478,97.227M376.478,95.907L376.478,95.187M376.478,93.867L376.478,93.147M376.478,91.827L376.478,91.107M376.478,89.787L376.478,89.067M376.478,87.747L376.478,87.027M376.478,85.707L376.478,84.987M376.478,83.667L376.478,82.947M376.478,81.627L376.478,80.907M376.478,79.587L376.478,78.867M376.478,77.547L376.478,76.827M376.478,75.507L376.478,74.787M376.478,73.467L376.478,72.747M376.478,71.427L376.478,70.707M376.478,69.387L376.478,68.667M376.478,67.347L376.478,66.627M376.478,65.307L376.478,64.587M376.478,63.267L376.478,62.547M376.478,61.227L376.478,60.507M376.478,59.187L376.478,58.467M376.478,57.147L376.478,56.427M376.478,55.107L376.478,54.387M376.478,53.067L376.478,52.347M376.478,51.027L376.478,50.307M376.478,48.987L376.478,48.267M376.478,46.947L376.478,46.227M376.478,44.907L376.478,44.187M376.478,42.867L376.478,42.147M376.478,40.827L376.478,40.107M376.478,38.787L376.478,38.067M376.478,36.747L376.478,36.027M376.478,34.707L376.478,33.987M376.478,32.667L376.478,31.947M376.478,30.627L376.478,29.907M376.478,28.587L376.478,28" style="fill:none;stroke-width:0.38px;"/>
    </g>
    <g transform="matrix(1,0,0,1,-30,-18)">
        <path d="M376.478,161.334L376.478,134.667" style="fill:none;stroke-width:0.38px;"/>
    </g>
    <g transform="matrix(1,0,0,1,-30,-18)">
        <rect x="42" y="161.334" width="348" height="26.666" style="fill:none;stroke-width:0.38px;"/>
    </g>
    <g transform="matrix(1,0,0,1,-30,-18)">
        <path d="M85.697,134.667L85.697,133.947M85.697,132.627L85.697,131.907M85.697,130.587L85.697,129.867M85.697,128.547L85.697,127.827M85.697,126.507L85.697,125.787M85.697,124.467L85.697,123.747M85.697,122.427L85.697,121.707M85.697,120.387L85.697,119.667M85.697,118.347L85.697,117.627M85.697,116.307L85.697,115.587M85.697,114.267L85.697,113.547M85.697,112.227L85.697,111.507M85.697,110.187L85.697,109.467M85.697,108.147L85.697,107.427M85.697,106.107L85.697,105.387M85.697,104.067L85.697,103.347M85.697,102.027L85.697,101.307M85.697,99.987L85.697,99.267M85.697,97.947L85.697,97.227M85.697,95.907L85.697,95.187M85.697,93.867L85.697,93.147M85.697,91.827L85.697,91.107M85.697,89.787L85.697,89.067M85.697,87.747L85.697,87.027M85.697,85.707L85.697,84.987M85.697,83.667L85.697,82.947M85.697,81.627L85.697,80.907M85.697,79.587L85.697,78.867M85.697,77.547L85.697,76.827M85.697,75.507L85.697,74.787M85.697,73.467L85.697,72.747M85.697,71.427L85.697,70.707M85.697,69.387L85.697,68.667M85.697,67.347L85.697,66.627M85.697,65.307L85.697,64.587M85.697,63.267L85.697,62.547M85.697,61.227L85.697,60.507M85.697,59.187L85.697,58.467M85.697,57.147L85.697,56.427M85.697,55.107L85.697,54.387M85.697,53.067L85.697,52.347M85.697,51.027L85.697,50.307M85.697,48.987L85.697,48.267M85.697,46.947L85.697,46.227M85.697,44.907L85.697,44.187M85.697,42.867L85.697,42.147M85.697,40.827L85.697,40.107M85.697,38.787L85.697,38.067M85.697,36.747L85.697,36.027M85.697,34.707L85.697,33.987M85.697,32.667L85.697,31.947M85.697,30.627L85.697,29.907M85.697,28.587L85.697,28" style="fill:none;stroke-width:0.38px;"/>
    </g>
    <g transform="matrix(1,0,0,1,-30,-18)">
        <path d="M85.697,188L85.697,182.667" style="fill:none;stroke-width:0.38px;"/>
    </g>
    <g transform="matrix(1,0,0,1,-30,-18)">
        <path d="M85.697,166.667L85.697,161.334" style="fill:none;stroke-width:0.38px;"/>
    </g>
    <g transform="matrix(1,0,0,1,-30,-18)">
        <path d="M79.749,171.127L82.508,171.127L82.508,171.316C81.91,171.366 81.651,171.436 81.651,172.083L81.651,174.135L84.659,174.135L84.659,172.093C84.659,171.436 84.4,171.366 83.783,171.316L83.783,171.127L86.551,171.127L86.551,171.316C86.004,171.366 85.665,171.386 85.665,172.083L85.665,176.764C85.665,177.461 86.004,177.471 86.551,177.541L86.551,177.72L83.783,177.72L83.783,177.541C84.45,177.511 84.659,177.372 84.659,176.724L84.659,174.583L81.651,174.583L81.651,176.774C81.651,177.342 81.86,177.491 82.508,177.541L82.508,177.72L79.749,177.72L79.749,177.541C80.396,177.511 80.605,177.392 80.605,176.724L80.605,172.093C80.605,171.615 80.536,171.346 79.749,171.316L79.749,171.127Z" style="fill-rule:nonzero;stroke:none;"/>
    </g>
    <g transform="matrix(1,0,0,1,-30,-18)">
        <path d="M89.251,170.987C89.48,170.987 89.599,171.177 89.599,171.386C89.599,171.734 89.32,171.983 89.34,172.92C90.008,172.581 90.306,171.824 90.675,171.824C90.924,171.824 91.053,172.003 91.053,172.183C91.053,172.581 90.784,172.571 90.326,172.671C90.008,172.75 89.709,172.87 89.43,173.049C90.257,173.607 91.053,173.298 91.053,173.876C91.053,174.055 90.944,174.244 90.715,174.244C90.237,174.244 90.047,173.448 89.34,173.179C89.34,174.274 89.619,174.374 89.619,174.653C89.619,174.922 89.43,175.081 89.231,175.081C89.041,175.081 88.882,174.922 88.882,174.703C88.882,174.374 89.161,174.045 89.161,173.458C89.161,173.358 89.161,173.258 89.141,173.179C88.892,173.328 88.593,173.557 88.563,173.597C88.245,173.926 88.105,174.224 87.806,174.224C87.537,174.224 87.438,174.055 87.438,173.896C87.438,173.298 88.275,173.597 89.071,173.029C88.812,172.87 88.683,172.8 88.205,172.681C87.896,172.621 87.438,172.551 87.438,172.203C87.438,171.983 87.577,171.834 87.767,171.834C88.225,171.834 88.225,172.382 89.161,172.88C89.161,171.874 88.892,171.834 88.892,171.386C88.892,171.207 88.982,170.987 89.251,170.987Z" style="fill-rule:nonzero;stroke:none;"/>
    </g>
    <g transform="matrix(1,0,0,1,-30,-18)">
        <path d="M128.915,134.667L128.915,133.947M128.915,132.627L128.915,131.907M128.915,130.587L128.915,129.867M128.915,128.547L128.915,127.827M128.915,126.507L128.915,125.787M128.915,124.467L128.915,123.747M128.915,122.427L128.915,121.707M128.915,120.387L128.915,119.667M128.915,118.347L128.915,117.627M128.915,116.307L128.915,115.587M128.915,114.267L128.915,113.547M128.915,112.227L128.915,111.507M128.915,110.187L128.915,109.467M128.915,108.147L128.915,107.427M128.915,106.107L128.915,105.387M128.915,104.067L128.915,103.347M128.915,102.027L128.915,101.307M128.915,99.987L128.915,99.267M128.915,97.947L128.915,97.227M128.915,95.907L128.915,95.187M128.915,93.867L128.915,93.147M128.915,91.827L128.915,91.107M128.915,89.787L128.915,89.067M128.915,87.747L128.915,87.027M128.915,85.707L128.915,84.987M128.915,83.667L128.915,82.947M128.915,81.627L128.915,80.907M128.915,79.587L128.915,78.867M128.915,77.547L128.915,76.827M128.915,75.507L128.915,74.787M128.915,73.467L128.915,72.747M128.915,71.427L128.915,70.707M128.915,69.387L128.915,68.667M128.915,67.347L128.915,66.627M128.915,65.307L128.915,64.587M128.915,63.267L128.915,62.547M128.915,61.227L128.915,60.507M128.915,59.187L128.915,58.467M128.915,57.147L128.915,56.427M128.915,55.107L128.915,54.387M128.915,53.067L128.915,52.347M128.915,51.027L128.915,50.307M128.915,48.987L128.915,48.267M128.915,46.947L128.915,46.227M128.915,44.907L128.915,44.187M128.915,42.867L128.915,42.147M128.915,40.827L128.915,40.107M128.915,38.787L128.915,38.067M128.915,36.747L128.915,36.027M128.915,34.707L128.915,33.987M128.915,32.667L128.915,31.947M128.915,30.627L128.915,29.907M128.915,28.587L128.915,28" style="fill:none;stroke-width:0.38px;"/>
    </g>
    <g transform="matrix(1,0,0,1,-30,-18)">
        <path d="M128.915,188L128.915,182.667" style="fill:none;stroke-width:0.38px;"/>
    </g>
    <g transform="matrix(1,0,0,1,-30,-18)">
        <path d="M128.915,166.667L128.915,161.334" style="fill:none;stroke-width:0.38px;"/>
    </g>
    <g transform="matrix(1,0,0,1,-30,-18)">
        <path d="M122.949,171.127L125.708,171.127L125.708,171.316C125.11,171.366 124.851,171.436 124.851,172.083L124.851,174.135L127.859,174.135L127.859,172.093C127.859,171.436 127.6,171.366 126.983,171.316L126.983,171.127L129.751,171.127L129.751,171.316C129.204,171.366 128.865,171.386 128.865,172.083L128.865,176.764C128.865,177.461 129.204,177.471 129.751,177.541L129.751,177.72L126.983,177.72L126.983,177.541C127.65,177.511 127.859,177.372 127.859,176.724L127.859,174.583L124.851,174.583L124.851,176.774C124.851,177.342 125.06,177.491 125.708,177.541L125.708,177.72L122.949,177.72L122.949,177.541C123.596,177.511 123.805,177.392 123.805,176.724L123.805,172.093C123.805,171.615 123.736,171.346 122.949,171.316L122.949,171.127Z" style="fill-rule:nonzero;stroke:none;"/>
    </g>
    <g transform="matrix(1,0,0,1,-30,-18)">
        <path d="M132.451,170.987C132.68,170.987 132.799,171.177 132.799,171.386C132.799,171.734 132.52,171.983 132.54,172.92C133.208,172.581 133.506,171.824 133.875,171.824C134.124,171.824 134.253,172.003 134.253,172.183C134.253,172.581 133.984,172.571 133.526,172.671C133.208,172.75 132.909,172.87 132.63,173.049C133.457,173.607 134.253,173.298 134.253,173.876C134.253,174.055 134.144,174.244 133.915,174.244C133.437,174.244 133.247,173.448 132.54,173.179C132.54,174.274 132.819,174.374 132.819,174.653C132.819,174.922 132.63,175.081 132.431,175.081C132.241,175.081 132.082,174.922 132.082,174.703C132.082,174.374 132.361,174.045 132.361,173.458C132.361,173.358 132.361,173.258 132.341,173.179C132.092,173.328 131.793,173.557 131.763,173.597C131.445,173.926 131.305,174.224 131.006,174.224C130.737,174.224 130.638,174.055 130.638,173.896C130.638,173.298 131.475,173.597 132.271,173.029C132.012,172.87 131.883,172.8 131.405,172.681C131.096,172.621 130.638,172.551 130.638,172.203C130.638,171.983 130.777,171.834 130.967,171.834C131.425,171.834 131.425,172.382 132.361,172.88C132.361,171.874 132.092,171.834 132.092,171.386C132.092,171.207 132.182,170.987 132.451,170.987Z" style="fill-rule:nonzero;stroke:none;"/>
    </g>
    <g transform="matrix(1,0,0,1,-30,-18)">
        <path d="M170.8,134.667L170.8,133.947M170.8,132.627L170.8,131.907M170.8,130.587L170.8,129.867M170.8,128.547L170.8,127.827M170.8,126.507L170.8,125.787M170.8,124.467L170.8,123.747M170.8,122.427L170.8,121.707M170.8,120.387L170.8,119.667M170.8,118.347L170.8,117.627M170.8,116.307L170.8,115.587M170.8,114.267L170.8,113.547M170.8,112.227L170.8,111.507M170.8,110.187L170.8,109.467M170.8,108.147L170.8,107.427M170.8,106.107L170.8,105.387M170.8,104.067L170.8,103.347M170.8,102.027L170.8,101.307M170.8,99.987L170.8,99.267M170.8,97.947L170.8,97.227M170.8,95.907L170.8,95.187M170.8,93.867L170.8,93.147M170.8,91.827L170.8,91.107M170.8,89.787L170.8,89.067M170.8,87.747L170.8,87.027M170.8,85.707L170.8,84.987M170.8,83.667L170.8,82.947M170.8,81.627L170.8,80.907M170.8,79.587L170.8,78.867M170.8,77.547L170.8,76.827M170.8,75.507L170.8,74.787M170.8,73.467L170.8,72.747M170.8,71.427L170.8,70.707M170.8,69.387L170.8,68.667M170.8,67.347L170.8,66.627M170.8,65.307L170.8,64.587M170.8,63.267L170.8,62.547M170.8,61.227L170.8,60.507M170.8,59.187L170.8,58.467M170.8,57.147L170.8,56.427M170.8,55.107L170.8,54.387M170.8,53.067L170.8,52.347M170.8,51.027L170.8,50.307M170.8,48.987L170.8,48.267M170.8,46.947L170.8,46.227M170.8,44.907L170.8,44.187M170.8,42.867L170.8,42.147M170.8,40.827L170.8,40.107M170.8,38.787L170.8,38.067M170.8,36.747L170.8,36.027M170.8,34.707L170.8,33.987M170.8,32.667L170.8,31.947M170.8,30.627L170.8,29.907M170.8,28.587L170.8,28" style="fill:none;stroke-width:0.38px;"/>
    </g>
    <g transform="matrix(1,0,0,1,-30,-18)">
        <path d="M170.8,188L170.8,182.667" style="fill:none;stroke-width:0.38px;"/>
    </g>
    <g transform="matrix(1,0,0,1,-30,-18)">
        <path d="M170.8,166.667L170.8,161.334" style="fill:none;stroke-width:0.38px;"/>
    </g>
    <g transform="matrix(1,0,0,1,-30,-18)">
        <path d="M164.829,171.127L167.588,171.127L167.588,171.316C166.99,171.366 166.731,171.436 166.731,172.083L166.731,174.135L169.739,174.135L169.739,172.093C169.739,171.436 169.48,171.366 168.863,171.316L168.863,171.127L171.631,171.127L171.631,171.316C171.084,171.366 170.745,171.386 170.745,172.083L170.745,176.764C170.745,177.461 171.084,177.471 171.631,177.541L171.631,177.72L168.863,177.72L168.863,177.541C169.53,177.511 169.739,177.372 169.739,176.724L169.739,174.583L166.731,174.583L166.731,176.774C166.731,177.342 166.94,177.491 167.588,177.541L167.588,177.72L164.829,177.72L164.829,177.541C165.476,177.511 165.685,177.392 165.685,176.724L165.685,172.093C165.685,171.615 165.616,171.346 164.829,171.316L164.829,171.127Z" style="fill-rule:nonzero;stroke:none;"/>
    </g>
    <g transform="matrix(1,0,0,1,-30,-18)">
        <path d="M174.331,170.987C174.56,170.987 174.679,171.177 174.679,171.386C174.679,171.734 174.4,171.983 174.42,172.92C175.088,172.581 175.386,171.824 175.755,171.824C176.004,171.824 176.133,172.003 176.133,172.183C176.133,172.581 175.864,172.571 175.406,172.671C175.088,172.75 174.789,172.87 174.51,173.049C175.337,173.607 176.133,173.298 176.133,173.876C176.133,174.055 176.024,174.244 175.795,174.244C175.317,174.244 175.127,173.448 174.42,173.179C174.42,174.274 174.699,174.374 174.699,174.653C174.699,174.922 174.51,175.081 174.311,175.081C174.121,175.081 173.962,174.922 173.962,174.703C173.962,174.374 174.241,174.045 174.241,173.458C174.241,173.358 174.241,173.258 174.221,173.179C173.972,173.328 173.673,173.557 173.643,173.597C173.325,173.926 173.185,174.224 172.886,174.224C172.617,174.224 172.518,174.055 172.518,173.896C172.518,173.298 173.355,173.597 174.151,173.029C173.892,172.87 173.763,172.8 173.285,172.681C172.976,172.621 172.518,172.551 172.518,172.203C172.518,171.983 172.657,171.834 172.847,171.834C173.305,171.834 173.305,172.382 174.241,172.88C174.241,171.874 173.972,171.834 173.972,171.386C173.972,171.207 174.062,170.987 174.331,170.987Z" style="fill-rule:nonzero;stroke:none;"/>
    </g>
    <g transform="matrix(1,0,0,1,-30,-18)">
        <path d="M227.09,134.667L227.09,133.947M227.09,132.627L227.09,131.907M227.09,130.587L227.09,129.867M227.09,128.547L227.09,127.827M227.09,126.507L227.09,125.787M227.09,124.467L227.09,123.747M227.09,122.427L227.09,121.707M227.09,120.387L227.09,119.667M227.09,118.347L227.09,117.627M227.09,116.307L227.09,115.587M227.09,114.267L227.09,113.547M227.09,112.227L227.09,111.507M227.09,110.187L227.09,109.467M227.09,108.147L227.09,107.427M227.09,106.107L227.09,105.387M227.09,104.067L227.09,103.347M227.09,102.027L227.09,101.307M227.09,99.987L227.09,99.267M227.09,97.947L227.09,97.227M227.09,95.907L227.09,95.187M227.09,93.867L227.09,93.147M227.09,91.827L227.09,91.107M227.09,89.787L227.09,89.067M227.09,87.747L227.09,87.027M227.09,85.707L227.09,84.987M227.09,83.667L227.09,82.947M227.09,81.627L227.09,80.907M227.09,79.587L227.09,78.867M227.09,77.547L227.09,76.827M227.09,75.507L227.09,74.787M227.09,73.467L227.09,72.747M227.09,71.427L227.09,70.707M227.09,69.387L227.09,68.667M227.09,67.347L227.09,66.627M227.09,65.307L227.09,64.587M227.09,63.267L227.09,62.547M227.09,61.227L227.09,60.507M227.09,59.187L227.09,58.467M227.09,57.147L227.09,56.427M227.09,55.107L227.09,54.387M227.09,53.067L227.09,52.347M227.09,51.027L227.09,50.307M227.09,48.987L227.09,48.267M227.09,46.947L227.09,46.227M227.09,44.907L227.09,44.187M227.09,42.867L227.09,42.147M227.09,40.827L227.09,40.107M227.09,38.787L227.09,38.067M227.09,36.747L227.09,36.027M227.09,34.707L227.09,33.987M227.09,32.667L227.09,31.947M227.09,30.627L227.09,29.907M227.09,28.587L227.09,28" style="fill:none;stroke-width:0.38px;"/>
    </g>
    <g transform="matrix(1,0,0,1,-30,-18)">
        <path d="M227.09,188L227.09,182.667" style="fill:none;stroke-width:0.38px;"/>
    </g>
    <g transform="matrix(1,0,0,1,-30,-18)">
        <path d="M227.09,166.667L227.09,161.334" style="fill:none;stroke-width:0.38px;"/>
    </g>
    <g transform="matrix(1,0,0,1,-30,-18)">
        <path d="M221.109,171.127L223.868,171.127L223.868,171.316C223.27,171.366 223.011,171.436 223.011,172.083L223.011,174.135L226.019,174.135L226.019,172.093C226.019,171.436 225.76,171.366 225.143,171.316L225.143,171.127L227.911,171.127L227.911,171.316C227.364,171.366 227.025,171.386 227.025,172.083L227.025,176.764C227.025,177.461 227.364,177.471 227.911,177.541L227.911,177.72L225.143,177.72L225.143,177.541C225.81,177.511 226.019,177.372 226.019,176.724L226.019,174.583L223.011,174.583L223.011,176.774C223.011,177.342 223.22,177.491 223.868,177.541L223.868,177.72L221.109,177.72L221.109,177.541C221.756,177.511 221.965,177.392 221.965,176.724L221.965,172.093C221.965,171.615 221.896,171.346 221.109,171.316L221.109,171.127Z" style="fill-rule:nonzero;stroke:none;"/>
    </g>
    <g transform="matrix(1,0,0,1,-30,-18)">
        <path d="M230.611,170.987C230.84,170.987 230.959,171.177 230.959,171.386C230.959,171.734 230.68,171.983 230.7,172.92C231.368,172.581 231.666,171.824 232.035,171.824C232.284,171.824 232.413,172.003 232.413,172.183C232.413,172.581 232.144,172.571 231.686,172.671C231.368,172.75 231.069,172.87 230.79,173.049C231.617,173.607 232.413,173.298 232.413,173.876C232.413,174.055 232.304,174.244 232.075,174.244C231.597,174.244 231.407,173.448 230.7,173.179C230.7,174.274 230.979,174.374 230.979,174.653C230.979,174.922 230.79,175.081 230.591,175.081C230.401,175.081 230.242,174.922 230.242,174.703C230.242,174.374 230.521,174.045 230.521,173.458C230.521,173.358 230.521,173.258 230.501,173.179C230.252,173.328 229.953,173.557 229.923,173.597C229.605,173.926 229.465,174.224 229.166,174.224C228.897,174.224 228.798,174.055 228.798,173.896C228.798,173.298 229.635,173.597 230.431,173.029C230.172,172.87 230.043,172.8 229.565,172.681C229.256,172.621 228.798,172.551 228.798,172.203C228.798,171.983 228.937,171.834 229.127,171.834C229.585,171.834 229.585,172.382 230.521,172.88C230.521,171.874 230.252,171.834 230.252,171.386C230.252,171.207 230.342,170.987 230.611,170.987Z" style="fill-rule:nonzero;stroke:none;"/>
    </g>
    <g transform="matrix(1,0,0,1,-30,-18)">
        <path d="M321.206,134.667L321.206,133.947M321.206,132.627L321.206,131.907M321.206,130.587L321.206,129.867M321.206,128.547L321.206,127.827M321.206,126.507L321.206,125.787M321.206,124.467L321.206,123.747M321.206,122.427L321.206,121.707M321.206,120.387L321.206,119.667M321.206,118.347L321.206,117.627M321.206,116.307L321.206,115.587M321.206,114.267L321.206,113.547M321.206,112.227L321.206,111.507M321.206,110.187L321.206,109.467M321.206,108.147L321.206,107.427M321.206,106.107L321.206,105.387M321.206,104.067L321.206,103.347M321.206,102.027L321.206,101.307M321.206,99.987L321.206,99.267M321.206,97.947L321.206,97.227M321.206,95.907L321.206,95.187M321.206,93.867L321.206,93.147M321.206,91.827L321.206,91.107M321.206,89.787L321.206,89.067M321.206,87.747L321.206,87.027M321.206,85.707L321.206,84.987M321.206,83.667L321.206,82.947M321.206,81.627L321.206,80.907M321.206,79.587L321.206,78.867M321.206,77.547L321.206,76.827M321.206,75.507L321.206,74.787M321.206,73.467L321.206,72.747M321.206,71.427L321.206,70.707M321.206,69.387L321.206,68.667M321.206,67.347L321.206,66.627M321.206,65.307L321.206,64.587M321.206,63.267L321.206,62.547M321.206,61.227L321.206,60.507M321.206,59.187L321.206,58.467M321.206,57.147L321.206,56.427M321.206,55.107L321.206,54.387M321.206,53.067L321.206,52.347M321.206,51.027L321.206,50.307M321.206,48.987L321.206,48.267M321.206,46.947L321.206,46.227M321.206,44.907L321.206,44.187M321.206,42.867L321.206,42.147M321.206,40.827L321.206,40.107M321.206,38.787L321.206,38.067M321.206,36.747L321.206,36.027M321.206,34.707L321.206,33.987M321.206,32.667L321.206,31.947M321.206,30.627L321.206,29.907M321.206,28.587L321.206,28" style="fill:none;stroke-width:0.38px;"/>
    </g>
    <g transform="matrix(1,0,0,1,-30,-18)">
        <path d="M321.206,188L321.206,182.667" style="fill:none;stroke-width:0.38px;"/>
    </g>
    <g transform="matrix(1,0,0,1,-30,-18)">
        <path d="M321.206,166.667L321.206,161.334" style="fill:none;stroke-width:0.38px;"/>
    </g>
    <g transform="matrix(1,0,0,1,-30,-18)">
        <path d="M315.599,171.127L318.418,171.127L318.418,171.316C317.731,171.366 317.482,171.436 317.482,172.213L317.482,176.924C317.482,177.312 317.621,177.342 318.507,177.342C319.892,177.342 320.599,177.312 321.187,175.997L321.436,175.997L320.958,177.72L315.599,177.72L315.599,177.541C316.177,177.471 316.456,177.471 316.456,176.645L316.456,172.213C316.456,171.436 316.207,171.366 315.599,171.316L315.599,171.127Z" style="fill-rule:nonzero;stroke:none;"/>
    </g>
    <g transform="matrix(1,0,0,1,-30,-18)">
        <path d="M324.065,170.987C324.294,170.987 324.414,171.177 324.414,171.386C324.414,171.734 324.135,171.983 324.155,172.92C324.822,172.581 325.121,171.824 325.489,171.824C325.738,171.824 325.868,172.003 325.868,172.183C325.868,172.581 325.599,172.571 325.141,172.671C324.822,172.75 324.523,172.87 324.244,173.049C325.071,173.607 325.868,173.298 325.868,173.876C325.868,174.055 325.758,174.244 325.529,174.244C325.051,174.244 324.862,173.448 324.155,173.179C324.155,174.274 324.434,174.374 324.434,174.653C324.434,174.922 324.244,175.081 324.045,175.081C323.856,175.081 323.697,174.922 323.697,174.703C323.697,174.374 323.975,174.045 323.975,173.458C323.975,173.358 323.975,173.258 323.956,173.179C323.707,173.328 323.408,173.557 323.378,173.597C323.059,173.926 322.92,174.224 322.621,174.224C322.352,174.224 322.252,174.055 322.252,173.896C322.252,173.298 323.089,173.597 323.886,173.029C323.627,172.87 323.497,172.8 323.019,172.681C322.711,172.621 322.252,172.551 322.252,172.203C322.252,171.983 322.392,171.834 322.581,171.834C323.039,171.834 323.039,172.382 323.975,172.88C323.975,171.874 323.707,171.834 323.707,171.386C323.707,171.207 323.796,170.987 324.065,170.987Z" style="fill-rule:nonzero;stroke:none;"/>
    </g>
    <g transform="matrix(1,0,0,1,-30,-18)">
        <path d="M376.387,134.667L376.387,133.947M376.387,132.627L376.387,131.907M376.387,130.587L376.387,129.867M376.387,128.547L376.387,127.827M376.387,126.507L376.387,125.787M376.387,124.467L376.387,123.747M376.387,122.427L376.387,121.707M376.387,120.387L376.387,119.667M376.387,118.347L376.387,117.627M376.387,116.307L376.387,115.587M376.387,114.267L376.387,113.547M376.387,112.227L376.387,111.507M376.387,110.187L376.387,109.467M376.387,108.147L376.387,107.427M376.387,106.107L376.387,105.387M376.387,104.067L376.387,103.347M376.387,102.027L376.387,101.307M376.387,99.987L376.387,99.267M376.387,97.947L376.387,97.227M376.387,95.907L376.387,95.187M376.387,93.867L376.387,93.147M376.387,91.827L376.387,91.107M376.387,89.787L376.387,89.067M376.387,87.747L376.387,87.027M376.387,85.707L376.387,84.987M376.387,83.667L376.387,82.947M376.387,81.627L376.387,80.907M376.387,79.587L376.387,78.867M376.387,77.547L376.387,76.827M376.387,75.507L376.387,74.787M376.387,73.467L376.387,72.747M376.387,71.427L376.387,70.707M376.387,69.387L376.387,68.667M376.387,67.347L376.387,66.627M376.387,65.307L376.387,64.587M376.387,63.267L376.387,62.547M376.387,61.227L376.387,60.507M376.387,59.187L376.387,58.467M376.387,57.147L376.387,56.427M376.387,55.107L376.387,54.387M376.387,53.067L376.387,52.347M376.387,51.027L376.387,50.307M376.387,48.987L376.387,48.267M376.387,46.947L376.387,46.227M376.387,44.907L376.387,44.187M376.387,42.867L376.387,42.147M376.387,40.827L376.387,40.107M376.387,38.787L376.387,38.067M376.387,36.747L376.387,36.027M376.387,34.707L376.387,33.987M376.387,32.667L376.387,31.947M376.387,30.627L376.387,29.907M376.387,28.587L376.387,28" style="fill:none;stroke-width:0.38px;"/>
    </g>
    <g transform="matrix(1,0,0,1,-30,-18)">
        <path d="M376.387,188L376.387,182.667" style="fill:none;stroke-width:0.38px;"/>
    </g>
    <g transform="matrix(1,0,0,1,-30,-18)">
        <path d="M376.387,166.667L376.387,161.334" style="fill:none;stroke-width:0.38px;"/>
    </g>
    <g transform="matrix(1,0,0,1,-30,-18)">
        <path d="M369.239,171.127L372.058,171.127L372.058,171.316C371.371,171.366 371.122,171.436 371.122,172.213L371.122,176.924C371.122,177.312 371.261,177.342 372.147,177.342C373.532,177.342 374.239,177.312 374.827,175.997L375.076,175.997L374.598,177.72L369.239,177.72L369.239,177.541C369.817,177.471 370.096,177.471 370.096,176.645L370.096,172.213C370.096,171.436 369.847,171.366 369.239,171.316L369.239,171.127Z" style="fill-rule:nonzero;stroke:none;"/>
    </g>
    <g transform="matrix(1,0,0,1,-30,-18)">
        <path d="M381.51,170.987L377.675,177.85L377.207,177.85L380.683,171.675L380.643,171.635C380.325,171.834 380.006,171.924 379.607,171.924C379.358,171.924 379.159,171.904 378.95,171.824C378.95,171.824 379.02,172.053 379.02,172.272C379.02,173.358 378.213,174.842 376.988,174.842C376.301,174.842 375.813,174.294 375.813,173.507C375.813,172.432 376.819,171.137 377.964,171.137C378.86,171.137 378.542,171.675 379.568,171.675C380.544,171.675 380.912,171.137 381.141,170.987L381.51,170.987ZM377.984,171.436C377.376,171.436 376.55,172.92 376.55,173.776C376.55,174.254 376.739,174.503 377.187,174.503C377.924,174.503 378.771,173.408 378.771,172.222C378.771,172.123 378.761,171.954 378.691,171.754C378.582,171.724 378.452,171.705 378.333,171.635C378.034,171.475 378.143,171.436 377.984,171.436ZM381.829,174.045C382.585,174.045 382.894,174.473 382.894,175.121C382.894,176.216 382.107,177.72 380.892,177.72C380.026,177.72 379.677,177.113 379.677,176.376C379.677,175.29 380.713,174.045 381.829,174.045ZM381.938,174.344C380.982,174.344 380.434,176.177 380.434,176.714C380.434,177.193 380.643,177.422 381.072,177.422C381.918,177.422 382.645,176.047 382.645,175.201C382.645,174.802 382.416,174.344 381.938,174.344Z" style="fill-rule:nonzero;stroke:none;"/>
    </g>
    <g transform="matrix(1,0,0,1,-30,-18)">
        <path d="M42,28L42,25.48" style="fill:none;stroke-width:0.75px;"/>
    </g>
    <g transform="matrix(1,0,0,1,-30,-18)">
        <path d="M390,28L390,25.48" style="fill:none;stroke-width:0.75px;"/>
    </g>
    <g transform="matrix(1,0,0,1,-30,-18)">
        <path d="M42,188L42,187.28M42,186.08L42,185.36M42,184.16L42,183.44M42,182.24L42,181.52M42,180.32L42,179.6M42,178.4L42,177.68M42,176.48L42,175.76M42,174.56L42,173.84M42,172.64L42,171.92M42,170.72L42,170M42,168.8L42,168.08M42,166.88L42,166.16M42,164.96L42,164.24M42,163.04L42,162.32M42,161.12L42,160.4M42,159.2L42,158.48M42,157.28L42,156.56M42,155.36L42,154.64M42,153.44L42,152.72M42,151.52L42,150.8M42,149.6L42,148.88M42,147.68L42,146.96M42,145.76L42,145.04M42,143.84L42,143.12M42,141.92L42,141.2M42,140L42,139.28M42,138.08L42,137.36M42,136.16L42,135.44M42,134.24L42,133.52M42,132.32L42,131.6M42,130.4L42,129.68M42,128.48L42,127.76M42,126.56L42,125.84M42,124.64L42,123.92M42,122.72L42,122M42,120.8L42,120.08M42,118.88L42,118.16M42,116.96L42,116.24M42,115.04L42,114.32M42,113.12L42,112.4M42,111.2L42,110.48M42,109.28L42,108.56M42,107.36L42,106.64M42,105.44L42,104.72M42,103.52L42,102.8M42,101.6L42,100.88M42,99.68L42,98.96M42,97.76L42,97.04M42,95.84L42,95.12M42,93.92L42,93.2M42,92L42,91.28M42,90.08L42,89.36M42,88.16L42,87.44M42,86.24L42,85.52M42,84.32L42,83.6M42,82.4L42,81.68M42,80.48L42,79.76M42,78.56L42,77.84M42,76.64L42,75.92M42,74.72L42,74M42,72.8L42,72.08M42,70.88L42,70.16M42,68.96L42,68.24M42,67.04L42,66.32M42,65.12L42,64.4M42,63.2L42,62.48M42,61.28L42,60.56M42,59.36L42,58.64M42,57.44L42,56.72M42,55.52L42,54.8M42,53.6L42,52.88M42,51.68L42,50.96M42,49.76L42,49.04M42,47.84L42,47.12M42,45.92L42,45.2M42,44L42,43.28M42,42.08L42,41.36M42,40.16L42,39.44M42,38.24L42,37.52M42,36.32L42,35.6M42,34.4L42,33.68M42,32.48L42,31.76M42,30.56L42,29.84M42,28.64L42,28" style="fill:none;stroke-width:0.25px;"/>
    </g>
    <g transform="matrix(1,0,0,1,-30,-18)">
        <path d="M390,188L390,187.28M390,186.08L390,185.36M390,184.16L390,183.44M390,182.24L390,181.52M390,180.32L390,179.6M390,178.4L390,177.68M390,176.48L390,175.76M390,174.56L390,173.84M390,172.64L390,171.92M390,170.72L390,170M390,168.8L390,168.08M390,166.88L390,166.16M390,164.96L390,164.24M390,163.04L390,162.32M390,161.12L390,160.4M390,159.2L390,158.48M390,157.28L390,156.56M390,155.36L390,154.64M390,153.44L390,152.72M390,151.52L390,150.8M390,149.6L390,148.88M390,147.68L390,146.96M390,145.76L390,145.04M390,143.84L390,143.12M390,141.92L390,141.2M390,140L390,139.28M390,138.08L390,137.36M390,136.16L390,135.44M390,134.24L390,133.52M390,132.32L390,131.6M390,130.4L390,129.68M390,128.48L390,127.76M390,126.56L390,125.84M390,124.64L390,123.92M390,122.72L390,122M390,120.8L390,120.08M390,118.88L390,118.16M390,116.96L390,116.24M390,115.04L390,114.32M390,113.12L390,112.4M390,111.2L390,110.48M390,109.28L390,108.56M390,107.36L390,106.64M390,105.44L390,104.72M390,103.52L390,102.8M390,101.6L390,100.88M390,99.68L390,98.96M390,97.76L390,97.04M390,95.84L390,95.12M390,93.92L390,93.2M390,92L390,91.28M390,90.08L390,89.36M390,88.16L390,87.44M390,86.24L390,85.52M390,84.32L390,83.6M390,82.4L390,81.68M390,80.48L390,79.76M390,78.56L390,77.84M390,76.64L390,75.92M390,74.72L390,74M390,72.8L390,72.08M390,70.88L390,70.16M390,68.96L390,68.24M390,67.04L390,66.32M390,65.12L390,64.4M390,63.2L390,62.48M390,61.28L390,60.56M390,59.36L390,58.64M390,57.44L390,56.72M390,55.52L390,54.8M390,53.6L390,52.88M390,51.68L390,50.96M390,49.76L390,49.04M390,47.84L390,47.12M390,45.92L390,45.2M390,44L390,43.28M390,42.08L390,41.36M390,40.16L390,39.44M390,38.24L390,37.52M390,36.32L390,35.6M390,34.4L390,33.68M390,32.48L390,31.76M390,30.56L390,29.84M390,28.64L390,28" style="fill:none;stroke-width:0.25px;"/>
    </g>
</svg>
